<ttFont>
<head>
    <!-- Most of this table will be recalculated by the compiler -->
    <tableVersion value="1.0"/>
    <fontRevision value="5.0"/>
    <checkSumAdjustment value="0x88033612"/>
    <magicNumber value="0x5f0f3cf5"/>
    <flags value="00000000 00001011"/>
    <unitsPerEm value="2048"/>
    <created value="Sun May 15 08:57:39 2005"/>
    <modified value="Thu Apr 14 14:35:57 2011"/>
    <xMin value="-18"/>
    <yMin value="-1110"/>
    <xMax value="9317"/>
    <yMax value="2188"/>
    <macStyle value="00000000 00000000"/>
    <lowestRecPPEM value="8"/>
    <fontDirectionHint value="2"/>
    <indexToLocFormat value="1"/>
    <glyphDataFormat value="0"/>
  </head>
    <TTGlyph name=".notdef" xMin="142" yMin="226" xMax="842" yMax="1588">
      <contour>
        <pt x="142" y="226" on="1"/>
        <pt x="142" y="1588" on="1"/>
        <pt x="842" y="1588" on="1"/>
        <pt x="842" y="226" on="1"/>
      </contour>
      <contour>
        <pt x="284" y="368" on="1"/>
        <pt x="700" y="368" on="1"/>
        <pt x="700" y="1447" on="1"/>
        <pt x="284" y="1447" on="1"/>
      </contour>
    </TTGlyph>
    <TTGlyph name=".null" xMin="142" yMin="226" xMax="842" yMax="1588">
      <contour>
        <pt x="142" y="226" on="1"/>
        <pt x="142" y="1588" on="1"/>
        <pt x="842" y="1588" on="1"/>
        <pt x="842" y="226" on="1"/>
      </contour>
      <contour>
        <pt x="284" y="368" on="1"/>
        <pt x="700" y="368" on="1"/>
        <pt x="700" y="1447" on="1"/>
        <pt x="284" y="1447" on="1"/>
      </contour>
    </TTGlyph>
    <TTGlyph name="afii57381" xMin="142" yMin="226" xMax="842" yMax="1588">
      <contour>
        <pt x="142" y="226" on="1"/>
        <pt x="142" y="1588" on="1"/>
        <pt x="842" y="1588" on="1"/>
        <pt x="842" y="226" on="1"/>
      </contour>
      <contour>
        <pt x="284" y="368" on="1"/>
        <pt x="700" y="368" on="1"/>
        <pt x="700" y="1447" on="1"/>
        <pt x="284" y="1447" on="1"/>
      </contour>
    </TTGlyph>
    <TTGlyph name="afii57388" xMin="142" yMin="226" xMax="842" yMax="1588">
      <contour>
        <pt x="142" y="226" on="1"/>
        <pt x="142" y="1588" on="1"/>
        <pt x="842" y="1588" on="1"/>
        <pt x="842" y="226" on="1"/>
      </contour>
      <contour>
        <pt x="284" y="368" on="1"/>
        <pt x="700" y="368" on="1"/>
        <pt x="700" y="1447" on="1"/>
        <pt x="284" y="1447" on="1"/>
      </contour>
    </TTGlyph>
    <TTGlyph name="afii57396" xMin="142" yMin="226" xMax="842" yMax="1588">
      <contour>
        <pt x="142" y="226" on="1"/>
        <pt x="142" y="1588" on="1"/>
        <pt x="842" y="1588" on="1"/>
        <pt x="842" y="226" on="1"/>
      </contour>
      <contour>
        <pt x="284" y="368" on="1"/>
        <pt x="700" y="368" on="1"/>
        <pt x="700" y="1447" on="1"/>
        <pt x="284" y="1447" on="1"/>
      </contour>
    </TTGlyph>
    <TTGlyph name="afii57397" xMin="142" yMin="226" xMax="842" yMax="1588">
      <contour>
        <pt x="142" y="226" on="1"/>
        <pt x="142" y="1588" on="1"/>
        <pt x="842" y="1588" on="1"/>
        <pt x="842" y="226" on="1"/>
      </contour>
      <contour>
        <pt x="284" y="368" on="1"/>
        <pt x="700" y="368" on="1"/>
        <pt x="700" y="1447" on="1"/>
        <pt x="284" y="1447" on="1"/>
      </contour>
    </TTGlyph>
    <TTGlyph name="afii57398" xMin="142" yMin="226" xMax="842" yMax="1588">
      <contour>
        <pt x="142" y="226" on="1"/>
        <pt x="142" y="1588" on="1"/>
        <pt x="842" y="1588" on="1"/>
        <pt x="842" y="226" on="1"/>
      </contour>
      <contour>
        <pt x="284" y="368" on="1"/>
        <pt x="700" y="368" on="1"/>
        <pt x="700" y="1447" on="1"/>
        <pt x="284" y="1447" on="1"/>
      </contour>
    </TTGlyph>
    <TTGlyph name="afii57403" xMin="142" yMin="226" xMax="842" yMax="1588">
      <contour>
        <pt x="142" y="226" on="1"/>
        <pt x="142" y="1588" on="1"/>
        <pt x="842" y="1588" on="1"/>
        <pt x="842" y="226" on="1"/>
      </contour>
      <contour>
        <pt x="284" y="368" on="1"/>
        <pt x="700" y="368" on="1"/>
        <pt x="700" y="1447" on="1"/>
        <pt x="284" y="1447" on="1"/>
      </contour>
    </TTGlyph>
    <TTGlyph name="afii57407" xMin="142" yMin="226" xMax="842" yMax="1588">
      <contour>
        <pt x="142" y="226" on="1"/>
        <pt x="142" y="1588" on="1"/>
        <pt x="842" y="1588" on="1"/>
        <pt x="842" y="226" on="1"/>
      </contour>
      <contour>
        <pt x="284" y="368" on="1"/>
        <pt x="700" y="368" on="1"/>
        <pt x="700" y="1447" on="1"/>
        <pt x="284" y="1447" on="1"/>
      </contour>
    </TTGlyph>
    <TTGlyph name="afii57440" xMin="142" yMin="226" xMax="842" yMax="1588">
      <contour>
        <pt x="142" y="226" on="1"/>
        <pt x="142" y="1588" on="1"/>
        <pt x="842" y="1588" on="1"/>
        <pt x="842" y="226" on="1"/>
      </contour>
      <contour>
        <pt x="284" y="368" on="1"/>
        <pt x="700" y="368" on="1"/>
        <pt x="700" y="1447" on="1"/>
        <pt x="284" y="1447" on="1"/>
      </contour>
    </TTGlyph>
    <TTGlyph name="afii57451" xMin="142" yMin="226" xMax="842" yMax="1588">
      <contour>
        <pt x="142" y="226" on="1"/>
        <pt x="142" y="1588" on="1"/>
        <pt x="842" y="1588" on="1"/>
        <pt x="842" y="226" on="1"/>
      </contour>
      <contour>
        <pt x="284" y="368" on="1"/>
        <pt x="700" y="368" on="1"/>
        <pt x="700" y="1447" on="1"/>
        <pt x="284" y="1447" on="1"/>
      </contour>
    </TTGlyph>
    <TTGlyph name="afii57452" xMin="142" yMin="226" xMax="842" yMax="1588">
      <contour>
        <pt x="142" y="226" on="1"/>
        <pt x="142" y="1588" on="1"/>
        <pt x="842" y="1588" on="1"/>
        <pt x="842" y="226" on="1"/>
      </contour>
      <contour>
        <pt x="284" y="368" on="1"/>
        <pt x="700" y="368" on="1"/>
        <pt x="700" y="1447" on="1"/>
        <pt x="284" y="1447" on="1"/>
      </contour>
    </TTGlyph>
    <TTGlyph name="afii57453" xMin="142" yMin="226" xMax="842" yMax="1588">
      <contour>
        <pt x="142" y="226" on="1"/>
        <pt x="142" y="1588" on="1"/>
        <pt x="842" y="1588" on="1"/>
        <pt x="842" y="226" on="1"/>
      </contour>
      <contour>
        <pt x="284" y="368" on="1"/>
        <pt x="700" y="368" on="1"/>
        <pt x="700" y="1447" on="1"/>
        <pt x="284" y="1447" on="1"/>
      </contour>
    </TTGlyph>
    <TTGlyph name="afii57454" xMin="142" yMin="226" xMax="842" yMax="1588">
      <contour>
        <pt x="142" y="226" on="1"/>
        <pt x="142" y="1588" on="1"/>
        <pt x="842" y="1588" on="1"/>
        <pt x="842" y="226" on="1"/>
      </contour>
      <contour>
        <pt x="284" y="368" on="1"/>
        <pt x="700" y="368" on="1"/>
        <pt x="700" y="1447" on="1"/>
        <pt x="284" y="1447" on="1"/>
      </contour>
    </TTGlyph>
    <TTGlyph name="afii57455" xMin="142" yMin="226" xMax="842" yMax="1588">
      <contour>
        <pt x="142" y="226" on="1"/>
        <pt x="142" y="1588" on="1"/>
        <pt x="842" y="1588" on="1"/>
        <pt x="842" y="226" on="1"/>
      </contour>
      <contour>
        <pt x="284" y="368" on="1"/>
        <pt x="700" y="368" on="1"/>
        <pt x="700" y="1447" on="1"/>
        <pt x="284" y="1447" on="1"/>
      </contour>
    </TTGlyph>
    <TTGlyph name="afii57456" xMin="142" yMin="226" xMax="842" yMax="1588">
      <contour>
        <pt x="142" y="226" on="1"/>
        <pt x="142" y="1588" on="1"/>
        <pt x="842" y="1588" on="1"/>
        <pt x="842" y="226" on="1"/>
      </contour>
      <contour>
        <pt x="284" y="368" on="1"/>
        <pt x="700" y="368" on="1"/>
        <pt x="700" y="1447" on="1"/>
        <pt x="284" y="1447" on="1"/>
      </contour>
    </TTGlyph>
    <TTGlyph name="afii57457" xMin="142" yMin="226" xMax="842" yMax="1588">
      <contour>
        <pt x="142" y="226" on="1"/>
        <pt x="142" y="1588" on="1"/>
        <pt x="842" y="1588" on="1"/>
        <pt x="842" y="226" on="1"/>
      </contour>
      <contour>
        <pt x="284" y="368" on="1"/>
        <pt x="700" y="368" on="1"/>
        <pt x="700" y="1447" on="1"/>
        <pt x="284" y="1447" on="1"/>
      </contour>
    </TTGlyph>
    <TTGlyph name="afii57458" xMin="142" yMin="226" xMax="842" yMax="1588">
      <contour>
        <pt x="142" y="226" on="1"/>
        <pt x="142" y="1588" on="1"/>
        <pt x="842" y="1588" on="1"/>
        <pt x="842" y="226" on="1"/>
      </contour>
      <contour>
        <pt x="284" y="368" on="1"/>
        <pt x="700" y="368" on="1"/>
        <pt x="700" y="1447" on="1"/>
        <pt x="284" y="1447" on="1"/>
      </contour>
    </TTGlyph>
    <TTGlyph name="afii57505" xMin="142" yMin="226" xMax="842" yMax="1588">
      <contour>
        <pt x="142" y="226" on="1"/>
        <pt x="142" y="1588" on="1"/>
        <pt x="842" y="1588" on="1"/>
        <pt x="842" y="226" on="1"/>
      </contour>
      <contour>
        <pt x="284" y="368" on="1"/>
        <pt x="700" y="368" on="1"/>
        <pt x="700" y="1447" on="1"/>
        <pt x="284" y="1447" on="1"/>
      </contour>
    </TTGlyph>
    <TTGlyph name="afii57506" xMin="142" yMin="226" xMax="842" yMax="1588">
      <contour>
        <pt x="142" y="226" on="1"/>
        <pt x="142" y="1588" on="1"/>
        <pt x="842" y="1588" on="1"/>
        <pt x="842" y="226" on="1"/>
      </contour>
      <contour>
        <pt x="284" y="368" on="1"/>
        <pt x="700" y="368" on="1"/>
        <pt x="700" y="1447" on="1"/>
        <pt x="284" y="1447" on="1"/>
      </contour>
    </TTGlyph>
    <TTGlyph name="afii57507" xMin="142" yMin="226" xMax="842" yMax="1588">
      <contour>
        <pt x="142" y="226" on="1"/>
        <pt x="142" y="1588" on="1"/>
        <pt x="842" y="1588" on="1"/>
        <pt x="842" y="226" on="1"/>
      </contour>
      <contour>
        <pt x="284" y="368" on="1"/>
        <pt x="700" y="368" on="1"/>
        <pt x="700" y="1447" on="1"/>
        <pt x="284" y="1447" on="1"/>
      </contour>
    </TTGlyph>
    <TTGlyph name="afii57508" xMin="142" yMin="226" xMax="842" yMax="1588">
      <contour>
        <pt x="142" y="226" on="1"/>
        <pt x="142" y="1588" on="1"/>
        <pt x="842" y="1588" on="1"/>
        <pt x="842" y="226" on="1"/>
      </contour>
      <contour>
        <pt x="284" y="368" on="1"/>
        <pt x="700" y="368" on="1"/>
        <pt x="700" y="1447" on="1"/>
        <pt x="284" y="1447" on="1"/>
      </contour>
    </TTGlyph>
    <TTGlyph name="afii57509" xMin="142" yMin="226" xMax="842" yMax="1588">
      <contour>
        <pt x="142" y="226" on="1"/>
        <pt x="142" y="1588" on="1"/>
        <pt x="842" y="1588" on="1"/>
        <pt x="842" y="226" on="1"/>
      </contour>
      <contour>
        <pt x="284" y="368" on="1"/>
        <pt x="700" y="368" on="1"/>
        <pt x="700" y="1447" on="1"/>
        <pt x="284" y="1447" on="1"/>
      </contour>
    </TTGlyph>
    <TTGlyph name="afii57511" xMin="142" yMin="226" xMax="842" yMax="1588">
      <contour>
        <pt x="142" y="226" on="1"/>
        <pt x="142" y="1588" on="1"/>
        <pt x="842" y="1588" on="1"/>
        <pt x="842" y="226" on="1"/>
      </contour>
      <contour>
        <pt x="284" y="368" on="1"/>
        <pt x="700" y="368" on="1"/>
        <pt x="700" y="1447" on="1"/>
        <pt x="284" y="1447" on="1"/>
      </contour>
    </TTGlyph>
    <TTGlyph name="afii57512" xMin="142" yMin="226" xMax="842" yMax="1588">
      <contour>
        <pt x="142" y="226" on="1"/>
        <pt x="142" y="1588" on="1"/>
        <pt x="842" y="1588" on="1"/>
        <pt x="842" y="226" on="1"/>
      </contour>
      <contour>
        <pt x="284" y="368" on="1"/>
        <pt x="700" y="368" on="1"/>
        <pt x="700" y="1447" on="1"/>
        <pt x="284" y="1447" on="1"/>
      </contour>
    </TTGlyph>
    <TTGlyph name="afii57513" xMin="142" yMin="226" xMax="842" yMax="1588">
      <contour>
        <pt x="142" y="226" on="1"/>
        <pt x="142" y="1588" on="1"/>
        <pt x="842" y="1588" on="1"/>
        <pt x="842" y="226" on="1"/>
      </contour>
      <contour>
        <pt x="284" y="368" on="1"/>
        <pt x="700" y="368" on="1"/>
        <pt x="700" y="1447" on="1"/>
        <pt x="284" y="1447" on="1"/>
      </contour>
    </TTGlyph>
    <TTGlyph name="afii57514" xMin="142" yMin="226" xMax="842" yMax="1588">
      <contour>
        <pt x="142" y="226" on="1"/>
        <pt x="142" y="1588" on="1"/>
        <pt x="842" y="1588" on="1"/>
        <pt x="842" y="226" on="1"/>
      </contour>
      <contour>
        <pt x="284" y="368" on="1"/>
        <pt x="700" y="368" on="1"/>
        <pt x="700" y="1447" on="1"/>
        <pt x="284" y="1447" on="1"/>
      </contour>
    </TTGlyph>
    <TTGlyph name="afii57519" xMin="142" yMin="226" xMax="842" yMax="1588">
      <contour>
        <pt x="142" y="226" on="1"/>
        <pt x="142" y="1588" on="1"/>
        <pt x="842" y="1588" on="1"/>
        <pt x="842" y="226" on="1"/>
      </contour>
      <contour>
        <pt x="284" y="368" on="1"/>
        <pt x="700" y="368" on="1"/>
        <pt x="700" y="1447" on="1"/>
        <pt x="284" y="1447" on="1"/>
      </contour>
    </TTGlyph>
    <TTGlyph name="afii57534" xMin="142" yMin="226" xMax="842" yMax="1588">
      <contour>
        <pt x="142" y="226" on="1"/>
        <pt x="142" y="1588" on="1"/>
        <pt x="842" y="1588" on="1"/>
        <pt x="842" y="226" on="1"/>
      </contour>
      <contour>
        <pt x="284" y="368" on="1"/>
        <pt x="700" y="368" on="1"/>
        <pt x="700" y="1447" on="1"/>
        <pt x="284" y="1447" on="1"/>
      </contour>
    </TTGlyph>
    <TTGlyph name="afii63167" xMin="142" yMin="226" xMax="842" yMax="1588">
      <contour>
        <pt x="142" y="226" on="1"/>
        <pt x="142" y="1588" on="1"/>
        <pt x="842" y="1588" on="1"/>
        <pt x="842" y="226" on="1"/>
      </contour>
      <contour>
        <pt x="284" y="368" on="1"/>
        <pt x="700" y="368" on="1"/>
        <pt x="700" y="1447" on="1"/>
        <pt x="284" y="1447" on="1"/>
      </contour>
    </TTGlyph>
    <TTGlyph name="alefmaksurainitial" xMin="142" yMin="226" xMax="842" yMax="1588">
      <contour>
        <pt x="142" y="226" on="1"/>
        <pt x="142" y="1588" on="1"/>
        <pt x="842" y="1588" on="1"/>
        <pt x="842" y="226" on="1"/>
      </contour>
      <contour>
        <pt x="284" y="368" on="1"/>
        <pt x="700" y="368" on="1"/>
        <pt x="700" y="1447" on="1"/>
        <pt x="284" y="1447" on="1"/>
      </contour>
    </TTGlyph>
    <TTGlyph name="alefwaslafinalarabic" xMin="142" yMin="226" xMax="842" yMax="1588">
      <contour>
        <pt x="142" y="226" on="1"/>
        <pt x="142" y="1588" on="1"/>
        <pt x="842" y="1588" on="1"/>
        <pt x="842" y="226" on="1"/>
      </contour>
      <contour>
        <pt x="284" y="368" on="1"/>
        <pt x="700" y="368" on="1"/>
        <pt x="700" y="1447" on="1"/>
        <pt x="284" y="1447" on="1"/>
      </contour>
    </TTGlyph>
    <TTGlyph name="ampersand" xMin="142" yMin="226" xMax="842" yMax="1588">
      <contour>
        <pt x="142" y="226" on="1"/>
        <pt x="142" y="1588" on="1"/>
        <pt x="842" y="1588" on="1"/>
        <pt x="842" y="226" on="1"/>
      </contour>
      <contour>
        <pt x="284" y="368" on="1"/>
        <pt x="700" y="368" on="1"/>
        <pt x="700" y="1447" on="1"/>
        <pt x="284" y="1447" on="1"/>
      </contour>
    </TTGlyph>
    <TTGlyph name="asterisk" xMin="142" yMin="226" xMax="842" yMax="1588">
      <contour>
        <pt x="142" y="226" on="1"/>
        <pt x="142" y="1588" on="1"/>
        <pt x="842" y="1588" on="1"/>
        <pt x="842" y="226" on="1"/>
      </contour>
      <contour>
        <pt x="284" y="368" on="1"/>
        <pt x="700" y="368" on="1"/>
        <pt x="700" y="1447" on="1"/>
        <pt x="284" y="1447" on="1"/>
      </contour>
    </TTGlyph>
    <TTGlyph name="behmeemisolatedarabic" xMin="142" yMin="226" xMax="842" yMax="1588">
      <contour>
        <pt x="142" y="226" on="1"/>
        <pt x="142" y="1588" on="1"/>
        <pt x="842" y="1588" on="1"/>
        <pt x="842" y="226" on="1"/>
      </contour>
      <contour>
        <pt x="284" y="368" on="1"/>
        <pt x="700" y="368" on="1"/>
        <pt x="700" y="1447" on="1"/>
        <pt x="284" y="1447" on="1"/>
      </contour>
    </TTGlyph>
    <TTGlyph name="behnoonfinalarabic" xMin="142" yMin="226" xMax="842" yMax="1588">
      <contour>
        <pt x="142" y="226" on="1"/>
        <pt x="142" y="1588" on="1"/>
        <pt x="842" y="1588" on="1"/>
        <pt x="842" y="226" on="1"/>
      </contour>
      <contour>
        <pt x="284" y="368" on="1"/>
        <pt x="700" y="368" on="1"/>
        <pt x="700" y="1447" on="1"/>
        <pt x="284" y="1447" on="1"/>
      </contour>
    </TTGlyph>
    <TTGlyph name="colon" xMin="142" yMin="226" xMax="842" yMax="1588">
      <contour>
        <pt x="142" y="226" on="1"/>
        <pt x="142" y="1588" on="1"/>
        <pt x="842" y="1588" on="1"/>
        <pt x="842" y="226" on="1"/>
      </contour>
      <contour>
        <pt x="284" y="368" on="1"/>
        <pt x="700" y="368" on="1"/>
        <pt x="700" y="1447" on="1"/>
        <pt x="284" y="1447" on="1"/>
      </contour>
    </TTGlyph>
    <TTGlyph name="dagger" xMin="142" yMin="226" xMax="842" yMax="1588">
      <contour>
        <pt x="142" y="226" on="1"/>
        <pt x="142" y="1588" on="1"/>
        <pt x="842" y="1588" on="1"/>
        <pt x="842" y="226" on="1"/>
      </contour>
      <contour>
        <pt x="284" y="368" on="1"/>
        <pt x="700" y="368" on="1"/>
        <pt x="700" y="1447" on="1"/>
        <pt x="284" y="1447" on="1"/>
      </contour>
    </TTGlyph>
    <TTGlyph name="dalringfinal" xMin="142" yMin="226" xMax="842" yMax="1588">
      <contour>
        <pt x="142" y="226" on="1"/>
        <pt x="142" y="1588" on="1"/>
        <pt x="842" y="1588" on="1"/>
        <pt x="842" y="226" on="1"/>
      </contour>
      <contour>
        <pt x="284" y="368" on="1"/>
        <pt x="700" y="368" on="1"/>
        <pt x="700" y="1447" on="1"/>
        <pt x="284" y="1447" on="1"/>
      </contour>
    </TTGlyph>
    <TTGlyph name="ddalfinalarabic" xMin="142" yMin="226" xMax="842" yMax="1588">
      <contour>
        <pt x="142" y="226" on="1"/>
        <pt x="142" y="1588" on="1"/>
        <pt x="842" y="1588" on="1"/>
        <pt x="842" y="226" on="1"/>
      </contour>
      <contour>
        <pt x="284" y="368" on="1"/>
        <pt x="700" y="368" on="1"/>
        <pt x="700" y="1447" on="1"/>
        <pt x="284" y="1447" on="1"/>
      </contour>
    </TTGlyph>
    <TTGlyph name="divide" xMin="142" yMin="226" xMax="842" yMax="1588">
      <contour>
        <pt x="142" y="226" on="1"/>
        <pt x="142" y="1588" on="1"/>
        <pt x="842" y="1588" on="1"/>
        <pt x="842" y="226" on="1"/>
      </contour>
      <contour>
        <pt x="284" y="368" on="1"/>
        <pt x="700" y="368" on="1"/>
        <pt x="700" y="1447" on="1"/>
        <pt x="284" y="1447" on="1"/>
      </contour>
    </TTGlyph>
    <TTGlyph name="dollar" xMin="142" yMin="226" xMax="842" yMax="1588">
      <contour>
        <pt x="142" y="226" on="1"/>
        <pt x="142" y="1588" on="1"/>
        <pt x="842" y="1588" on="1"/>
        <pt x="842" y="226" on="1"/>
      </contour>
      <contour>
        <pt x="284" y="368" on="1"/>
        <pt x="700" y="368" on="1"/>
        <pt x="700" y="1447" on="1"/>
        <pt x="284" y="1447" on="1"/>
      </contour>
    </TTGlyph>
    <TTGlyph name="dotlessyehfinalarabic" xMin="142" yMin="226" xMax="842" yMax="1588">
      <contour>
        <pt x="142" y="226" on="1"/>
        <pt x="142" y="1588" on="1"/>
        <pt x="842" y="1588" on="1"/>
        <pt x="842" y="226" on="1"/>
      </contour>
      <contour>
        <pt x="284" y="368" on="1"/>
        <pt x="700" y="368" on="1"/>
        <pt x="700" y="1447" on="1"/>
        <pt x="284" y="1447" on="1"/>
      </contour>
    </TTGlyph>
    <TTGlyph name="dotlessyehinitialarabic" xMin="142" yMin="226" xMax="842" yMax="1588">
      <contour>
        <pt x="142" y="226" on="1"/>
        <pt x="142" y="1588" on="1"/>
        <pt x="842" y="1588" on="1"/>
        <pt x="842" y="226" on="1"/>
      </contour>
      <contour>
        <pt x="284" y="368" on="1"/>
        <pt x="700" y="368" on="1"/>
        <pt x="700" y="1447" on="1"/>
        <pt x="284" y="1447" on="1"/>
      </contour>
    </TTGlyph>
    <TTGlyph name="dotlessyehmedialarabic" xMin="142" yMin="226" xMax="842" yMax="1588">
      <contour>
        <pt x="142" y="226" on="1"/>
        <pt x="142" y="1588" on="1"/>
        <pt x="842" y="1588" on="1"/>
        <pt x="842" y="226" on="1"/>
      </contour>
      <contour>
        <pt x="284" y="368" on="1"/>
        <pt x="700" y="368" on="1"/>
        <pt x="700" y="1447" on="1"/>
        <pt x="284" y="1447" on="1"/>
      </contour>
    </TTGlyph>
    <TTGlyph name="elefmaksuramedial" xMin="142" yMin="226" xMax="842" yMax="1588">
      <contour>
        <pt x="142" y="226" on="1"/>
        <pt x="142" y="1588" on="1"/>
        <pt x="842" y="1588" on="1"/>
        <pt x="842" y="226" on="1"/>
      </contour>
      <contour>
        <pt x="284" y="368" on="1"/>
        <pt x="700" y="368" on="1"/>
        <pt x="700" y="1447" on="1"/>
        <pt x="284" y="1447" on="1"/>
      </contour>
    </TTGlyph>
    <TTGlyph name="ellipsis" xMin="142" yMin="226" xMax="842" yMax="1588">
      <contour>
        <pt x="142" y="226" on="1"/>
        <pt x="142" y="1588" on="1"/>
        <pt x="842" y="1588" on="1"/>
        <pt x="842" y="226" on="1"/>
      </contour>
      <contour>
        <pt x="284" y="368" on="1"/>
        <pt x="700" y="368" on="1"/>
        <pt x="700" y="1447" on="1"/>
        <pt x="284" y="1447" on="1"/>
      </contour>
    </TTGlyph>
    <TTGlyph name="emdash" xMin="218" yMin="-346" xMax="2266" yMax="1476">
      <contour>
        <pt x="2266" y="1440" on="1"/>
        <pt x="2266" y="1384" on="0"/>
        <pt x="2199" y="1357" on="1"/>
        <pt x="2158" y="1339" on="0"/>
        <pt x="1852" y="1204" on="1"/>
        <pt x="1634" y="1108" on="0"/>
        <pt x="1613" y="1108" on="1"/>
        <pt x="1537" y="1108" on="1"/>
        <pt x="1537" y="1112" on="0"/>
        <pt x="1520" y="1140" on="0"/>
        <pt x="1520" y="1153" on="1"/>
        <pt x="1520" y="1207" on="0"/>
        <pt x="1796" y="1313" on="1"/>
        <pt x="2121" y="1439" on="0"/>
        <pt x="2169" y="1476" on="1"/>
        <pt x="2248" y="1476" on="1"/>
        <pt x="2266" y="1463" on="0"/>
      </contour>
      <contour>
        <pt x="905" y="591" on="1"/>
        <pt x="905" y="555" on="0"/>
        <pt x="807" y="483" on="0"/>
        <pt x="769" y="483" on="1"/>
        <pt x="722" y="483" on="0"/>
        <pt x="604" y="551" on="0"/>
        <pt x="604" y="580" on="1"/>
        <pt x="604" y="598" on="0"/>
        <pt x="646" y="645" on="1"/>
        <pt x="692" y="698" on="0"/>
        <pt x="734" y="698" on="1"/>
        <pt x="773" y="698" on="0"/>
        <pt x="905" y="613" on="0"/>
      </contour>
      <contour>
        <pt x="2251" y="315" on="1"/>
        <pt x="2251" y="267" on="0"/>
        <pt x="2209" y="211" on="1"/>
        <pt x="2157" y="145" on="0"/>
        <pt x="2087" y="145" on="1"/>
        <pt x="2027" y="145" on="0"/>
        <pt x="1894" y="179" on="1"/>
        <pt x="1755" y="215" on="0"/>
        <pt x="1718" y="218" on="1"/>
        <pt x="1673" y="161" on="0"/>
        <pt x="1562" y="125" on="1"/>
        <pt x="1485" y="101" on="0"/>
        <pt x="1408" y="76" on="1"/>
        <pt x="1399" y="36" on="0"/>
        <pt x="1400" y="18" on="1"/>
        <pt x="1401" y="9" on="0"/>
        <pt x="1401" y="1" on="1"/>
        <pt x="1401" y="-115" on="0"/>
        <pt x="1204" y="-225" on="1"/>
        <pt x="1022" y="-326" on="0"/>
        <pt x="868" y="-329" on="1"/>
        <pt x="859" y="-330" on="0"/>
        <pt x="796" y="-346" on="0"/>
        <pt x="773" y="-346" on="1"/>
        <pt x="656" y="-346" on="1"/>
        <pt x="531" y="-346" on="0"/>
        <pt x="389" y="-279" on="1"/>
        <pt x="218" y="-199" on="0"/>
        <pt x="218" y="-85" on="1"/>
        <pt x="218" y="-17" on="0"/>
        <pt x="284" y="86" on="1"/>
        <pt x="355" y="201" on="0"/>
        <pt x="452" y="257" on="1"/>
        <pt x="503" y="257" on="1"/>
        <pt x="503" y="200" on="1"/>
        <pt x="503" y="188" on="0"/>
        <pt x="390" y="34" on="0"/>
        <pt x="390" y="22" on="1"/>
        <pt x="390" y="-59" on="0"/>
        <pt x="540" y="-121" on="1"/>
        <pt x="666" y="-172" on="0"/>
        <pt x="769" y="-172" on="1"/>
        <pt x="863" y="-172" on="0"/>
        <pt x="1034" y="-131" on="1"/>
        <pt x="1263" y="-76" on="0"/>
        <pt x="1263" y="2" on="1"/>
        <pt x="1263" y="63" on="0"/>
        <pt x="1203" y="148" on="1"/>
        <pt x="1164" y="200" on="0"/>
        <pt x="1124" y="251" on="1"/>
        <pt x="1105" y="283" on="0"/>
        <pt x="1105" y="319" on="1"/>
        <pt x="1105" y="335" on="0"/>
        <pt x="1150" y="429" on="1"/>
        <pt x="1166" y="442" on="0"/>
        <pt x="1192" y="442" on="1"/>
        <pt x="1214" y="442" on="0"/>
        <pt x="1358" y="279" on="0"/>
        <pt x="1442" y="279" on="1"/>
        <pt x="1537" y="279" on="0"/>
        <pt x="1583" y="291" on="1"/>
        <pt x="1641" y="306" on="0"/>
        <pt x="1691" y="367" on="1"/>
        <pt x="1730" y="414" on="0"/>
        <pt x="1769" y="460" on="1"/>
        <pt x="1810" y="498" on="0"/>
        <pt x="1901" y="552" on="1"/>
        <pt x="2007" y="616" on="0"/>
        <pt x="2051" y="616" on="1"/>
        <pt x="2118" y="616" on="0"/>
        <pt x="2190" y="470" on="1"/>
        <pt x="2251" y="349" on="0"/>
      </contour>
      <contour>
        <pt x="2021" y="351" on="1"/>
        <pt x="2004" y="382" on="0"/>
        <pt x="1974" y="432" on="1"/>
        <pt x="1957" y="420" on="0"/>
        <pt x="1898" y="389" on="0"/>
        <pt x="1894" y="386" on="1"/>
        <pt x="1916" y="374" on="0"/>
        <pt x="1955" y="351" on="1"/>
      </contour>
    </TTGlyph>
    <TTGlyph name="endash" xMin="218" yMin="-346" xMax="1242" yMax="1476">
      <contour>
        <pt x="1242" y="1440" on="1"/>
        <pt x="1242" y="1384" on="0"/>
        <pt x="1208" y="1357" on="1"/>
        <pt x="1188" y="1339" on="0"/>
        <pt x="1035" y="1204" on="1"/>
        <pt x="926" y="1108" on="0"/>
        <pt x="915" y="1108" on="1"/>
        <pt x="878" y="1108" on="1"/>
        <pt x="878" y="1112" on="0"/>
        <pt x="869" y="1140" on="0"/>
        <pt x="869" y="1153" on="1"/>
        <pt x="869" y="1207" on="0"/>
        <pt x="1007" y="1313" on="1"/>
        <pt x="1169" y="1439" on="0"/>
        <pt x="1194" y="1476" on="1"/>
        <pt x="1233" y="1476" on="1"/>
        <pt x="1242" y="1463" on="0"/>
      </contour>
      <contour>
        <pt x="561" y="591" on="1"/>
        <pt x="561" y="555" on="0"/>
        <pt x="512" y="483" on="0"/>
        <pt x="494" y="483" on="1"/>
        <pt x="470" y="483" on="0"/>
        <pt x="411" y="551" on="0"/>
        <pt x="411" y="580" on="1"/>
        <pt x="411" y="598" on="0"/>
        <pt x="432" y="645" on="1"/>
        <pt x="455" y="698" on="0"/>
        <pt x="476" y="698" on="1"/>
        <pt x="496" y="698" on="0"/>
        <pt x="561" y="613" on="0"/>
      </contour>
      <contour>
        <pt x="1234" y="315" on="1"/>
        <pt x="1234" y="267" on="0"/>
        <pt x="1213" y="211" on="1"/>
        <pt x="1187" y="145" on="0"/>
        <pt x="1152" y="145" on="1"/>
        <pt x="1122" y="145" on="0"/>
        <pt x="1056" y="179" on="1"/>
        <pt x="987" y="215" on="0"/>
        <pt x="968" y="218" on="1"/>
        <pt x="945" y="161" on="0"/>
        <pt x="890" y="125" on="1"/>
        <pt x="852" y="101" on="0"/>
        <pt x="813" y="76" on="1"/>
        <pt x="808" y="36" on="0"/>
        <pt x="809" y="18" on="1"/>
        <pt x="810" y="9" on="0"/>
        <pt x="810" y="1" on="1"/>
        <pt x="810" y="-115" on="0"/>
        <pt x="711" y="-225" on="1"/>
        <pt x="620" y="-326" on="0"/>
        <pt x="543" y="-329" on="1"/>
        <pt x="538" y="-330" on="0"/>
        <pt x="507" y="-346" on="0"/>
        <pt x="496" y="-346" on="1"/>
        <pt x="437" y="-346" on="1"/>
        <pt x="375" y="-346" on="0"/>
        <pt x="303" y="-279" on="1"/>
        <pt x="218" y="-199" on="0"/>
        <pt x="218" y="-85" on="1"/>
        <pt x="218" y="-17" on="0"/>
        <pt x="251" y="86" on="1"/>
        <pt x="287" y="201" on="0"/>
        <pt x="335" y="257" on="1"/>
        <pt x="361" y="257" on="1"/>
        <pt x="361" y="200" on="1"/>
        <pt x="361" y="188" on="0"/>
        <pt x="304" y="34" on="0"/>
        <pt x="304" y="22" on="1"/>
        <pt x="304" y="-59" on="0"/>
        <pt x="379" y="-121" on="1"/>
        <pt x="442" y="-172" on="0"/>
        <pt x="494" y="-172" on="1"/>
        <pt x="540" y="-172" on="0"/>
        <pt x="626" y="-131" on="1"/>
        <pt x="740" y="-76" on="0"/>
        <pt x="740" y="2" on="1"/>
        <pt x="740" y="63" on="0"/>
        <pt x="710" y="148" on="1"/>
        <pt x="691" y="200" on="0"/>
        <pt x="671" y="251" on="1"/>
        <pt x="661" y="283" on="0"/>
        <pt x="661" y="319" on="1"/>
        <pt x="661" y="335" on="0"/>
        <pt x="684" y="429" on="1"/>
        <pt x="692" y="442" on="0"/>
        <pt x="705" y="442" on="1"/>
        <pt x="716" y="442" on="0"/>
        <pt x="788" y="279" on="0"/>
        <pt x="830" y="279" on="1"/>
        <pt x="878" y="279" on="0"/>
        <pt x="901" y="291" on="1"/>
        <pt x="929" y="306" on="0"/>
        <pt x="955" y="367" on="1"/>
        <pt x="974" y="414" on="0"/>
        <pt x="994" y="460" on="1"/>
        <pt x="1014" y="498" on="0"/>
        <pt x="1059" y="552" on="1"/>
        <pt x="1113" y="616" on="0"/>
        <pt x="1134" y="616" on="1"/>
        <pt x="1168" y="616" on="0"/>
        <pt x="1204" y="470" on="1"/>
        <pt x="1234" y="349" on="0"/>
      </contour>
      <contour>
        <pt x="1120" y="351" on="1"/>
        <pt x="1111" y="382" on="0"/>
        <pt x="1096" y="432" on="1"/>
        <pt x="1087" y="420" on="0"/>
        <pt x="1058" y="389" on="0"/>
        <pt x="1056" y="386" on="1"/>
        <pt x="1067" y="374" on="0"/>
        <pt x="1087" y="351" on="1"/>
      </contour>
    </TTGlyph>
    <TTGlyph name="equal" xMin="142" yMin="226" xMax="842" yMax="1588">
      <contour>
        <pt x="142" y="226" on="1"/>
        <pt x="142" y="1588" on="1"/>
        <pt x="842" y="1588" on="1"/>
        <pt x="842" y="226" on="1"/>
      </contour>
      <contour>
        <pt x="284" y="368" on="1"/>
        <pt x="700" y="368" on="1"/>
        <pt x="700" y="1447" on="1"/>
        <pt x="284" y="1447" on="1"/>
      </contour>
    </TTGlyph>
    <TTGlyph name="exclam" xMin="142" yMin="226" xMax="842" yMax="1588">
      <contour>
        <pt x="142" y="226" on="1"/>
        <pt x="142" y="1588" on="1"/>
        <pt x="842" y="1588" on="1"/>
        <pt x="842" y="226" on="1"/>
      </contour>
      <contour>
        <pt x="284" y="368" on="1"/>
        <pt x="700" y="368" on="1"/>
        <pt x="700" y="1447" on="1"/>
        <pt x="284" y="1447" on="1"/>
      </contour>
    </TTGlyph>
    <TTGlyph name="figuredash" xMin="218" yMin="-346" xMax="1682" yMax="1476">
      <contour>
        <pt x="1682" y="1440" on="1"/>
        <pt x="1682" y="1384" on="0"/>
        <pt x="1634" y="1357" on="1"/>
        <pt x="1605" y="1339" on="0"/>
        <pt x="1386" y="1204" on="1"/>
        <pt x="1230" y="1108" on="0"/>
        <pt x="1215" y="1108" on="1"/>
        <pt x="1161" y="1108" on="1"/>
        <pt x="1161" y="1112" on="0"/>
        <pt x="1149" y="1140" on="0"/>
        <pt x="1149" y="1153" on="1"/>
        <pt x="1149" y="1207" on="0"/>
        <pt x="1346" y="1313" on="1"/>
        <pt x="1578" y="1439" on="0"/>
        <pt x="1613" y="1476" on="1"/>
        <pt x="1669" y="1476" on="1"/>
        <pt x="1682" y="1463" on="0"/>
      </contour>
      <contour>
        <pt x="709" y="591" on="1"/>
        <pt x="709" y="555" on="0"/>
        <pt x="639" y="483" on="0"/>
        <pt x="612" y="483" on="1"/>
        <pt x="578" y="483" on="0"/>
        <pt x="494" y="551" on="0"/>
        <pt x="494" y="580" on="1"/>
        <pt x="494" y="598" on="0"/>
        <pt x="524" y="645" on="1"/>
        <pt x="557" y="698" on="0"/>
        <pt x="587" y="698" on="1"/>
        <pt x="615" y="698" on="0"/>
        <pt x="709" y="613" on="0"/>
      </contour>
      <contour>
        <pt x="1671" y="315" on="1"/>
        <pt x="1671" y="267" on="0"/>
        <pt x="1641" y="211" on="1"/>
        <pt x="1604" y="145" on="0"/>
        <pt x="1554" y="145" on="1"/>
        <pt x="1511" y="145" on="0"/>
        <pt x="1416" y="179" on="1"/>
        <pt x="1317" y="215" on="0"/>
        <pt x="1290" y="218" on="1"/>
        <pt x="1258" y="161" on="0"/>
        <pt x="1179" y="125" on="1"/>
        <pt x="1124" y="101" on="0"/>
        <pt x="1069" y="76" on="1"/>
        <pt x="1062" y="36" on="0"/>
        <pt x="1063" y="18" on="1"/>
        <pt x="1064" y="9" on="0"/>
        <pt x="1064" y="1" on="1"/>
        <pt x="1064" y="-115" on="0"/>
        <pt x="923" y="-225" on="1"/>
        <pt x="793" y="-326" on="0"/>
        <pt x="683" y="-329" on="1"/>
        <pt x="676" y="-330" on="0"/>
        <pt x="631" y="-346" on="0"/>
        <pt x="615" y="-346" on="1"/>
        <pt x="531" y="-346" on="1"/>
        <pt x="442" y="-346" on="0"/>
        <pt x="340" y="-279" on="1"/>
        <pt x="218" y="-199" on="0"/>
        <pt x="218" y="-85" on="1"/>
        <pt x="218" y="-17" on="0"/>
        <pt x="265" y="86" on="1"/>
        <pt x="316" y="201" on="0"/>
        <pt x="385" y="257" on="1"/>
        <pt x="422" y="257" on="1"/>
        <pt x="422" y="200" on="1"/>
        <pt x="422" y="188" on="0"/>
        <pt x="341" y="34" on="0"/>
        <pt x="341" y="22" on="1"/>
        <pt x="341" y="-59" on="0"/>
        <pt x="448" y="-121" on="1"/>
        <pt x="538" y="-172" on="0"/>
        <pt x="612" y="-172" on="1"/>
        <pt x="679" y="-172" on="0"/>
        <pt x="801" y="-131" on="1"/>
        <pt x="965" y="-76" on="0"/>
        <pt x="965" y="2" on="1"/>
        <pt x="965" y="63" on="0"/>
        <pt x="922" y="148" on="1"/>
        <pt x="894" y="200" on="0"/>
        <pt x="866" y="251" on="1"/>
        <pt x="852" y="283" on="0"/>
        <pt x="852" y="319" on="1"/>
        <pt x="852" y="335" on="0"/>
        <pt x="884" y="429" on="1"/>
        <pt x="896" y="442" on="0"/>
        <pt x="914" y="442" on="1"/>
        <pt x="930" y="442" on="0"/>
        <pt x="1033" y="279" on="0"/>
        <pt x="1093" y="279" on="1"/>
        <pt x="1161" y="279" on="0"/>
        <pt x="1194" y="291" on="1"/>
        <pt x="1235" y="306" on="0"/>
        <pt x="1271" y="367" on="1"/>
        <pt x="1299" y="414" on="0"/>
        <pt x="1327" y="460" on="1"/>
        <pt x="1356" y="498" on="0"/>
        <pt x="1421" y="552" on="1"/>
        <pt x="1497" y="616" on="0"/>
        <pt x="1528" y="616" on="1"/>
        <pt x="1576" y="616" on="0"/>
        <pt x="1628" y="470" on="1"/>
        <pt x="1671" y="349" on="0"/>
      </contour>
      <contour>
        <pt x="1507" y="351" on="1"/>
        <pt x="1495" y="382" on="0"/>
        <pt x="1473" y="432" on="1"/>
        <pt x="1461" y="420" on="0"/>
        <pt x="1419" y="389" on="0"/>
        <pt x="1416" y="386" on="1"/>
        <pt x="1432" y="374" on="0"/>
        <pt x="1460" y="351" on="1"/>
      </contour>
    </TTGlyph>
    <TTGlyph name="gaffinalarabic" xMin="142" yMin="226" xMax="842" yMax="1588">
      <contour>
        <pt x="142" y="226" on="1"/>
        <pt x="142" y="1588" on="1"/>
        <pt x="842" y="1588" on="1"/>
        <pt x="842" y="226" on="1"/>
      </contour>
      <contour>
        <pt x="284" y="368" on="1"/>
        <pt x="700" y="368" on="1"/>
        <pt x="700" y="1447" on="1"/>
        <pt x="284" y="1447" on="1"/>
      </contour>
    </TTGlyph>
    <TTGlyph name="gafinitialarabic" xMin="142" yMin="226" xMax="842" yMax="1588">
      <contour>
        <pt x="142" y="226" on="1"/>
        <pt x="142" y="1588" on="1"/>
        <pt x="842" y="1588" on="1"/>
        <pt x="842" y="226" on="1"/>
      </contour>
      <contour>
        <pt x="284" y="368" on="1"/>
        <pt x="700" y="368" on="1"/>
        <pt x="700" y="1447" on="1"/>
        <pt x="284" y="1447" on="1"/>
      </contour>
    </TTGlyph>
    <TTGlyph name="gafmedialarabic" xMin="142" yMin="226" xMax="842" yMax="1588">
      <contour>
        <pt x="142" y="226" on="1"/>
        <pt x="142" y="1588" on="1"/>
        <pt x="842" y="1588" on="1"/>
        <pt x="842" y="226" on="1"/>
      </contour>
      <contour>
        <pt x="284" y="368" on="1"/>
        <pt x="700" y="368" on="1"/>
        <pt x="700" y="1447" on="1"/>
        <pt x="284" y="1447" on="1"/>
      </contour>
    </TTGlyph>
    <TTGlyph name="glyph41" xMin="142" yMin="226" xMax="842" yMax="1588">
      <contour>
        <pt x="142" y="226" on="1"/>
        <pt x="142" y="1588" on="1"/>
        <pt x="842" y="1588" on="1"/>
        <pt x="842" y="226" on="1"/>
      </contour>
      <contour>
        <pt x="284" y="368" on="1"/>
        <pt x="700" y="368" on="1"/>
        <pt x="700" y="1447" on="1"/>
        <pt x="284" y="1447" on="1"/>
      </contour>
    </TTGlyph>
    <TTGlyph name="glyph42" xMin="142" yMin="226" xMax="842" yMax="1588">
      <contour>
        <pt x="142" y="226" on="1"/>
        <pt x="142" y="1588" on="1"/>
        <pt x="842" y="1588" on="1"/>
        <pt x="842" y="226" on="1"/>
      </contour>
      <contour>
        <pt x="284" y="368" on="1"/>
        <pt x="700" y="368" on="1"/>
        <pt x="700" y="1447" on="1"/>
        <pt x="284" y="1447" on="1"/>
      </contour>
    </TTGlyph>
    <TTGlyph name="glyph43" xMin="142" yMin="226" xMax="842" yMax="1588">
      <contour>
        <pt x="142" y="226" on="1"/>
        <pt x="142" y="1588" on="1"/>
        <pt x="842" y="1588" on="1"/>
        <pt x="842" y="226" on="1"/>
      </contour>
      <contour>
        <pt x="284" y="368" on="1"/>
        <pt x="700" y="368" on="1"/>
        <pt x="700" y="1447" on="1"/>
        <pt x="284" y="1447" on="1"/>
      </contour>
    </TTGlyph>
    <TTGlyph name="glyph44" xMin="142" yMin="226" xMax="842" yMax="1588">
      <contour>
        <pt x="142" y="226" on="1"/>
        <pt x="142" y="1588" on="1"/>
        <pt x="842" y="1588" on="1"/>
        <pt x="842" y="226" on="1"/>
      </contour>
      <contour>
        <pt x="284" y="368" on="1"/>
        <pt x="700" y="368" on="1"/>
        <pt x="700" y="1447" on="1"/>
        <pt x="284" y="1447" on="1"/>
      </contour>
    </TTGlyph>
    <TTGlyph name="glyph45" xMin="142" yMin="226" xMax="842" yMax="1588">
      <contour>
        <pt x="142" y="226" on="1"/>
        <pt x="142" y="1588" on="1"/>
        <pt x="842" y="1588" on="1"/>
        <pt x="842" y="226" on="1"/>
      </contour>
      <contour>
        <pt x="284" y="368" on="1"/>
        <pt x="700" y="368" on="1"/>
        <pt x="700" y="1447" on="1"/>
        <pt x="284" y="1447" on="1"/>
      </contour>
    </TTGlyph>
    <TTGlyph name="glyph46" xMin="142" yMin="226" xMax="842" yMax="1588">
      <contour>
        <pt x="142" y="226" on="1"/>
        <pt x="142" y="1588" on="1"/>
        <pt x="842" y="1588" on="1"/>
        <pt x="842" y="226" on="1"/>
      </contour>
      <contour>
        <pt x="284" y="368" on="1"/>
        <pt x="700" y="368" on="1"/>
        <pt x="700" y="1447" on="1"/>
        <pt x="284" y="1447" on="1"/>
      </contour>
    </TTGlyph>
    <TTGlyph name="glyph47" xMin="142" yMin="226" xMax="842" yMax="1588">
      <contour>
        <pt x="142" y="226" on="1"/>
        <pt x="142" y="1588" on="1"/>
        <pt x="842" y="1588" on="1"/>
        <pt x="842" y="226" on="1"/>
      </contour>
      <contour>
        <pt x="284" y="368" on="1"/>
        <pt x="700" y="368" on="1"/>
        <pt x="700" y="1447" on="1"/>
        <pt x="284" y="1447" on="1"/>
      </contour>
    </TTGlyph>
    <TTGlyph name="glyph48" xMin="142" yMin="226" xMax="842" yMax="1588">
      <contour>
        <pt x="142" y="226" on="1"/>
        <pt x="142" y="1588" on="1"/>
        <pt x="842" y="1588" on="1"/>
        <pt x="842" y="226" on="1"/>
      </contour>
      <contour>
        <pt x="284" y="368" on="1"/>
        <pt x="700" y="368" on="1"/>
        <pt x="700" y="1447" on="1"/>
        <pt x="284" y="1447" on="1"/>
      </contour>
    </TTGlyph>
    <TTGlyph name="glyph50" xMin="142" yMin="226" xMax="842" yMax="1588">
      <contour>
        <pt x="142" y="226" on="1"/>
        <pt x="142" y="1588" on="1"/>
        <pt x="842" y="1588" on="1"/>
        <pt x="842" y="226" on="1"/>
      </contour>
      <contour>
        <pt x="284" y="368" on="1"/>
        <pt x="700" y="368" on="1"/>
        <pt x="700" y="1447" on="1"/>
        <pt x="284" y="1447" on="1"/>
      </contour>
    </TTGlyph>
    <TTGlyph name="glyph51" xMin="142" yMin="226" xMax="842" yMax="1588">
      <contour>
        <pt x="142" y="226" on="1"/>
        <pt x="142" y="1588" on="1"/>
        <pt x="842" y="1588" on="1"/>
        <pt x="842" y="226" on="1"/>
      </contour>
      <contour>
        <pt x="284" y="368" on="1"/>
        <pt x="700" y="368" on="1"/>
        <pt x="700" y="1447" on="1"/>
        <pt x="284" y="1447" on="1"/>
      </contour>
    </TTGlyph>
    <TTGlyph name="greater" xMin="142" yMin="226" xMax="842" yMax="1588">
      <contour>
        <pt x="142" y="226" on="1"/>
        <pt x="142" y="1588" on="1"/>
        <pt x="842" y="1588" on="1"/>
        <pt x="842" y="226" on="1"/>
      </contour>
      <contour>
        <pt x="284" y="368" on="1"/>
        <pt x="700" y="368" on="1"/>
        <pt x="700" y="1447" on="1"/>
        <pt x="284" y="1447" on="1"/>
      </contour>
    </TTGlyph>
    <TTGlyph name="hahhamzabovefinal" xMin="142" yMin="226" xMax="842" yMax="1588">
      <contour>
        <pt x="142" y="226" on="1"/>
        <pt x="142" y="1588" on="1"/>
        <pt x="842" y="1588" on="1"/>
        <pt x="842" y="226" on="1"/>
      </contour>
      <contour>
        <pt x="284" y="368" on="1"/>
        <pt x="700" y="368" on="1"/>
        <pt x="700" y="1447" on="1"/>
        <pt x="284" y="1447" on="1"/>
      </contour>
    </TTGlyph>
    <TTGlyph name="hahhamzaboveinitial" xMin="142" yMin="226" xMax="842" yMax="1588">
      <contour>
        <pt x="142" y="226" on="1"/>
        <pt x="142" y="1588" on="1"/>
        <pt x="842" y="1588" on="1"/>
        <pt x="842" y="226" on="1"/>
      </contour>
      <contour>
        <pt x="284" y="368" on="1"/>
        <pt x="700" y="368" on="1"/>
        <pt x="700" y="1447" on="1"/>
        <pt x="284" y="1447" on="1"/>
      </contour>
    </TTGlyph>
    <TTGlyph name="hahhamzabovemedial" xMin="142" yMin="226" xMax="842" yMax="1588">
      <contour>
        <pt x="142" y="226" on="1"/>
        <pt x="142" y="1588" on="1"/>
        <pt x="842" y="1588" on="1"/>
        <pt x="842" y="226" on="1"/>
      </contour>
      <contour>
        <pt x="284" y="368" on="1"/>
        <pt x="700" y="368" on="1"/>
        <pt x="700" y="1447" on="1"/>
        <pt x="284" y="1447" on="1"/>
      </contour>
    </TTGlyph>
    <TTGlyph name="hahthreedotsabovefinal" xMin="142" yMin="226" xMax="842" yMax="1588">
      <contour>
        <pt x="142" y="226" on="1"/>
        <pt x="142" y="1588" on="1"/>
        <pt x="842" y="1588" on="1"/>
        <pt x="842" y="226" on="1"/>
      </contour>
      <contour>
        <pt x="284" y="368" on="1"/>
        <pt x="700" y="368" on="1"/>
        <pt x="700" y="1447" on="1"/>
        <pt x="284" y="1447" on="1"/>
      </contour>
    </TTGlyph>
    <TTGlyph name="hahthreedotsaboveinitial" xMin="142" yMin="226" xMax="842" yMax="1588">
      <contour>
        <pt x="142" y="226" on="1"/>
        <pt x="142" y="1588" on="1"/>
        <pt x="842" y="1588" on="1"/>
        <pt x="842" y="226" on="1"/>
      </contour>
      <contour>
        <pt x="284" y="368" on="1"/>
        <pt x="700" y="368" on="1"/>
        <pt x="700" y="1447" on="1"/>
        <pt x="284" y="1447" on="1"/>
      </contour>
    </TTGlyph>
    <TTGlyph name="hahthreedotsabovemedial" xMin="142" yMin="226" xMax="842" yMax="1588">
      <contour>
        <pt x="142" y="226" on="1"/>
        <pt x="142" y="1588" on="1"/>
        <pt x="842" y="1588" on="1"/>
        <pt x="842" y="226" on="1"/>
      </contour>
      <contour>
        <pt x="284" y="368" on="1"/>
        <pt x="700" y="368" on="1"/>
        <pt x="700" y="1447" on="1"/>
        <pt x="284" y="1447" on="1"/>
      </contour>
    </TTGlyph>
    <TTGlyph name="hehdoachashmeefinalarabic" xMin="142" yMin="226" xMax="842" yMax="1588">
      <contour>
        <pt x="142" y="226" on="1"/>
        <pt x="142" y="1588" on="1"/>
        <pt x="842" y="1588" on="1"/>
        <pt x="842" y="226" on="1"/>
      </contour>
      <contour>
        <pt x="284" y="368" on="1"/>
        <pt x="700" y="368" on="1"/>
        <pt x="700" y="1447" on="1"/>
        <pt x="284" y="1447" on="1"/>
      </contour>
    </TTGlyph>
    <TTGlyph name="hehdoachashmeeinitialarabic" xMin="142" yMin="226" xMax="842" yMax="1588">
      <contour>
        <pt x="142" y="226" on="1"/>
        <pt x="142" y="1588" on="1"/>
        <pt x="842" y="1588" on="1"/>
        <pt x="842" y="226" on="1"/>
      </contour>
      <contour>
        <pt x="284" y="368" on="1"/>
        <pt x="700" y="368" on="1"/>
        <pt x="700" y="1447" on="1"/>
        <pt x="284" y="1447" on="1"/>
      </contour>
    </TTGlyph>
    <TTGlyph name="hehdoachashmeemedialarabic" xMin="142" yMin="226" xMax="842" yMax="1588">
      <contour>
        <pt x="142" y="226" on="1"/>
        <pt x="142" y="1588" on="1"/>
        <pt x="842" y="1588" on="1"/>
        <pt x="842" y="226" on="1"/>
      </contour>
      <contour>
        <pt x="284" y="368" on="1"/>
        <pt x="700" y="368" on="1"/>
        <pt x="700" y="1447" on="1"/>
        <pt x="284" y="1447" on="1"/>
      </contour>
    </TTGlyph>
    <TTGlyph name="hehfinalaltonearabic" xMin="142" yMin="226" xMax="842" yMax="1588">
      <contour>
        <pt x="142" y="226" on="1"/>
        <pt x="142" y="1588" on="1"/>
        <pt x="842" y="1588" on="1"/>
        <pt x="842" y="226" on="1"/>
      </contour>
      <contour>
        <pt x="284" y="368" on="1"/>
        <pt x="700" y="368" on="1"/>
        <pt x="700" y="1447" on="1"/>
        <pt x="284" y="1447" on="1"/>
      </contour>
    </TTGlyph>
    <TTGlyph name="hehhamzaabovefinalarabic" xMin="142" yMin="226" xMax="842" yMax="1588">
      <contour>
        <pt x="142" y="226" on="1"/>
        <pt x="142" y="1588" on="1"/>
        <pt x="842" y="1588" on="1"/>
        <pt x="842" y="226" on="1"/>
      </contour>
      <contour>
        <pt x="284" y="368" on="1"/>
        <pt x="700" y="368" on="1"/>
        <pt x="700" y="1447" on="1"/>
        <pt x="284" y="1447" on="1"/>
      </contour>
    </TTGlyph>
    <TTGlyph name="hehinitialaltonearabic" xMin="142" yMin="226" xMax="842" yMax="1588">
      <contour>
        <pt x="142" y="226" on="1"/>
        <pt x="142" y="1588" on="1"/>
        <pt x="842" y="1588" on="1"/>
        <pt x="842" y="226" on="1"/>
      </contour>
      <contour>
        <pt x="284" y="368" on="1"/>
        <pt x="700" y="368" on="1"/>
        <pt x="700" y="1447" on="1"/>
        <pt x="284" y="1447" on="1"/>
      </contour>
    </TTGlyph>
    <TTGlyph name="hehmedialaltonearabic" xMin="142" yMin="226" xMax="842" yMax="1588">
      <contour>
        <pt x="142" y="226" on="1"/>
        <pt x="142" y="1588" on="1"/>
        <pt x="842" y="1588" on="1"/>
        <pt x="842" y="226" on="1"/>
      </contour>
      <contour>
        <pt x="284" y="368" on="1"/>
        <pt x="700" y="368" on="1"/>
        <pt x="700" y="1447" on="1"/>
        <pt x="284" y="1447" on="1"/>
      </contour>
    </TTGlyph>
    <TTGlyph name="hyphen" xMin="218" yMin="-346" xMax="1682" yMax="1476">
      <contour>
        <pt x="1682" y="1440" on="1"/>
        <pt x="1682" y="1384" on="0"/>
        <pt x="1634" y="1357" on="1"/>
        <pt x="1605" y="1339" on="0"/>
        <pt x="1386" y="1204" on="1"/>
        <pt x="1230" y="1108" on="0"/>
        <pt x="1215" y="1108" on="1"/>
        <pt x="1161" y="1108" on="1"/>
        <pt x="1161" y="1112" on="0"/>
        <pt x="1149" y="1140" on="0"/>
        <pt x="1149" y="1153" on="1"/>
        <pt x="1149" y="1207" on="0"/>
        <pt x="1346" y="1313" on="1"/>
        <pt x="1578" y="1439" on="0"/>
        <pt x="1613" y="1476" on="1"/>
        <pt x="1669" y="1476" on="1"/>
        <pt x="1682" y="1463" on="0"/>
      </contour>
      <contour>
        <pt x="709" y="591" on="1"/>
        <pt x="709" y="555" on="0"/>
        <pt x="639" y="483" on="0"/>
        <pt x="612" y="483" on="1"/>
        <pt x="578" y="483" on="0"/>
        <pt x="494" y="551" on="0"/>
        <pt x="494" y="580" on="1"/>
        <pt x="494" y="598" on="0"/>
        <pt x="524" y="645" on="1"/>
        <pt x="557" y="698" on="0"/>
        <pt x="587" y="698" on="1"/>
        <pt x="615" y="698" on="0"/>
        <pt x="709" y="613" on="0"/>
      </contour>
      <contour>
        <pt x="1671" y="315" on="1"/>
        <pt x="1671" y="267" on="0"/>
        <pt x="1641" y="211" on="1"/>
        <pt x="1604" y="145" on="0"/>
        <pt x="1554" y="145" on="1"/>
        <pt x="1511" y="145" on="0"/>
        <pt x="1416" y="179" on="1"/>
        <pt x="1317" y="215" on="0"/>
        <pt x="1290" y="218" on="1"/>
        <pt x="1258" y="161" on="0"/>
        <pt x="1179" y="125" on="1"/>
        <pt x="1124" y="101" on="0"/>
        <pt x="1069" y="76" on="1"/>
        <pt x="1062" y="36" on="0"/>
        <pt x="1063" y="18" on="1"/>
        <pt x="1064" y="9" on="0"/>
        <pt x="1064" y="1" on="1"/>
        <pt x="1064" y="-115" on="0"/>
        <pt x="923" y="-225" on="1"/>
        <pt x="793" y="-326" on="0"/>
        <pt x="683" y="-329" on="1"/>
        <pt x="676" y="-330" on="0"/>
        <pt x="631" y="-346" on="0"/>
        <pt x="615" y="-346" on="1"/>
        <pt x="531" y="-346" on="1"/>
        <pt x="442" y="-346" on="0"/>
        <pt x="340" y="-279" on="1"/>
        <pt x="218" y="-199" on="0"/>
        <pt x="218" y="-85" on="1"/>
        <pt x="218" y="-17" on="0"/>
        <pt x="265" y="86" on="1"/>
        <pt x="316" y="201" on="0"/>
        <pt x="385" y="257" on="1"/>
        <pt x="422" y="257" on="1"/>
        <pt x="422" y="200" on="1"/>
        <pt x="422" y="188" on="0"/>
        <pt x="341" y="34" on="0"/>
        <pt x="341" y="22" on="1"/>
        <pt x="341" y="-59" on="0"/>
        <pt x="448" y="-121" on="1"/>
        <pt x="538" y="-172" on="0"/>
        <pt x="612" y="-172" on="1"/>
        <pt x="679" y="-172" on="0"/>
        <pt x="801" y="-131" on="1"/>
        <pt x="965" y="-76" on="0"/>
        <pt x="965" y="2" on="1"/>
        <pt x="965" y="63" on="0"/>
        <pt x="922" y="148" on="1"/>
        <pt x="894" y="200" on="0"/>
        <pt x="866" y="251" on="1"/>
        <pt x="852" y="283" on="0"/>
        <pt x="852" y="319" on="1"/>
        <pt x="852" y="335" on="0"/>
        <pt x="884" y="429" on="1"/>
        <pt x="896" y="442" on="0"/>
        <pt x="914" y="442" on="1"/>
        <pt x="930" y="442" on="0"/>
        <pt x="1033" y="279" on="0"/>
        <pt x="1093" y="279" on="1"/>
        <pt x="1161" y="279" on="0"/>
        <pt x="1194" y="291" on="1"/>
        <pt x="1235" y="306" on="0"/>
        <pt x="1271" y="367" on="1"/>
        <pt x="1299" y="414" on="0"/>
        <pt x="1327" y="460" on="1"/>
        <pt x="1356" y="498" on="0"/>
        <pt x="1421" y="552" on="1"/>
        <pt x="1497" y="616" on="0"/>
        <pt x="1528" y="616" on="1"/>
        <pt x="1576" y="616" on="0"/>
        <pt x="1628" y="470" on="1"/>
        <pt x="1671" y="349" on="0"/>
      </contour>
      <contour>
        <pt x="1507" y="351" on="1"/>
        <pt x="1495" y="382" on="0"/>
        <pt x="1473" y="432" on="1"/>
        <pt x="1461" y="420" on="0"/>
        <pt x="1419" y="389" on="0"/>
        <pt x="1416" y="386" on="1"/>
        <pt x="1432" y="374" on="0"/>
        <pt x="1460" y="351" on="1"/>
      </contour>
    </TTGlyph>
    <TTGlyph name="irghizufinal" xMin="142" yMin="226" xMax="842" yMax="1588">
      <contour>
        <pt x="142" y="226" on="1"/>
        <pt x="142" y="1588" on="1"/>
        <pt x="842" y="1588" on="1"/>
        <pt x="842" y="226" on="1"/>
      </contour>
      <contour>
        <pt x="284" y="368" on="1"/>
        <pt x="700" y="368" on="1"/>
        <pt x="700" y="1447" on="1"/>
        <pt x="284" y="1447" on="1"/>
      </contour>
    </TTGlyph>
    <TTGlyph name="jehfinalarabic" xMin="142" yMin="226" xMax="842" yMax="1588">
      <contour>
        <pt x="142" y="226" on="1"/>
        <pt x="142" y="1588" on="1"/>
        <pt x="842" y="1588" on="1"/>
        <pt x="842" y="226" on="1"/>
      </contour>
      <contour>
        <pt x="284" y="368" on="1"/>
        <pt x="700" y="368" on="1"/>
        <pt x="700" y="1447" on="1"/>
        <pt x="284" y="1447" on="1"/>
      </contour>
    </TTGlyph>
    <TTGlyph name="kafringfinal" xMin="142" yMin="226" xMax="842" yMax="1588">
      <contour>
        <pt x="142" y="226" on="1"/>
        <pt x="142" y="1588" on="1"/>
        <pt x="842" y="1588" on="1"/>
        <pt x="842" y="226" on="1"/>
      </contour>
      <contour>
        <pt x="284" y="368" on="1"/>
        <pt x="700" y="368" on="1"/>
        <pt x="700" y="1447" on="1"/>
        <pt x="284" y="1447" on="1"/>
      </contour>
    </TTGlyph>
    <TTGlyph name="kafringinitial" xMin="142" yMin="226" xMax="842" yMax="1588">
      <contour>
        <pt x="142" y="226" on="1"/>
        <pt x="142" y="1588" on="1"/>
        <pt x="842" y="1588" on="1"/>
        <pt x="842" y="226" on="1"/>
      </contour>
      <contour>
        <pt x="284" y="368" on="1"/>
        <pt x="700" y="368" on="1"/>
        <pt x="700" y="1447" on="1"/>
        <pt x="284" y="1447" on="1"/>
      </contour>
    </TTGlyph>
    <TTGlyph name="kafringmedial" xMin="142" yMin="226" xMax="842" yMax="1588">
      <contour>
        <pt x="142" y="226" on="1"/>
        <pt x="142" y="1588" on="1"/>
        <pt x="842" y="1588" on="1"/>
        <pt x="842" y="226" on="1"/>
      </contour>
      <contour>
        <pt x="284" y="368" on="1"/>
        <pt x="700" y="368" on="1"/>
        <pt x="700" y="1447" on="1"/>
        <pt x="284" y="1447" on="1"/>
      </contour>
    </TTGlyph>
    <TTGlyph name="kashidaautoarabic" xMin="142" yMin="226" xMax="842" yMax="1588">
      <contour>
        <pt x="142" y="226" on="1"/>
        <pt x="142" y="1588" on="1"/>
        <pt x="842" y="1588" on="1"/>
        <pt x="842" y="226" on="1"/>
      </contour>
      <contour>
        <pt x="284" y="368" on="1"/>
        <pt x="700" y="368" on="1"/>
        <pt x="700" y="1447" on="1"/>
        <pt x="284" y="1447" on="1"/>
      </contour>
    </TTGlyph>
    <TTGlyph name="kashidaautonosidebearingarabic" xMin="142" yMin="226" xMax="842" yMax="1588">
      <contour>
        <pt x="142" y="226" on="1"/>
        <pt x="142" y="1588" on="1"/>
        <pt x="842" y="1588" on="1"/>
        <pt x="842" y="226" on="1"/>
      </contour>
      <contour>
        <pt x="284" y="368" on="1"/>
        <pt x="700" y="368" on="1"/>
        <pt x="700" y="1447" on="1"/>
        <pt x="284" y="1447" on="1"/>
      </contour>
    </TTGlyph>
    <TTGlyph name="kehehfinalarabic" xMin="142" yMin="226" xMax="842" yMax="1588">
      <contour>
        <pt x="142" y="226" on="1"/>
        <pt x="142" y="1588" on="1"/>
        <pt x="842" y="1588" on="1"/>
        <pt x="842" y="226" on="1"/>
      </contour>
      <contour>
        <pt x="284" y="368" on="1"/>
        <pt x="700" y="368" on="1"/>
        <pt x="700" y="1447" on="1"/>
        <pt x="284" y="1447" on="1"/>
      </contour>
    </TTGlyph>
    <TTGlyph name="kehehinitialarabic" xMin="142" yMin="226" xMax="842" yMax="1588">
      <contour>
        <pt x="142" y="226" on="1"/>
        <pt x="142" y="1588" on="1"/>
        <pt x="842" y="1588" on="1"/>
        <pt x="842" y="226" on="1"/>
      </contour>
      <contour>
        <pt x="284" y="368" on="1"/>
        <pt x="700" y="368" on="1"/>
        <pt x="700" y="1447" on="1"/>
        <pt x="284" y="1447" on="1"/>
      </contour>
    </TTGlyph>
    <TTGlyph name="kehehmedialarabic" xMin="142" yMin="226" xMax="842" yMax="1588">
      <contour>
        <pt x="142" y="226" on="1"/>
        <pt x="142" y="1588" on="1"/>
        <pt x="842" y="1588" on="1"/>
        <pt x="842" y="226" on="1"/>
      </contour>
      <contour>
        <pt x="284" y="368" on="1"/>
        <pt x="700" y="368" on="1"/>
        <pt x="700" y="1447" on="1"/>
        <pt x="284" y="1447" on="1"/>
      </contour>
    </TTGlyph>
    <TTGlyph name="kirghizyifinal" xMin="142" yMin="226" xMax="842" yMax="1588">
      <contour>
        <pt x="142" y="226" on="1"/>
        <pt x="142" y="1588" on="1"/>
        <pt x="842" y="1588" on="1"/>
        <pt x="842" y="226" on="1"/>
      </contour>
      <contour>
        <pt x="284" y="368" on="1"/>
        <pt x="700" y="368" on="1"/>
        <pt x="700" y="1447" on="1"/>
        <pt x="284" y="1447" on="1"/>
      </contour>
    </TTGlyph>
    <TTGlyph name="lammeemjeeminitialarabic" xMin="142" yMin="226" xMax="842" yMax="1588">
      <contour>
        <pt x="142" y="226" on="1"/>
        <pt x="142" y="1588" on="1"/>
        <pt x="842" y="1588" on="1"/>
        <pt x="842" y="226" on="1"/>
      </contour>
      <contour>
        <pt x="284" y="368" on="1"/>
        <pt x="700" y="368" on="1"/>
        <pt x="700" y="1447" on="1"/>
        <pt x="284" y="1447" on="1"/>
      </contour>
    </TTGlyph>
    <TTGlyph name="lammeemkhahinitialarabic" xMin="142" yMin="226" xMax="842" yMax="1588">
      <contour>
        <pt x="142" y="226" on="1"/>
        <pt x="142" y="1588" on="1"/>
        <pt x="842" y="1588" on="1"/>
        <pt x="842" y="226" on="1"/>
      </contour>
      <contour>
        <pt x="284" y="368" on="1"/>
        <pt x="700" y="368" on="1"/>
        <pt x="700" y="1447" on="1"/>
        <pt x="284" y="1447" on="1"/>
      </contour>
    </TTGlyph>
    <TTGlyph name="lamthreedotsabovefinal" xMin="142" yMin="226" xMax="842" yMax="1588">
      <contour>
        <pt x="142" y="226" on="1"/>
        <pt x="142" y="1588" on="1"/>
        <pt x="842" y="1588" on="1"/>
        <pt x="842" y="226" on="1"/>
      </contour>
      <contour>
        <pt x="284" y="368" on="1"/>
        <pt x="700" y="368" on="1"/>
        <pt x="700" y="1447" on="1"/>
        <pt x="284" y="1447" on="1"/>
      </contour>
    </TTGlyph>
    <TTGlyph name="lamthreedotsaboveinitial" xMin="142" yMin="226" xMax="842" yMax="1588">
      <contour>
        <pt x="142" y="226" on="1"/>
        <pt x="142" y="1588" on="1"/>
        <pt x="842" y="1588" on="1"/>
        <pt x="842" y="226" on="1"/>
      </contour>
      <contour>
        <pt x="284" y="368" on="1"/>
        <pt x="700" y="368" on="1"/>
        <pt x="700" y="1447" on="1"/>
        <pt x="284" y="1447" on="1"/>
      </contour>
    </TTGlyph>
    <TTGlyph name="lamthreedotsabovemedial" xMin="142" yMin="226" xMax="842" yMax="1588">
      <contour>
        <pt x="142" y="226" on="1"/>
        <pt x="142" y="1588" on="1"/>
        <pt x="842" y="1588" on="1"/>
        <pt x="842" y="226" on="1"/>
      </contour>
      <contour>
        <pt x="284" y="368" on="1"/>
        <pt x="700" y="368" on="1"/>
        <pt x="700" y="1447" on="1"/>
        <pt x="284" y="1447" on="1"/>
      </contour>
    </TTGlyph>
    <TTGlyph name="less" xMin="142" yMin="226" xMax="842" yMax="1588">
      <contour>
        <pt x="142" y="226" on="1"/>
        <pt x="142" y="1588" on="1"/>
        <pt x="842" y="1588" on="1"/>
        <pt x="842" y="226" on="1"/>
      </contour>
      <contour>
        <pt x="284" y="368" on="1"/>
        <pt x="700" y="368" on="1"/>
        <pt x="700" y="1447" on="1"/>
        <pt x="284" y="1447" on="1"/>
      </contour>
    </TTGlyph>
    <TTGlyph name="meemmeemisolatedarabic" xMin="142" yMin="226" xMax="842" yMax="1588">
      <contour>
        <pt x="142" y="226" on="1"/>
        <pt x="142" y="1588" on="1"/>
        <pt x="842" y="1588" on="1"/>
        <pt x="842" y="226" on="1"/>
      </contour>
      <contour>
        <pt x="284" y="368" on="1"/>
        <pt x="700" y="368" on="1"/>
        <pt x="700" y="1447" on="1"/>
        <pt x="284" y="1447" on="1"/>
      </contour>
    </TTGlyph>
    <TTGlyph name="multiply" xMin="142" yMin="226" xMax="842" yMax="1588">
      <contour>
        <pt x="142" y="226" on="1"/>
        <pt x="142" y="1588" on="1"/>
        <pt x="842" y="1588" on="1"/>
        <pt x="842" y="226" on="1"/>
      </contour>
      <contour>
        <pt x="284" y="368" on="1"/>
        <pt x="700" y="368" on="1"/>
        <pt x="700" y="1447" on="1"/>
        <pt x="284" y="1447" on="1"/>
      </contour>
    </TTGlyph>
    <TTGlyph name="noonghunnafinalarabic" xMin="142" yMin="226" xMax="842" yMax="1588">
      <contour>
        <pt x="142" y="226" on="1"/>
        <pt x="142" y="1588" on="1"/>
        <pt x="842" y="1588" on="1"/>
        <pt x="842" y="226" on="1"/>
      </contour>
      <contour>
        <pt x="284" y="368" on="1"/>
        <pt x="700" y="368" on="1"/>
        <pt x="700" y="1447" on="1"/>
        <pt x="284" y="1447" on="1"/>
      </contour>
    </TTGlyph>
    <TTGlyph name="noonjeemisolatedarabic" xMin="142" yMin="226" xMax="842" yMax="1588">
      <contour>
        <pt x="142" y="226" on="1"/>
        <pt x="142" y="1588" on="1"/>
        <pt x="842" y="1588" on="1"/>
        <pt x="842" y="226" on="1"/>
      </contour>
      <contour>
        <pt x="284" y="368" on="1"/>
        <pt x="700" y="368" on="1"/>
        <pt x="700" y="1447" on="1"/>
        <pt x="284" y="1447" on="1"/>
      </contour>
    </TTGlyph>
    <TTGlyph name="noonmeemisolatedarabic" xMin="142" yMin="226" xMax="842" yMax="1588">
      <contour>
        <pt x="142" y="226" on="1"/>
        <pt x="142" y="1588" on="1"/>
        <pt x="842" y="1588" on="1"/>
        <pt x="842" y="226" on="1"/>
      </contour>
      <contour>
        <pt x="284" y="368" on="1"/>
        <pt x="700" y="368" on="1"/>
        <pt x="700" y="1447" on="1"/>
        <pt x="284" y="1447" on="1"/>
      </contour>
    </TTGlyph>
    <TTGlyph name="noonringfinal" xMin="142" yMin="226" xMax="842" yMax="1588">
      <contour>
        <pt x="142" y="226" on="1"/>
        <pt x="142" y="1588" on="1"/>
        <pt x="842" y="1588" on="1"/>
        <pt x="842" y="226" on="1"/>
      </contour>
      <contour>
        <pt x="284" y="368" on="1"/>
        <pt x="700" y="368" on="1"/>
        <pt x="700" y="1447" on="1"/>
        <pt x="284" y="1447" on="1"/>
      </contour>
    </TTGlyph>
    <TTGlyph name="noonringinitial" xMin="142" yMin="226" xMax="842" yMax="1588">
      <contour>
        <pt x="142" y="226" on="1"/>
        <pt x="142" y="1588" on="1"/>
        <pt x="842" y="1588" on="1"/>
        <pt x="842" y="226" on="1"/>
      </contour>
      <contour>
        <pt x="284" y="368" on="1"/>
        <pt x="700" y="368" on="1"/>
        <pt x="700" y="1447" on="1"/>
        <pt x="284" y="1447" on="1"/>
      </contour>
    </TTGlyph>
    <TTGlyph name="noonringmedial" xMin="142" yMin="226" xMax="842" yMax="1588">
      <contour>
        <pt x="142" y="226" on="1"/>
        <pt x="142" y="1588" on="1"/>
        <pt x="842" y="1588" on="1"/>
        <pt x="842" y="226" on="1"/>
      </contour>
      <contour>
        <pt x="284" y="368" on="1"/>
        <pt x="700" y="368" on="1"/>
        <pt x="700" y="1447" on="1"/>
        <pt x="284" y="1447" on="1"/>
      </contour>
    </TTGlyph>
    <TTGlyph name="numbersign" xMin="142" yMin="226" xMax="842" yMax="1588">
      <contour>
        <pt x="142" y="226" on="1"/>
        <pt x="142" y="1588" on="1"/>
        <pt x="842" y="1588" on="1"/>
        <pt x="842" y="226" on="1"/>
      </contour>
      <contour>
        <pt x="284" y="368" on="1"/>
        <pt x="700" y="368" on="1"/>
        <pt x="700" y="1447" on="1"/>
        <pt x="284" y="1447" on="1"/>
      </contour>
    </TTGlyph>
    <TTGlyph name="parenleft" xMin="142" yMin="226" xMax="842" yMax="1588">
      <contour>
        <pt x="142" y="226" on="1"/>
        <pt x="142" y="1588" on="1"/>
        <pt x="842" y="1588" on="1"/>
        <pt x="842" y="226" on="1"/>
      </contour>
      <contour>
        <pt x="284" y="368" on="1"/>
        <pt x="700" y="368" on="1"/>
        <pt x="700" y="1447" on="1"/>
        <pt x="284" y="1447" on="1"/>
      </contour>
    </TTGlyph>
    <TTGlyph name="parenright" xMin="142" yMin="226" xMax="842" yMax="1588">
      <contour>
        <pt x="142" y="226" on="1"/>
        <pt x="142" y="1588" on="1"/>
        <pt x="842" y="1588" on="1"/>
        <pt x="842" y="226" on="1"/>
      </contour>
      <contour>
        <pt x="284" y="368" on="1"/>
        <pt x="700" y="368" on="1"/>
        <pt x="700" y="1447" on="1"/>
        <pt x="284" y="1447" on="1"/>
      </contour>
    </TTGlyph>
    <TTGlyph name="pashtoefinal" xMin="142" yMin="226" xMax="842" yMax="1588">
      <contour>
        <pt x="142" y="226" on="1"/>
        <pt x="142" y="1588" on="1"/>
        <pt x="842" y="1588" on="1"/>
        <pt x="842" y="226" on="1"/>
      </contour>
      <contour>
        <pt x="284" y="368" on="1"/>
        <pt x="700" y="368" on="1"/>
        <pt x="700" y="1447" on="1"/>
        <pt x="284" y="1447" on="1"/>
      </contour>
    </TTGlyph>
    <TTGlyph name="pashtoeinitial" xMin="142" yMin="226" xMax="842" yMax="1588">
      <contour>
        <pt x="142" y="226" on="1"/>
        <pt x="142" y="1588" on="1"/>
        <pt x="842" y="1588" on="1"/>
        <pt x="842" y="226" on="1"/>
      </contour>
      <contour>
        <pt x="284" y="368" on="1"/>
        <pt x="700" y="368" on="1"/>
        <pt x="700" y="1447" on="1"/>
        <pt x="284" y="1447" on="1"/>
      </contour>
    </TTGlyph>
    <TTGlyph name="pashtoemedial" xMin="142" yMin="226" xMax="842" yMax="1588">
      <contour>
        <pt x="142" y="226" on="1"/>
        <pt x="142" y="1588" on="1"/>
        <pt x="842" y="1588" on="1"/>
        <pt x="842" y="226" on="1"/>
      </contour>
      <contour>
        <pt x="284" y="368" on="1"/>
        <pt x="700" y="368" on="1"/>
        <pt x="700" y="1447" on="1"/>
        <pt x="284" y="1447" on="1"/>
      </contour>
    </TTGlyph>
    <TTGlyph name="pehfinalarabic" xMin="142" yMin="226" xMax="842" yMax="1588">
      <contour>
        <pt x="142" y="226" on="1"/>
        <pt x="142" y="1588" on="1"/>
        <pt x="842" y="1588" on="1"/>
        <pt x="842" y="226" on="1"/>
      </contour>
      <contour>
        <pt x="284" y="368" on="1"/>
        <pt x="700" y="368" on="1"/>
        <pt x="700" y="1447" on="1"/>
        <pt x="284" y="1447" on="1"/>
      </contour>
    </TTGlyph>
    <TTGlyph name="pehinitialarabic" xMin="142" yMin="226" xMax="842" yMax="1588">
      <contour>
        <pt x="142" y="226" on="1"/>
        <pt x="142" y="1588" on="1"/>
        <pt x="842" y="1588" on="1"/>
        <pt x="842" y="226" on="1"/>
      </contour>
      <contour>
        <pt x="284" y="368" on="1"/>
        <pt x="700" y="368" on="1"/>
        <pt x="700" y="1447" on="1"/>
        <pt x="284" y="1447" on="1"/>
      </contour>
    </TTGlyph>
    <TTGlyph name="pehmedialarabic" xMin="142" yMin="226" xMax="842" yMax="1588">
      <contour>
        <pt x="142" y="226" on="1"/>
        <pt x="142" y="1588" on="1"/>
        <pt x="842" y="1588" on="1"/>
        <pt x="842" y="226" on="1"/>
      </contour>
      <contour>
        <pt x="284" y="368" on="1"/>
        <pt x="700" y="368" on="1"/>
        <pt x="700" y="1447" on="1"/>
        <pt x="284" y="1447" on="1"/>
      </contour>
    </TTGlyph>
    <TTGlyph name="percent" xMin="142" yMin="226" xMax="842" yMax="1588">
      <contour>
        <pt x="142" y="226" on="1"/>
        <pt x="142" y="1588" on="1"/>
        <pt x="842" y="1588" on="1"/>
        <pt x="842" y="226" on="1"/>
      </contour>
      <contour>
        <pt x="284" y="368" on="1"/>
        <pt x="700" y="368" on="1"/>
        <pt x="700" y="1447" on="1"/>
        <pt x="284" y="1447" on="1"/>
      </contour>
    </TTGlyph>
    <TTGlyph name="period" xMin="142" yMin="226" xMax="842" yMax="1588">
      <contour>
        <pt x="142" y="226" on="1"/>
        <pt x="142" y="1588" on="1"/>
        <pt x="842" y="1588" on="1"/>
        <pt x="842" y="226" on="1"/>
      </contour>
      <contour>
        <pt x="284" y="368" on="1"/>
        <pt x="700" y="368" on="1"/>
        <pt x="700" y="1447" on="1"/>
        <pt x="284" y="1447" on="1"/>
      </contour>
    </TTGlyph>
    <TTGlyph name="plus" xMin="142" yMin="226" xMax="842" yMax="1588">
      <contour>
        <pt x="142" y="226" on="1"/>
        <pt x="142" y="1588" on="1"/>
        <pt x="842" y="1588" on="1"/>
        <pt x="842" y="226" on="1"/>
      </contour>
      <contour>
        <pt x="284" y="368" on="1"/>
        <pt x="700" y="368" on="1"/>
        <pt x="700" y="1447" on="1"/>
        <pt x="284" y="1447" on="1"/>
      </contour>
    </TTGlyph>
    <TTGlyph name="quotedbl" xMin="142" yMin="226" xMax="842" yMax="1588">
      <contour>
        <pt x="142" y="226" on="1"/>
        <pt x="142" y="1588" on="1"/>
        <pt x="842" y="1588" on="1"/>
        <pt x="842" y="226" on="1"/>
      </contour>
      <contour>
        <pt x="284" y="368" on="1"/>
        <pt x="700" y="368" on="1"/>
        <pt x="700" y="1447" on="1"/>
        <pt x="284" y="1447" on="1"/>
      </contour>
    </TTGlyph>
    <TTGlyph name="quotesingle" xMin="142" yMin="226" xMax="842" yMax="1588">
      <contour>
        <pt x="142" y="226" on="1"/>
        <pt x="142" y="1588" on="1"/>
        <pt x="842" y="1588" on="1"/>
        <pt x="842" y="226" on="1"/>
      </contour>
      <contour>
        <pt x="284" y="368" on="1"/>
        <pt x="700" y="368" on="1"/>
        <pt x="700" y="1447" on="1"/>
        <pt x="284" y="1447" on="1"/>
      </contour>
    </TTGlyph>
    <TTGlyph name="rehdotbelowdotabovefinal" xMin="142" yMin="226" xMax="842" yMax="1588">
      <contour>
        <pt x="142" y="226" on="1"/>
        <pt x="142" y="1588" on="1"/>
        <pt x="842" y="1588" on="1"/>
        <pt x="842" y="226" on="1"/>
      </contour>
      <contour>
        <pt x="284" y="368" on="1"/>
        <pt x="700" y="368" on="1"/>
        <pt x="700" y="1447" on="1"/>
        <pt x="284" y="1447" on="1"/>
      </contour>
    </TTGlyph>
    <TTGlyph name="rehringfinal" xMin="142" yMin="226" xMax="842" yMax="1588">
      <contour>
        <pt x="142" y="226" on="1"/>
        <pt x="142" y="1588" on="1"/>
        <pt x="842" y="1588" on="1"/>
        <pt x="842" y="226" on="1"/>
      </contour>
      <contour>
        <pt x="284" y="368" on="1"/>
        <pt x="700" y="368" on="1"/>
        <pt x="700" y="1447" on="1"/>
        <pt x="284" y="1447" on="1"/>
      </contour>
    </TTGlyph>
    <TTGlyph name="rrehfinalarabic" xMin="142" yMin="226" xMax="842" yMax="1588">
      <contour>
        <pt x="142" y="226" on="1"/>
        <pt x="142" y="1588" on="1"/>
        <pt x="842" y="1588" on="1"/>
        <pt x="842" y="226" on="1"/>
      </contour>
      <contour>
        <pt x="284" y="368" on="1"/>
        <pt x="700" y="368" on="1"/>
        <pt x="700" y="1447" on="1"/>
        <pt x="284" y="1447" on="1"/>
      </contour>
    </TTGlyph>
    <TTGlyph name="seendotbelowdotabovefinal" xMin="142" yMin="226" xMax="842" yMax="1588">
      <contour>
        <pt x="142" y="226" on="1"/>
        <pt x="142" y="1588" on="1"/>
        <pt x="842" y="1588" on="1"/>
        <pt x="842" y="226" on="1"/>
      </contour>
      <contour>
        <pt x="284" y="368" on="1"/>
        <pt x="700" y="368" on="1"/>
        <pt x="700" y="1447" on="1"/>
        <pt x="284" y="1447" on="1"/>
      </contour>
    </TTGlyph>
    <TTGlyph name="seendotbelowdotaboveinitial" xMin="142" yMin="226" xMax="842" yMax="1588">
      <contour>
        <pt x="142" y="226" on="1"/>
        <pt x="142" y="1588" on="1"/>
        <pt x="842" y="1588" on="1"/>
        <pt x="842" y="226" on="1"/>
      </contour>
      <contour>
        <pt x="284" y="368" on="1"/>
        <pt x="700" y="368" on="1"/>
        <pt x="700" y="1447" on="1"/>
        <pt x="284" y="1447" on="1"/>
      </contour>
    </TTGlyph>
    <TTGlyph name="seendotbelowdotabovemedial" xMin="142" yMin="226" xMax="842" yMax="1588">
      <contour>
        <pt x="142" y="226" on="1"/>
        <pt x="142" y="1588" on="1"/>
        <pt x="842" y="1588" on="1"/>
        <pt x="842" y="226" on="1"/>
      </contour>
      <contour>
        <pt x="284" y="368" on="1"/>
        <pt x="700" y="368" on="1"/>
        <pt x="700" y="1447" on="1"/>
        <pt x="284" y="1447" on="1"/>
      </contour>
    </TTGlyph>
    <TTGlyph name="shaddadammaarabic" xMin="142" yMin="226" xMax="842" yMax="1588">
      <contour>
        <pt x="142" y="226" on="1"/>
        <pt x="142" y="1588" on="1"/>
        <pt x="842" y="1588" on="1"/>
        <pt x="842" y="226" on="1"/>
      </contour>
      <contour>
        <pt x="284" y="368" on="1"/>
        <pt x="700" y="368" on="1"/>
        <pt x="700" y="1447" on="1"/>
        <pt x="284" y="1447" on="1"/>
      </contour>
    </TTGlyph>
    <TTGlyph name="shaddadammatanarabic" xMin="142" yMin="226" xMax="842" yMax="1588">
      <contour>
        <pt x="142" y="226" on="1"/>
        <pt x="142" y="1588" on="1"/>
        <pt x="842" y="1588" on="1"/>
        <pt x="842" y="226" on="1"/>
      </contour>
      <contour>
        <pt x="284" y="368" on="1"/>
        <pt x="700" y="368" on="1"/>
        <pt x="700" y="1447" on="1"/>
        <pt x="284" y="1447" on="1"/>
      </contour>
    </TTGlyph>
    <TTGlyph name="shaddafathaarabic" xMin="142" yMin="226" xMax="842" yMax="1588">
      <contour>
        <pt x="142" y="226" on="1"/>
        <pt x="142" y="1588" on="1"/>
        <pt x="842" y="1588" on="1"/>
        <pt x="842" y="226" on="1"/>
      </contour>
      <contour>
        <pt x="284" y="368" on="1"/>
        <pt x="700" y="368" on="1"/>
        <pt x="700" y="1447" on="1"/>
        <pt x="284" y="1447" on="1"/>
      </contour>
    </TTGlyph>
    <TTGlyph name="shaddakasraarabic" xMin="142" yMin="226" xMax="842" yMax="1588">
      <contour>
        <pt x="142" y="226" on="1"/>
        <pt x="142" y="1588" on="1"/>
        <pt x="842" y="1588" on="1"/>
        <pt x="842" y="226" on="1"/>
      </contour>
      <contour>
        <pt x="284" y="368" on="1"/>
        <pt x="700" y="368" on="1"/>
        <pt x="700" y="1447" on="1"/>
        <pt x="284" y="1447" on="1"/>
      </contour>
    </TTGlyph>
    <TTGlyph name="shaddakasratanarabic" xMin="142" yMin="226" xMax="842" yMax="1588">
      <contour>
        <pt x="142" y="226" on="1"/>
        <pt x="142" y="1588" on="1"/>
        <pt x="842" y="1588" on="1"/>
        <pt x="842" y="226" on="1"/>
      </contour>
      <contour>
        <pt x="284" y="368" on="1"/>
        <pt x="700" y="368" on="1"/>
        <pt x="700" y="1447" on="1"/>
        <pt x="284" y="1447" on="1"/>
      </contour>
    </TTGlyph>
    <TTGlyph name="slash" xMin="142" yMin="226" xMax="842" yMax="1588">
      <contour>
        <pt x="142" y="226" on="1"/>
        <pt x="142" y="1588" on="1"/>
        <pt x="842" y="1588" on="1"/>
        <pt x="842" y="226" on="1"/>
      </contour>
      <contour>
        <pt x="284" y="368" on="1"/>
        <pt x="700" y="368" on="1"/>
        <pt x="700" y="1447" on="1"/>
        <pt x="284" y="1447" on="1"/>
      </contour>
    </TTGlyph>
    <TTGlyph name="space" xMin="142" yMin="226" xMax="842" yMax="1588">
      <contour>
        <pt x="142" y="226" on="1"/>
        <pt x="142" y="1588" on="1"/>
        <pt x="842" y="1588" on="1"/>
        <pt x="842" y="226" on="1"/>
      </contour>
      <contour>
        <pt x="284" y="368" on="1"/>
        <pt x="700" y="368" on="1"/>
        <pt x="700" y="1447" on="1"/>
        <pt x="284" y="1447" on="1"/>
      </contour>
    </TTGlyph>
    <TTGlyph name="tchehfinalarabic" xMin="142" yMin="226" xMax="842" yMax="1588">
      <contour>
        <pt x="142" y="226" on="1"/>
        <pt x="142" y="1588" on="1"/>
        <pt x="842" y="1588" on="1"/>
        <pt x="842" y="226" on="1"/>
      </contour>
      <contour>
        <pt x="284" y="368" on="1"/>
        <pt x="700" y="368" on="1"/>
        <pt x="700" y="1447" on="1"/>
        <pt x="284" y="1447" on="1"/>
      </contour>
    </TTGlyph>
    <TTGlyph name="tchehinitialarabic" xMin="142" yMin="226" xMax="842" yMax="1588">
      <contour>
        <pt x="142" y="226" on="1"/>
        <pt x="142" y="1588" on="1"/>
        <pt x="842" y="1588" on="1"/>
        <pt x="842" y="226" on="1"/>
      </contour>
      <contour>
        <pt x="284" y="368" on="1"/>
        <pt x="700" y="368" on="1"/>
        <pt x="700" y="1447" on="1"/>
        <pt x="284" y="1447" on="1"/>
      </contour>
    </TTGlyph>
    <TTGlyph name="tchehmedialarabic" xMin="142" yMin="226" xMax="842" yMax="1588">
      <contour>
        <pt x="142" y="226" on="1"/>
        <pt x="142" y="1588" on="1"/>
        <pt x="842" y="1588" on="1"/>
        <pt x="842" y="226" on="1"/>
      </contour>
      <contour>
        <pt x="284" y="368" on="1"/>
        <pt x="700" y="368" on="1"/>
        <pt x="700" y="1447" on="1"/>
        <pt x="284" y="1447" on="1"/>
      </contour>
    </TTGlyph>
    <TTGlyph name="tehhahisolatedarabic" xMin="142" yMin="226" xMax="842" yMax="1588">
      <contour>
        <pt x="142" y="226" on="1"/>
        <pt x="142" y="1588" on="1"/>
        <pt x="842" y="1588" on="1"/>
        <pt x="842" y="226" on="1"/>
      </contour>
      <contour>
        <pt x="284" y="368" on="1"/>
        <pt x="700" y="368" on="1"/>
        <pt x="700" y="1447" on="1"/>
        <pt x="284" y="1447" on="1"/>
      </contour>
    </TTGlyph>
    <TTGlyph name="tehjeemisolatedarabic" xMin="142" yMin="226" xMax="842" yMax="1588">
      <contour>
        <pt x="142" y="226" on="1"/>
        <pt x="142" y="1588" on="1"/>
        <pt x="842" y="1588" on="1"/>
        <pt x="842" y="226" on="1"/>
      </contour>
      <contour>
        <pt x="284" y="368" on="1"/>
        <pt x="700" y="368" on="1"/>
        <pt x="700" y="1447" on="1"/>
        <pt x="284" y="1447" on="1"/>
      </contour>
    </TTGlyph>
    <TTGlyph name="tehmeemisolatedarabic" xMin="142" yMin="226" xMax="842" yMax="1588">
      <contour>
        <pt x="142" y="226" on="1"/>
        <pt x="142" y="1588" on="1"/>
        <pt x="842" y="1588" on="1"/>
        <pt x="842" y="226" on="1"/>
      </contour>
      <contour>
        <pt x="284" y="368" on="1"/>
        <pt x="700" y="368" on="1"/>
        <pt x="700" y="1447" on="1"/>
        <pt x="284" y="1447" on="1"/>
      </contour>
    </TTGlyph>
    <TTGlyph name="tehnoonfinalarabic" xMin="142" yMin="226" xMax="842" yMax="1588">
      <contour>
        <pt x="142" y="226" on="1"/>
        <pt x="142" y="1588" on="1"/>
        <pt x="842" y="1588" on="1"/>
        <pt x="842" y="226" on="1"/>
      </contour>
      <contour>
        <pt x="284" y="368" on="1"/>
        <pt x="700" y="368" on="1"/>
        <pt x="700" y="1447" on="1"/>
        <pt x="284" y="1447" on="1"/>
      </contour>
    </TTGlyph>
    <TTGlyph name="tehringfinal" xMin="142" yMin="226" xMax="842" yMax="1588">
      <contour>
        <pt x="142" y="226" on="1"/>
        <pt x="142" y="1588" on="1"/>
        <pt x="842" y="1588" on="1"/>
        <pt x="842" y="226" on="1"/>
      </contour>
      <contour>
        <pt x="284" y="368" on="1"/>
        <pt x="700" y="368" on="1"/>
        <pt x="700" y="1447" on="1"/>
        <pt x="284" y="1447" on="1"/>
      </contour>
    </TTGlyph>
    <TTGlyph name="tehringinitial" xMin="142" yMin="226" xMax="842" yMax="1588">
      <contour>
        <pt x="142" y="226" on="1"/>
        <pt x="142" y="1588" on="1"/>
        <pt x="842" y="1588" on="1"/>
        <pt x="842" y="226" on="1"/>
      </contour>
      <contour>
        <pt x="284" y="368" on="1"/>
        <pt x="700" y="368" on="1"/>
        <pt x="700" y="1447" on="1"/>
        <pt x="284" y="1447" on="1"/>
      </contour>
    </TTGlyph>
    <TTGlyph name="tehringmedial" xMin="142" yMin="226" xMax="842" yMax="1588">
      <contour>
        <pt x="142" y="226" on="1"/>
        <pt x="142" y="1588" on="1"/>
        <pt x="842" y="1588" on="1"/>
        <pt x="842" y="226" on="1"/>
      </contour>
      <contour>
        <pt x="284" y="368" on="1"/>
        <pt x="700" y="368" on="1"/>
        <pt x="700" y="1447" on="1"/>
        <pt x="284" y="1447" on="1"/>
      </contour>
    </TTGlyph>
    <TTGlyph name="ttehfinalarabic" xMin="142" yMin="226" xMax="842" yMax="1588">
      <contour>
        <pt x="142" y="226" on="1"/>
        <pt x="142" y="1588" on="1"/>
        <pt x="842" y="1588" on="1"/>
        <pt x="842" y="226" on="1"/>
      </contour>
      <contour>
        <pt x="284" y="368" on="1"/>
        <pt x="700" y="368" on="1"/>
        <pt x="700" y="1447" on="1"/>
        <pt x="284" y="1447" on="1"/>
      </contour>
    </TTGlyph>
    <TTGlyph name="ttehinitialarabic" xMin="142" yMin="226" xMax="842" yMax="1588">
      <contour>
        <pt x="142" y="226" on="1"/>
        <pt x="142" y="1588" on="1"/>
        <pt x="842" y="1588" on="1"/>
        <pt x="842" y="226" on="1"/>
      </contour>
      <contour>
        <pt x="284" y="368" on="1"/>
        <pt x="700" y="368" on="1"/>
        <pt x="700" y="1447" on="1"/>
        <pt x="284" y="1447" on="1"/>
      </contour>
    </TTGlyph>
    <TTGlyph name="ttehmedialarabic" xMin="142" yMin="226" xMax="842" yMax="1588">
      <contour>
        <pt x="142" y="226" on="1"/>
        <pt x="142" y="1588" on="1"/>
        <pt x="842" y="1588" on="1"/>
        <pt x="842" y="226" on="1"/>
      </contour>
      <contour>
        <pt x="284" y="368" on="1"/>
        <pt x="700" y="368" on="1"/>
        <pt x="700" y="1447" on="1"/>
        <pt x="284" y="1447" on="1"/>
      </contour>
    </TTGlyph>
    <TTGlyph name="uni000D" xMin="142" yMin="226" xMax="842" yMax="1588">
      <contour>
        <pt x="142" y="226" on="1"/>
        <pt x="142" y="1588" on="1"/>
        <pt x="842" y="1588" on="1"/>
        <pt x="842" y="226" on="1"/>
      </contour>
      <contour>
        <pt x="284" y="368" on="1"/>
        <pt x="700" y="368" on="1"/>
        <pt x="700" y="1447" on="1"/>
        <pt x="284" y="1447" on="1"/>
      </contour>
    </TTGlyph>
    <TTGlyph name="uni00A0" xMin="142" yMin="226" xMax="842" yMax="1588">
      <contour>
        <pt x="142" y="226" on="1"/>
        <pt x="142" y="1588" on="1"/>
        <pt x="842" y="1588" on="1"/>
        <pt x="842" y="226" on="1"/>
      </contour>
      <contour>
        <pt x="284" y="368" on="1"/>
        <pt x="700" y="368" on="1"/>
        <pt x="700" y="1447" on="1"/>
        <pt x="284" y="1447" on="1"/>
      </contour>
    </TTGlyph>
    <TTGlyph name="uni00AD" xMin="142" yMin="226" xMax="842" yMax="1588">
      <contour>
        <pt x="142" y="226" on="1"/>
        <pt x="142" y="1588" on="1"/>
        <pt x="842" y="1588" on="1"/>
        <pt x="842" y="226" on="1"/>
      </contour>
      <contour>
        <pt x="284" y="368" on="1"/>
        <pt x="700" y="368" on="1"/>
        <pt x="700" y="1447" on="1"/>
        <pt x="284" y="1447" on="1"/>
      </contour>
    </TTGlyph>
    <TTGlyph name="uni0653" xMin="142" yMin="226" xMax="842" yMax="1588">
      <contour>
        <pt x="142" y="226" on="1"/>
        <pt x="142" y="1588" on="1"/>
        <pt x="842" y="1588" on="1"/>
        <pt x="842" y="226" on="1"/>
      </contour>
      <contour>
        <pt x="284" y="368" on="1"/>
        <pt x="700" y="368" on="1"/>
        <pt x="700" y="1447" on="1"/>
        <pt x="284" y="1447" on="1"/>
      </contour>
    </TTGlyph>
    <TTGlyph name="uni0654" xMin="142" yMin="226" xMax="842" yMax="1588">
      <contour>
        <pt x="142" y="226" on="1"/>
        <pt x="142" y="1588" on="1"/>
        <pt x="842" y="1588" on="1"/>
        <pt x="842" y="226" on="1"/>
      </contour>
      <contour>
        <pt x="284" y="368" on="1"/>
        <pt x="700" y="368" on="1"/>
        <pt x="700" y="1447" on="1"/>
        <pt x="284" y="1447" on="1"/>
      </contour>
    </TTGlyph>
    <TTGlyph name="uni0655" xMin="142" yMin="226" xMax="842" yMax="1588">
      <contour>
        <pt x="142" y="226" on="1"/>
        <pt x="142" y="1588" on="1"/>
        <pt x="842" y="1588" on="1"/>
        <pt x="842" y="226" on="1"/>
      </contour>
      <contour>
        <pt x="284" y="368" on="1"/>
        <pt x="700" y="368" on="1"/>
        <pt x="700" y="1447" on="1"/>
        <pt x="284" y="1447" on="1"/>
      </contour>
    </TTGlyph>
    <TTGlyph name="uni066B" xMin="142" yMin="226" xMax="842" yMax="1588">
      <contour>
        <pt x="142" y="226" on="1"/>
        <pt x="142" y="1588" on="1"/>
        <pt x="842" y="1588" on="1"/>
        <pt x="842" y="226" on="1"/>
      </contour>
      <contour>
        <pt x="284" y="368" on="1"/>
        <pt x="700" y="368" on="1"/>
        <pt x="700" y="1447" on="1"/>
        <pt x="284" y="1447" on="1"/>
      </contour>
    </TTGlyph>
    <TTGlyph name="uni066C" xMin="142" yMin="226" xMax="842" yMax="1588">
      <contour>
        <pt x="142" y="226" on="1"/>
        <pt x="142" y="1588" on="1"/>
        <pt x="842" y="1588" on="1"/>
        <pt x="842" y="226" on="1"/>
      </contour>
      <contour>
        <pt x="284" y="368" on="1"/>
        <pt x="700" y="368" on="1"/>
        <pt x="700" y="1447" on="1"/>
        <pt x="284" y="1447" on="1"/>
      </contour>
    </TTGlyph>
    <TTGlyph name="uni0671" xMin="142" yMin="226" xMax="842" yMax="1588">
      <contour>
        <pt x="142" y="226" on="1"/>
        <pt x="142" y="1588" on="1"/>
        <pt x="842" y="1588" on="1"/>
        <pt x="842" y="226" on="1"/>
      </contour>
      <contour>
        <pt x="284" y="368" on="1"/>
        <pt x="700" y="368" on="1"/>
        <pt x="700" y="1447" on="1"/>
        <pt x="284" y="1447" on="1"/>
      </contour>
    </TTGlyph>
    <TTGlyph name="uni067C" xMin="142" yMin="226" xMax="842" yMax="1588">
      <contour>
        <pt x="142" y="226" on="1"/>
        <pt x="142" y="1588" on="1"/>
        <pt x="842" y="1588" on="1"/>
        <pt x="842" y="226" on="1"/>
      </contour>
      <contour>
        <pt x="284" y="368" on="1"/>
        <pt x="700" y="368" on="1"/>
        <pt x="700" y="1447" on="1"/>
        <pt x="284" y="1447" on="1"/>
      </contour>
    </TTGlyph>
    <TTGlyph name="uni0681" xMin="142" yMin="226" xMax="842" yMax="1588">
      <contour>
        <pt x="142" y="226" on="1"/>
        <pt x="142" y="1588" on="1"/>
        <pt x="842" y="1588" on="1"/>
        <pt x="842" y="226" on="1"/>
      </contour>
      <contour>
        <pt x="284" y="368" on="1"/>
        <pt x="700" y="368" on="1"/>
        <pt x="700" y="1447" on="1"/>
        <pt x="284" y="1447" on="1"/>
      </contour>
    </TTGlyph>
    <TTGlyph name="uni0685" xMin="142" yMin="226" xMax="842" yMax="1588">
      <contour>
        <pt x="142" y="226" on="1"/>
        <pt x="142" y="1588" on="1"/>
        <pt x="842" y="1588" on="1"/>
        <pt x="842" y="226" on="1"/>
      </contour>
      <contour>
        <pt x="284" y="368" on="1"/>
        <pt x="700" y="368" on="1"/>
        <pt x="700" y="1447" on="1"/>
        <pt x="284" y="1447" on="1"/>
      </contour>
    </TTGlyph>
    <TTGlyph name="uni0689" xMin="142" yMin="226" xMax="842" yMax="1588">
      <contour>
        <pt x="142" y="226" on="1"/>
        <pt x="142" y="1588" on="1"/>
        <pt x="842" y="1588" on="1"/>
        <pt x="842" y="226" on="1"/>
      </contour>
      <contour>
        <pt x="284" y="368" on="1"/>
        <pt x="700" y="368" on="1"/>
        <pt x="700" y="1447" on="1"/>
        <pt x="284" y="1447" on="1"/>
      </contour>
    </TTGlyph>
    <TTGlyph name="uni0693" xMin="142" yMin="226" xMax="842" yMax="1588">
      <contour>
        <pt x="142" y="226" on="1"/>
        <pt x="142" y="1588" on="1"/>
        <pt x="842" y="1588" on="1"/>
        <pt x="842" y="226" on="1"/>
      </contour>
      <contour>
        <pt x="284" y="368" on="1"/>
        <pt x="700" y="368" on="1"/>
        <pt x="700" y="1447" on="1"/>
        <pt x="284" y="1447" on="1"/>
      </contour>
    </TTGlyph>
    <TTGlyph name="uni0696" xMin="142" yMin="226" xMax="842" yMax="1588">
      <contour>
        <pt x="142" y="226" on="1"/>
        <pt x="142" y="1588" on="1"/>
        <pt x="842" y="1588" on="1"/>
        <pt x="842" y="226" on="1"/>
      </contour>
      <contour>
        <pt x="284" y="368" on="1"/>
        <pt x="700" y="368" on="1"/>
        <pt x="700" y="1447" on="1"/>
        <pt x="284" y="1447" on="1"/>
      </contour>
    </TTGlyph>
    <TTGlyph name="uni069A" xMin="142" yMin="226" xMax="842" yMax="1588">
      <contour>
        <pt x="142" y="226" on="1"/>
        <pt x="142" y="1588" on="1"/>
        <pt x="842" y="1588" on="1"/>
        <pt x="842" y="226" on="1"/>
      </contour>
      <contour>
        <pt x="284" y="368" on="1"/>
        <pt x="700" y="368" on="1"/>
        <pt x="700" y="1447" on="1"/>
        <pt x="284" y="1447" on="1"/>
      </contour>
    </TTGlyph>
    <TTGlyph name="uni06A9" xMin="142" yMin="226" xMax="842" yMax="1588">
      <contour>
        <pt x="142" y="226" on="1"/>
        <pt x="142" y="1588" on="1"/>
        <pt x="842" y="1588" on="1"/>
        <pt x="842" y="226" on="1"/>
      </contour>
      <contour>
        <pt x="284" y="368" on="1"/>
        <pt x="700" y="368" on="1"/>
        <pt x="700" y="1447" on="1"/>
        <pt x="284" y="1447" on="1"/>
      </contour>
    </TTGlyph>
    <TTGlyph name="uni06AB" xMin="142" yMin="226" xMax="842" yMax="1588">
      <contour>
        <pt x="142" y="226" on="1"/>
        <pt x="142" y="1588" on="1"/>
        <pt x="842" y="1588" on="1"/>
        <pt x="842" y="226" on="1"/>
      </contour>
      <contour>
        <pt x="284" y="368" on="1"/>
        <pt x="700" y="368" on="1"/>
        <pt x="700" y="1447" on="1"/>
        <pt x="284" y="1447" on="1"/>
      </contour>
    </TTGlyph>
    <TTGlyph name="uni06B7" xMin="142" yMin="226" xMax="842" yMax="1588">
      <contour>
        <pt x="142" y="226" on="1"/>
        <pt x="142" y="1588" on="1"/>
        <pt x="842" y="1588" on="1"/>
        <pt x="842" y="226" on="1"/>
      </contour>
      <contour>
        <pt x="284" y="368" on="1"/>
        <pt x="700" y="368" on="1"/>
        <pt x="700" y="1447" on="1"/>
        <pt x="284" y="1447" on="1"/>
      </contour>
    </TTGlyph>
    <TTGlyph name="uni06BC" xMin="142" yMin="226" xMax="842" yMax="1588">
      <contour>
        <pt x="142" y="226" on="1"/>
        <pt x="142" y="1588" on="1"/>
        <pt x="842" y="1588" on="1"/>
        <pt x="842" y="226" on="1"/>
      </contour>
      <contour>
        <pt x="284" y="368" on="1"/>
        <pt x="700" y="368" on="1"/>
        <pt x="700" y="1447" on="1"/>
        <pt x="284" y="1447" on="1"/>
      </contour>
    </TTGlyph>
    <TTGlyph name="uni06BE" xMin="142" yMin="226" xMax="842" yMax="1588">
      <contour>
        <pt x="142" y="226" on="1"/>
        <pt x="142" y="1588" on="1"/>
        <pt x="842" y="1588" on="1"/>
        <pt x="842" y="226" on="1"/>
      </contour>
      <contour>
        <pt x="284" y="368" on="1"/>
        <pt x="700" y="368" on="1"/>
        <pt x="700" y="1447" on="1"/>
        <pt x="284" y="1447" on="1"/>
      </contour>
    </TTGlyph>
    <TTGlyph name="uni06C2" xMin="142" yMin="226" xMax="842" yMax="1588">
      <contour>
        <pt x="142" y="226" on="1"/>
        <pt x="142" y="1588" on="1"/>
        <pt x="842" y="1588" on="1"/>
        <pt x="842" y="226" on="1"/>
      </contour>
      <contour>
        <pt x="284" y="368" on="1"/>
        <pt x="700" y="368" on="1"/>
        <pt x="700" y="1447" on="1"/>
        <pt x="284" y="1447" on="1"/>
      </contour>
    </TTGlyph>
    <TTGlyph name="uni06C7" xMin="142" yMin="226" xMax="842" yMax="1588">
      <contour>
        <pt x="142" y="226" on="1"/>
        <pt x="142" y="1588" on="1"/>
        <pt x="842" y="1588" on="1"/>
        <pt x="842" y="226" on="1"/>
      </contour>
      <contour>
        <pt x="284" y="368" on="1"/>
        <pt x="700" y="368" on="1"/>
        <pt x="700" y="1447" on="1"/>
        <pt x="284" y="1447" on="1"/>
      </contour>
    </TTGlyph>
    <TTGlyph name="uni06C9" xMin="142" yMin="226" xMax="842" yMax="1588">
      <contour>
        <pt x="142" y="226" on="1"/>
        <pt x="142" y="1588" on="1"/>
        <pt x="842" y="1588" on="1"/>
        <pt x="842" y="226" on="1"/>
      </contour>
      <contour>
        <pt x="284" y="368" on="1"/>
        <pt x="700" y="368" on="1"/>
        <pt x="700" y="1447" on="1"/>
        <pt x="284" y="1447" on="1"/>
      </contour>
    </TTGlyph>
    <TTGlyph name="uni06CC" xMin="142" yMin="226" xMax="842" yMax="1588">
      <contour>
        <pt x="142" y="226" on="1"/>
        <pt x="142" y="1588" on="1"/>
        <pt x="842" y="1588" on="1"/>
        <pt x="842" y="226" on="1"/>
      </contour>
      <contour>
        <pt x="284" y="368" on="1"/>
        <pt x="700" y="368" on="1"/>
        <pt x="700" y="1447" on="1"/>
        <pt x="284" y="1447" on="1"/>
      </contour>
    </TTGlyph>
    <TTGlyph name="uni06CD" xMin="142" yMin="226" xMax="842" yMax="1588">
      <contour>
        <pt x="142" y="226" on="1"/>
        <pt x="142" y="1588" on="1"/>
        <pt x="842" y="1588" on="1"/>
        <pt x="842" y="226" on="1"/>
      </contour>
      <contour>
        <pt x="284" y="368" on="1"/>
        <pt x="700" y="368" on="1"/>
        <pt x="700" y="1447" on="1"/>
        <pt x="284" y="1447" on="1"/>
      </contour>
    </TTGlyph>
    <TTGlyph name="uni06D0" xMin="142" yMin="226" xMax="842" yMax="1588">
      <contour>
        <pt x="142" y="226" on="1"/>
        <pt x="142" y="1588" on="1"/>
        <pt x="842" y="1588" on="1"/>
        <pt x="842" y="226" on="1"/>
      </contour>
      <contour>
        <pt x="284" y="368" on="1"/>
        <pt x="700" y="368" on="1"/>
        <pt x="700" y="1447" on="1"/>
        <pt x="284" y="1447" on="1"/>
      </contour>
    </TTGlyph>
    <TTGlyph name="uni06D1" xMin="142" yMin="226" xMax="842" yMax="1588">
      <contour>
        <pt x="142" y="226" on="1"/>
        <pt x="142" y="1588" on="1"/>
        <pt x="842" y="1588" on="1"/>
        <pt x="842" y="226" on="1"/>
      </contour>
      <contour>
        <pt x="284" y="368" on="1"/>
        <pt x="700" y="368" on="1"/>
        <pt x="700" y="1447" on="1"/>
        <pt x="284" y="1447" on="1"/>
      </contour>
    </TTGlyph>
    <TTGlyph name="uni06D3" xMin="142" yMin="226" xMax="842" yMax="1588">
      <contour>
        <pt x="142" y="226" on="1"/>
        <pt x="142" y="1588" on="1"/>
        <pt x="842" y="1588" on="1"/>
        <pt x="842" y="226" on="1"/>
      </contour>
      <contour>
        <pt x="284" y="368" on="1"/>
        <pt x="700" y="368" on="1"/>
        <pt x="700" y="1447" on="1"/>
        <pt x="284" y="1447" on="1"/>
      </contour>
    </TTGlyph>
    <TTGlyph name="uni06D4" xMin="142" yMin="226" xMax="842" yMax="1588">
      <contour>
        <pt x="142" y="226" on="1"/>
        <pt x="142" y="1588" on="1"/>
        <pt x="842" y="1588" on="1"/>
        <pt x="842" y="226" on="1"/>
      </contour>
      <contour>
        <pt x="284" y="368" on="1"/>
        <pt x="700" y="368" on="1"/>
        <pt x="700" y="1447" on="1"/>
        <pt x="284" y="1447" on="1"/>
      </contour>
    </TTGlyph>
    <TTGlyph name="uni06F0" xMin="142" yMin="226" xMax="842" yMax="1588">
      <contour>
        <pt x="142" y="226" on="1"/>
        <pt x="142" y="1588" on="1"/>
        <pt x="842" y="1588" on="1"/>
        <pt x="842" y="226" on="1"/>
      </contour>
      <contour>
        <pt x="284" y="368" on="1"/>
        <pt x="700" y="368" on="1"/>
        <pt x="700" y="1447" on="1"/>
        <pt x="284" y="1447" on="1"/>
      </contour>
    </TTGlyph>
    <TTGlyph name="uni06F1" xMin="142" yMin="226" xMax="842" yMax="1588">
      <contour>
        <pt x="142" y="226" on="1"/>
        <pt x="142" y="1588" on="1"/>
        <pt x="842" y="1588" on="1"/>
        <pt x="842" y="226" on="1"/>
      </contour>
      <contour>
        <pt x="284" y="368" on="1"/>
        <pt x="700" y="368" on="1"/>
        <pt x="700" y="1447" on="1"/>
        <pt x="284" y="1447" on="1"/>
      </contour>
    </TTGlyph>
    <TTGlyph name="uni06F2" xMin="142" yMin="226" xMax="842" yMax="1588">
      <contour>
        <pt x="142" y="226" on="1"/>
        <pt x="142" y="1588" on="1"/>
        <pt x="842" y="1588" on="1"/>
        <pt x="842" y="226" on="1"/>
      </contour>
      <contour>
        <pt x="284" y="368" on="1"/>
        <pt x="700" y="368" on="1"/>
        <pt x="700" y="1447" on="1"/>
        <pt x="284" y="1447" on="1"/>
      </contour>
    </TTGlyph>
    <TTGlyph name="uni06F3" xMin="142" yMin="226" xMax="842" yMax="1588">
      <contour>
        <pt x="142" y="226" on="1"/>
        <pt x="142" y="1588" on="1"/>
        <pt x="842" y="1588" on="1"/>
        <pt x="842" y="226" on="1"/>
      </contour>
      <contour>
        <pt x="284" y="368" on="1"/>
        <pt x="700" y="368" on="1"/>
        <pt x="700" y="1447" on="1"/>
        <pt x="284" y="1447" on="1"/>
      </contour>
    </TTGlyph>
    <TTGlyph name="uni06F4" xMin="142" yMin="226" xMax="842" yMax="1588">
      <contour>
        <pt x="142" y="226" on="1"/>
        <pt x="142" y="1588" on="1"/>
        <pt x="842" y="1588" on="1"/>
        <pt x="842" y="226" on="1"/>
      </contour>
      <contour>
        <pt x="284" y="368" on="1"/>
        <pt x="700" y="368" on="1"/>
        <pt x="700" y="1447" on="1"/>
        <pt x="284" y="1447" on="1"/>
      </contour>
    </TTGlyph>
    <TTGlyph name="uni06F5" xMin="142" yMin="226" xMax="842" yMax="1588">
      <contour>
        <pt x="142" y="226" on="1"/>
        <pt x="142" y="1588" on="1"/>
        <pt x="842" y="1588" on="1"/>
        <pt x="842" y="226" on="1"/>
      </contour>
      <contour>
        <pt x="284" y="368" on="1"/>
        <pt x="700" y="368" on="1"/>
        <pt x="700" y="1447" on="1"/>
        <pt x="284" y="1447" on="1"/>
      </contour>
    </TTGlyph>
    <TTGlyph name="uni06F6" xMin="142" yMin="226" xMax="842" yMax="1588">
      <contour>
        <pt x="142" y="226" on="1"/>
        <pt x="142" y="1588" on="1"/>
        <pt x="842" y="1588" on="1"/>
        <pt x="842" y="226" on="1"/>
      </contour>
      <contour>
        <pt x="284" y="368" on="1"/>
        <pt x="700" y="368" on="1"/>
        <pt x="700" y="1447" on="1"/>
        <pt x="284" y="1447" on="1"/>
      </contour>
    </TTGlyph>
    <TTGlyph name="uni06F7" xMin="142" yMin="226" xMax="842" yMax="1588">
      <contour>
        <pt x="142" y="226" on="1"/>
        <pt x="142" y="1588" on="1"/>
        <pt x="842" y="1588" on="1"/>
        <pt x="842" y="226" on="1"/>
      </contour>
      <contour>
        <pt x="284" y="368" on="1"/>
        <pt x="700" y="368" on="1"/>
        <pt x="700" y="1447" on="1"/>
        <pt x="284" y="1447" on="1"/>
      </contour>
    </TTGlyph>
    <TTGlyph name="uni06F8" xMin="142" yMin="226" xMax="842" yMax="1588">
      <contour>
        <pt x="142" y="226" on="1"/>
        <pt x="142" y="1588" on="1"/>
        <pt x="842" y="1588" on="1"/>
        <pt x="842" y="226" on="1"/>
      </contour>
      <contour>
        <pt x="284" y="368" on="1"/>
        <pt x="700" y="368" on="1"/>
        <pt x="700" y="1447" on="1"/>
        <pt x="284" y="1447" on="1"/>
      </contour>
    </TTGlyph>
    <TTGlyph name="uni06F9" xMin="142" yMin="226" xMax="842" yMax="1588">
      <contour>
        <pt x="142" y="226" on="1"/>
        <pt x="142" y="1588" on="1"/>
        <pt x="842" y="1588" on="1"/>
        <pt x="842" y="226" on="1"/>
      </contour>
      <contour>
        <pt x="284" y="368" on="1"/>
        <pt x="700" y="368" on="1"/>
        <pt x="700" y="1447" on="1"/>
        <pt x="284" y="1447" on="1"/>
      </contour>
    </TTGlyph>
    <TTGlyph name="uni2010" xMin="218" yMin="-346" xMax="1682" yMax="1476">
      <contour>
        <pt x="1682" y="1440" on="1"/>
        <pt x="1682" y="1384" on="0"/>
        <pt x="1634" y="1357" on="1"/>
        <pt x="1605" y="1339" on="0"/>
        <pt x="1386" y="1204" on="1"/>
        <pt x="1230" y="1108" on="0"/>
        <pt x="1215" y="1108" on="1"/>
        <pt x="1161" y="1108" on="1"/>
        <pt x="1161" y="1112" on="0"/>
        <pt x="1149" y="1140" on="0"/>
        <pt x="1149" y="1153" on="1"/>
        <pt x="1149" y="1207" on="0"/>
        <pt x="1346" y="1313" on="1"/>
        <pt x="1578" y="1439" on="0"/>
        <pt x="1613" y="1476" on="1"/>
        <pt x="1669" y="1476" on="1"/>
        <pt x="1682" y="1463" on="0"/>
      </contour>
      <contour>
        <pt x="709" y="591" on="1"/>
        <pt x="709" y="555" on="0"/>
        <pt x="639" y="483" on="0"/>
        <pt x="612" y="483" on="1"/>
        <pt x="578" y="483" on="0"/>
        <pt x="494" y="551" on="0"/>
        <pt x="494" y="580" on="1"/>
        <pt x="494" y="598" on="0"/>
        <pt x="524" y="645" on="1"/>
        <pt x="557" y="698" on="0"/>
        <pt x="587" y="698" on="1"/>
        <pt x="615" y="698" on="0"/>
        <pt x="709" y="613" on="0"/>
      </contour>
      <contour>
        <pt x="1671" y="315" on="1"/>
        <pt x="1671" y="267" on="0"/>
        <pt x="1641" y="211" on="1"/>
        <pt x="1604" y="145" on="0"/>
        <pt x="1554" y="145" on="1"/>
        <pt x="1511" y="145" on="0"/>
        <pt x="1416" y="179" on="1"/>
        <pt x="1317" y="215" on="0"/>
        <pt x="1290" y="218" on="1"/>
        <pt x="1258" y="161" on="0"/>
        <pt x="1179" y="125" on="1"/>
        <pt x="1124" y="101" on="0"/>
        <pt x="1069" y="76" on="1"/>
        <pt x="1062" y="36" on="0"/>
        <pt x="1063" y="18" on="1"/>
        <pt x="1064" y="9" on="0"/>
        <pt x="1064" y="1" on="1"/>
        <pt x="1064" y="-115" on="0"/>
        <pt x="923" y="-225" on="1"/>
        <pt x="793" y="-326" on="0"/>
        <pt x="683" y="-329" on="1"/>
        <pt x="676" y="-330" on="0"/>
        <pt x="631" y="-346" on="0"/>
        <pt x="615" y="-346" on="1"/>
        <pt x="531" y="-346" on="1"/>
        <pt x="442" y="-346" on="0"/>
        <pt x="340" y="-279" on="1"/>
        <pt x="218" y="-199" on="0"/>
        <pt x="218" y="-85" on="1"/>
        <pt x="218" y="-17" on="0"/>
        <pt x="265" y="86" on="1"/>
        <pt x="316" y="201" on="0"/>
        <pt x="385" y="257" on="1"/>
        <pt x="422" y="257" on="1"/>
        <pt x="422" y="200" on="1"/>
        <pt x="422" y="188" on="0"/>
        <pt x="341" y="34" on="0"/>
        <pt x="341" y="22" on="1"/>
        <pt x="341" y="-59" on="0"/>
        <pt x="448" y="-121" on="1"/>
        <pt x="538" y="-172" on="0"/>
        <pt x="612" y="-172" on="1"/>
        <pt x="679" y="-172" on="0"/>
        <pt x="801" y="-131" on="1"/>
        <pt x="965" y="-76" on="0"/>
        <pt x="965" y="2" on="1"/>
        <pt x="965" y="63" on="0"/>
        <pt x="922" y="148" on="1"/>
        <pt x="894" y="200" on="0"/>
        <pt x="866" y="251" on="1"/>
        <pt x="852" y="283" on="0"/>
        <pt x="852" y="319" on="1"/>
        <pt x="852" y="335" on="0"/>
        <pt x="884" y="429" on="1"/>
        <pt x="896" y="442" on="0"/>
        <pt x="914" y="442" on="1"/>
        <pt x="930" y="442" on="0"/>
        <pt x="1033" y="279" on="0"/>
        <pt x="1093" y="279" on="1"/>
        <pt x="1161" y="279" on="0"/>
        <pt x="1194" y="291" on="1"/>
        <pt x="1235" y="306" on="0"/>
        <pt x="1271" y="367" on="1"/>
        <pt x="1299" y="414" on="0"/>
        <pt x="1327" y="460" on="1"/>
        <pt x="1356" y="498" on="0"/>
        <pt x="1421" y="552" on="1"/>
        <pt x="1497" y="616" on="0"/>
        <pt x="1528" y="616" on="1"/>
        <pt x="1576" y="616" on="0"/>
        <pt x="1628" y="470" on="1"/>
        <pt x="1671" y="349" on="0"/>
      </contour>
      <contour>
        <pt x="1507" y="351" on="1"/>
        <pt x="1495" y="382" on="0"/>
        <pt x="1473" y="432" on="1"/>
        <pt x="1461" y="420" on="0"/>
        <pt x="1419" y="389" on="0"/>
        <pt x="1416" y="386" on="1"/>
        <pt x="1432" y="374" on="0"/>
        <pt x="1460" y="351" on="1"/>
      </contour>
    </TTGlyph>
    <TTGlyph name="uni2011" xMin="218" yMin="-346" xMax="1682" yMax="1476">
      <contour>
        <pt x="1682" y="1440" on="1"/>
        <pt x="1682" y="1384" on="0"/>
        <pt x="1634" y="1357" on="1"/>
        <pt x="1605" y="1339" on="0"/>
        <pt x="1386" y="1204" on="1"/>
        <pt x="1230" y="1108" on="0"/>
        <pt x="1215" y="1108" on="1"/>
        <pt x="1161" y="1108" on="1"/>
        <pt x="1161" y="1112" on="0"/>
        <pt x="1149" y="1140" on="0"/>
        <pt x="1149" y="1153" on="1"/>
        <pt x="1149" y="1207" on="0"/>
        <pt x="1346" y="1313" on="1"/>
        <pt x="1578" y="1439" on="0"/>
        <pt x="1613" y="1476" on="1"/>
        <pt x="1669" y="1476" on="1"/>
        <pt x="1682" y="1463" on="0"/>
      </contour>
      <contour>
        <pt x="709" y="591" on="1"/>
        <pt x="709" y="555" on="0"/>
        <pt x="639" y="483" on="0"/>
        <pt x="612" y="483" on="1"/>
        <pt x="578" y="483" on="0"/>
        <pt x="494" y="551" on="0"/>
        <pt x="494" y="580" on="1"/>
        <pt x="494" y="598" on="0"/>
        <pt x="524" y="645" on="1"/>
        <pt x="557" y="698" on="0"/>
        <pt x="587" y="698" on="1"/>
        <pt x="615" y="698" on="0"/>
        <pt x="709" y="613" on="0"/>
      </contour>
      <contour>
        <pt x="1671" y="315" on="1"/>
        <pt x="1671" y="267" on="0"/>
        <pt x="1641" y="211" on="1"/>
        <pt x="1604" y="145" on="0"/>
        <pt x="1554" y="145" on="1"/>
        <pt x="1511" y="145" on="0"/>
        <pt x="1416" y="179" on="1"/>
        <pt x="1317" y="215" on="0"/>
        <pt x="1290" y="218" on="1"/>
        <pt x="1258" y="161" on="0"/>
        <pt x="1179" y="125" on="1"/>
        <pt x="1124" y="101" on="0"/>
        <pt x="1069" y="76" on="1"/>
        <pt x="1062" y="36" on="0"/>
        <pt x="1063" y="18" on="1"/>
        <pt x="1064" y="9" on="0"/>
        <pt x="1064" y="1" on="1"/>
        <pt x="1064" y="-115" on="0"/>
        <pt x="923" y="-225" on="1"/>
        <pt x="793" y="-326" on="0"/>
        <pt x="683" y="-329" on="1"/>
        <pt x="676" y="-330" on="0"/>
        <pt x="631" y="-346" on="0"/>
        <pt x="615" y="-346" on="1"/>
        <pt x="531" y="-346" on="1"/>
        <pt x="442" y="-346" on="0"/>
        <pt x="340" y="-279" on="1"/>
        <pt x="218" y="-199" on="0"/>
        <pt x="218" y="-85" on="1"/>
        <pt x="218" y="-17" on="0"/>
        <pt x="265" y="86" on="1"/>
        <pt x="316" y="201" on="0"/>
        <pt x="385" y="257" on="1"/>
        <pt x="422" y="257" on="1"/>
        <pt x="422" y="200" on="1"/>
        <pt x="422" y="188" on="0"/>
        <pt x="341" y="34" on="0"/>
        <pt x="341" y="22" on="1"/>
        <pt x="341" y="-59" on="0"/>
        <pt x="448" y="-121" on="1"/>
        <pt x="538" y="-172" on="0"/>
        <pt x="612" y="-172" on="1"/>
        <pt x="679" y="-172" on="0"/>
        <pt x="801" y="-131" on="1"/>
        <pt x="965" y="-76" on="0"/>
        <pt x="965" y="2" on="1"/>
        <pt x="965" y="63" on="0"/>
        <pt x="922" y="148" on="1"/>
        <pt x="894" y="200" on="0"/>
        <pt x="866" y="251" on="1"/>
        <pt x="852" y="283" on="0"/>
        <pt x="852" y="319" on="1"/>
        <pt x="852" y="335" on="0"/>
        <pt x="884" y="429" on="1"/>
        <pt x="896" y="442" on="0"/>
        <pt x="914" y="442" on="1"/>
        <pt x="930" y="442" on="0"/>
        <pt x="1033" y="279" on="0"/>
        <pt x="1093" y="279" on="1"/>
        <pt x="1161" y="279" on="0"/>
        <pt x="1194" y="291" on="1"/>
        <pt x="1235" y="306" on="0"/>
        <pt x="1271" y="367" on="1"/>
        <pt x="1299" y="414" on="0"/>
        <pt x="1327" y="460" on="1"/>
        <pt x="1356" y="498" on="0"/>
        <pt x="1421" y="552" on="1"/>
        <pt x="1497" y="616" on="0"/>
        <pt x="1528" y="616" on="1"/>
        <pt x="1576" y="616" on="0"/>
        <pt x="1628" y="470" on="1"/>
        <pt x="1671" y="349" on="0"/>
      </contour>
      <contour>
        <pt x="1507" y="351" on="1"/>
        <pt x="1495" y="382" on="0"/>
        <pt x="1473" y="432" on="1"/>
        <pt x="1461" y="420" on="0"/>
        <pt x="1419" y="389" on="0"/>
        <pt x="1416" y="386" on="1"/>
        <pt x="1432" y="374" on="0"/>
        <pt x="1460" y="351" on="1"/>
      </contour>
    </TTGlyph>
    <TTGlyph name="uniE000" xMin="0" yMin="0" xMax="1800" yMax="1800">
      <contour>
        <pt x="0" y="1800" on="1"/>
        <pt x="1800" y="1800" on="1"/>
        <pt x="1800" y="0" on="1"/>
        <pt x="0" y="0" on="1"/>
      </contour>
    </TTGlyph>
    <TTGlyph name="uniFB51" xMin="363" yMin="-104" xMax="2871" yMax="1636">
      <contour>
        <pt x="2862" y="1579" on="1"/>
        <pt x="2862" y="1509" on="0"/>
        <pt x="2664" y="1382" on="1"/>
        <pt x="2486" y="1267" on="0"/>
        <pt x="2452" y="1267" on="1"/>
        <pt x="2411" y="1267" on="0"/>
        <pt x="2411" y="1313" on="1"/>
        <pt x="2411" y="1348" on="0"/>
        <pt x="2436" y="1374" on="1"/>
        <pt x="2443" y="1380" on="0"/>
        <pt x="2515" y="1437" on="1"/>
        <pt x="2576" y="1484" on="0"/>
        <pt x="2787" y="1605" on="0"/>
        <pt x="2807" y="1605" on="1"/>
        <pt x="2849" y="1605" on="1"/>
        <pt x="2862" y="1603" on="0"/>
      </contour>
      <contour>
        <pt x="2862" y="935" on="1"/>
        <pt x="2862" y="896" on="0"/>
        <pt x="2835" y="859" on="1"/>
        <pt x="2805" y="817" on="0"/>
        <pt x="2764" y="817" on="1"/>
        <pt x="2744" y="817" on="0"/>
        <pt x="2682" y="858" on="1"/>
        <pt x="2674" y="852" on="0"/>
        <pt x="2635" y="814" on="1"/>
        <pt x="2605" y="786" on="0"/>
        <pt x="2590" y="786" on="1"/>
        <pt x="2553" y="786" on="0"/>
        <pt x="2506" y="831" on="1"/>
        <pt x="2462" y="872" on="0"/>
        <pt x="2462" y="899" on="1"/>
        <pt x="2462" y="933" on="0"/>
        <pt x="2502" y="970" on="1"/>
        <pt x="2536" y="1001" on="0"/>
        <pt x="2554" y="1001" on="1"/>
        <pt x="2572" y="1001" on="0"/>
        <pt x="2652" y="950" on="1"/>
        <pt x="2656" y="953" on="0"/>
        <pt x="2710" y="999" on="1"/>
        <pt x="2749" y="1032" on="0"/>
        <pt x="2764" y="1032" on="1"/>
        <pt x="2784" y="1032" on="0"/>
        <pt x="2862" y="954" on="0"/>
      </contour>
      <contour>
        <pt x="1930" y="1605" on="1"/>
        <pt x="1930" y="1544" on="0"/>
        <pt x="1883" y="1516" on="1"/>
        <pt x="1745" y="1438" on="0"/>
        <pt x="1463" y="1278" on="1"/>
        <pt x="1439" y="1300" on="0"/>
        <pt x="1439" y="1334" on="1"/>
        <pt x="1439" y="1388" on="0"/>
        <pt x="1463" y="1406" on="1"/>
        <pt x="1523" y="1448" on="0"/>
        <pt x="1872" y="1636" on="1"/>
        <pt x="1906" y="1636" on="1"/>
        <pt x="1915" y="1631" on="0"/>
        <pt x="1930" y="1620" on="0"/>
      </contour>
      <contour>
        <pt x="2871" y="264" on="1"/>
        <pt x="2871" y="179" on="0"/>
        <pt x="2857" y="115" on="1"/>
        <pt x="2841" y="42" on="0"/>
        <pt x="2804" y="11" on="1"/>
        <pt x="2775" y="-13" on="0"/>
        <pt x="2673" y="-36" on="1"/>
        <pt x="2602" y="-53" on="0"/>
        <pt x="2549" y="-53" on="1"/>
        <pt x="2436" y="-53" on="0"/>
        <pt x="2389" y="-37" on="1"/>
        <pt x="2287" y="-4" on="0"/>
        <pt x="2270" y="105" on="1"/>
        <pt x="2239" y="310" on="0"/>
        <pt x="2209" y="711" on="1"/>
        <pt x="2186" y="1033" on="0"/>
        <pt x="2186" y="1094" on="1"/>
        <pt x="2186" y="1099" on="0"/>
        <pt x="2250" y="1226" on="1"/>
        <pt x="2286" y="1226" on="1"/>
        <pt x="2310" y="1137" on="0"/>
        <pt x="2321" y="979" on="1"/>
        <pt x="2328" y="850" on="0"/>
        <pt x="2336" y="720" on="1"/>
        <pt x="2344" y="601" on="0"/>
        <pt x="2366" y="362" on="1"/>
        <pt x="2371" y="304" on="0"/>
        <pt x="2375" y="247" on="1"/>
        <pt x="2389" y="166" on="0"/>
        <pt x="2439" y="143" on="1"/>
        <pt x="2465" y="131" on="0"/>
        <pt x="2564" y="131" on="1"/>
        <pt x="2769" y="131" on="0"/>
        <pt x="2769" y="188" on="1"/>
        <pt x="2769" y="243" on="0"/>
        <pt x="2734" y="243" on="1"/>
        <pt x="2728" y="243" on="0"/>
        <pt x="2654" y="182" on="0"/>
        <pt x="2611" y="182" on="1"/>
        <pt x="2540" y="182" on="0"/>
        <pt x="2503" y="236" on="1"/>
        <pt x="2472" y="279" on="0"/>
        <pt x="2472" y="336" on="1"/>
        <pt x="2472" y="372" on="0"/>
        <pt x="2475" y="383" on="1"/>
        <pt x="2526" y="505" on="0"/>
        <pt x="2586" y="576" on="1"/>
        <pt x="2599" y="591" on="0"/>
        <pt x="2646" y="591" on="1"/>
        <pt x="2748" y="591" on="0"/>
        <pt x="2818" y="446" on="1"/>
        <pt x="2871" y="335" on="0"/>
      </contour>
      <contour>
        <pt x="1203" y="1283" on="1"/>
        <pt x="1203" y="1216" on="0"/>
        <pt x="1066" y="1149" on="1"/>
        <pt x="950" y="1094" on="0"/>
        <pt x="895" y="1094" on="1"/>
        <pt x="849" y="1094" on="0"/>
        <pt x="814" y="1128" on="1"/>
        <pt x="825" y="1168" on="0"/>
        <pt x="868" y="1185" on="1"/>
        <pt x="879" y="1188" on="0"/>
        <pt x="959" y="1204" on="1"/>
        <pt x="959" y="1212" on="0"/>
        <pt x="977" y="1232" on="1"/>
        <pt x="960" y="1257" on="0"/>
        <pt x="906" y="1257" on="1"/>
        <pt x="891" y="1257" on="0"/>
        <pt x="854" y="1235" on="1"/>
        <pt x="809" y="1210" on="0"/>
        <pt x="797" y="1206" on="1"/>
        <pt x="783" y="1221" on="0"/>
        <pt x="783" y="1237" on="1"/>
        <pt x="783" y="1285" on="0"/>
        <pt x="846" y="1339" on="1"/>
        <pt x="905" y="1390" on="0"/>
        <pt x="952" y="1390" on="1"/>
        <pt x="980" y="1390" on="0"/>
        <pt x="1089" y="1347" on="1"/>
        <pt x="1203" y="1301" on="0"/>
      </contour>
      <contour>
        <pt x="1951" y="269" on="1"/>
        <pt x="1951" y="184" on="0"/>
        <pt x="1897" y="96" on="1"/>
        <pt x="1838" y="-2" on="0"/>
        <pt x="1761" y="-2" on="1"/>
        <pt x="1701" y="-2" on="0"/>
        <pt x="1647" y="11" on="1"/>
        <pt x="1629" y="15" on="0"/>
        <pt x="1584" y="39" on="1"/>
        <pt x="1544" y="59" on="0"/>
        <pt x="1530" y="59" on="1"/>
        <pt x="1523" y="59" on="0"/>
        <pt x="1422" y="11" on="1"/>
        <pt x="1314" y="-40" on="0"/>
        <pt x="1271" y="-50" on="1"/>
        <pt x="1035" y="-104" on="0"/>
        <pt x="875" y="-104" on="1"/>
        <pt x="804" y="-104" on="1"/>
        <pt x="737" y="-104" on="0"/>
        <pt x="551" y="-40" on="1"/>
        <pt x="475" y="-13" on="0"/>
        <pt x="449" y="23" on="1"/>
        <pt x="363" y="142" on="0"/>
        <pt x="363" y="208" on="1"/>
        <pt x="363" y="261" on="0"/>
        <pt x="405" y="344" on="1"/>
        <pt x="449" y="433" on="0"/>
        <pt x="491" y="447" on="1"/>
        <pt x="547" y="447" on="1"/>
        <pt x="537" y="412" on="0"/>
        <pt x="509" y="343" on="1"/>
        <pt x="486" y="288" on="0"/>
        <pt x="486" y="274" on="1"/>
        <pt x="486" y="238" on="0"/>
        <pt x="540" y="164" on="0"/>
        <pt x="574" y="154" on="1"/>
        <pt x="850" y="70" on="0"/>
        <pt x="900" y="70" on="1"/>
        <pt x="1040" y="70" on="0"/>
        <pt x="1203" y="103" on="1"/>
        <pt x="1379" y="139" on="0"/>
        <pt x="1461" y="194" on="1"/>
        <pt x="1484" y="210" on="0"/>
        <pt x="1529" y="265" on="1"/>
        <pt x="1582" y="332" on="0"/>
        <pt x="1596" y="346" on="1"/>
        <pt x="1632" y="332" on="0"/>
        <pt x="1632" y="295" on="1"/>
        <pt x="1632" y="286" on="0"/>
        <pt x="1626" y="247" on="0"/>
        <pt x="1626" y="238" on="1"/>
        <pt x="1626" y="221" on="0"/>
        <pt x="1634" y="211" on="1"/>
        <pt x="1661" y="182" on="0"/>
        <pt x="1756" y="182" on="1"/>
        <pt x="1792" y="182" on="0"/>
        <pt x="1848" y="220" on="1"/>
        <pt x="1802" y="534" on="0"/>
        <pt x="1793" y="611" on="1"/>
        <pt x="1776" y="750" on="0"/>
        <pt x="1762" y="954" on="1"/>
        <pt x="1761" y="975" on="0"/>
        <pt x="1725" y="1085" on="0"/>
        <pt x="1725" y="1099" on="1"/>
        <pt x="1725" y="1135" on="0"/>
        <pt x="1757" y="1201" on="1"/>
        <pt x="1791" y="1270" on="0"/>
        <pt x="1822" y="1288" on="1"/>
        <pt x="1866" y="1272" on="0"/>
        <pt x="1860" y="1162" on="1"/>
        <pt x="1886" y="1117" on="0"/>
        <pt x="1950" y="1082" on="1"/>
        <pt x="1952" y="1033" on="0"/>
        <pt x="1879" y="912" on="0"/>
        <pt x="1879" y="883" on="1"/>
        <pt x="1879" y="871" on="0"/>
        <pt x="1951" y="282" on="0"/>
      </contour>
      <contour>
        <pt x="1264" y="612" on="1"/>
        <pt x="1264" y="563" on="0"/>
        <pt x="1222" y="533" on="1"/>
        <pt x="1189" y="510" on="0"/>
        <pt x="1157" y="510" on="1"/>
        <pt x="1113" y="510" on="0"/>
        <pt x="1044" y="561" on="1"/>
        <pt x="1037" y="556" on="0"/>
        <pt x="994" y="518" on="1"/>
        <pt x="962" y="489" on="0"/>
        <pt x="947" y="489" on="1"/>
        <pt x="918" y="489" on="0"/>
        <pt x="824" y="555" on="0"/>
        <pt x="824" y="582" on="1"/>
        <pt x="824" y="605" on="0"/>
        <pt x="895" y="694" on="0"/>
        <pt x="921" y="694" on="1"/>
        <pt x="932" y="694" on="0"/>
        <pt x="1005" y="653" on="0"/>
        <pt x="1018" y="653" on="1"/>
        <pt x="1031" y="653" on="0"/>
        <pt x="1108" y="725" on="0"/>
        <pt x="1121" y="725" on="1"/>
        <pt x="1154" y="725" on="0"/>
        <pt x="1264" y="634" on="0"/>
      </contour>
      <contour>
        <pt x="2666" y="378" on="1"/>
        <pt x="2666" y="415" on="0"/>
        <pt x="2619" y="437" on="1"/>
        <pt x="2601" y="401" on="0"/>
        <pt x="2618" y="367" on="1"/>
      </contour>
    </TTGlyph>
    <TTGlyph name="uniFB52" xMin="271" yMin="-815" xMax="2522" yMax="1703">
      <contour>
        <pt x="2522" y="1702" on="1"/>
        <pt x="2521" y="1665" on="0"/>
        <pt x="2497" y="1612" on="1"/>
        <pt x="2420" y="1557" on="0"/>
        <pt x="2006" y="1325" on="1"/>
        <pt x="1991" y="1336" on="0"/>
        <pt x="1981" y="1336" on="1"/>
        <pt x="1981" y="1400" on="1"/>
        <pt x="1980" y="1443" on="0"/>
        <pt x="2037" y="1474" on="1"/>
        <pt x="2066" y="1489" on="0"/>
        <pt x="2286" y="1614" on="1"/>
        <pt x="2443" y="1703" on="0"/>
        <pt x="2458" y="1702" on="1"/>
      </contour>
      <contour>
        <pt x="1746" y="1263" on="1"/>
        <pt x="1746" y="1245" on="0"/>
        <pt x="1732" y="1225" on="1"/>
        <pt x="1717" y="1202" on="0"/>
        <pt x="1699" y="1202" on="1"/>
        <pt x="1687" y="1202" on="0"/>
        <pt x="1599" y="1253" on="0"/>
        <pt x="1587" y="1253" on="1"/>
        <pt x="1580" y="1253" on="0"/>
        <pt x="1510" y="1198" on="1"/>
        <pt x="1424" y="1130" on="0"/>
        <pt x="1360" y="1094" on="1"/>
        <pt x="1258" y="1038" on="0"/>
        <pt x="1177" y="1038" on="1"/>
        <pt x="1131" y="1038" on="0"/>
        <pt x="1131" y="1079" on="1"/>
        <pt x="1131" y="1104" on="0"/>
        <pt x="1209" y="1143" on="1"/>
        <pt x="1253" y="1163" on="0"/>
        <pt x="1297" y="1183" on="1"/>
        <pt x="1448" y="1287" on="0"/>
        <pt x="1448" y="1315" on="1"/>
        <pt x="1448" y="1328" on="0"/>
        <pt x="1440" y="1336" on="1"/>
        <pt x="1366" y="1368" on="0"/>
        <pt x="1366" y="1432" on="1"/>
        <pt x="1366" y="1479" on="0"/>
        <pt x="1420" y="1547" on="1"/>
        <pt x="1479" y="1621" on="0"/>
        <pt x="1535" y="1621" on="1"/>
        <pt x="1555" y="1621" on="0"/>
        <pt x="1614" y="1585" on="0"/>
        <pt x="1619" y="1566" on="1"/>
        <pt x="1623" y="1547" on="0"/>
        <pt x="1618" y="1484" on="1"/>
        <pt x="1613" y="1428" on="0"/>
        <pt x="1636" y="1380" on="0"/>
        <pt x="1695" y="1333" on="1"/>
        <pt x="1746" y="1293" on="0"/>
      </contour>
      <contour>
        <pt x="988" y="1289" on="1"/>
        <pt x="988" y="1219" on="0"/>
        <pt x="831" y="1149" on="1"/>
        <pt x="699" y="1090" on="0"/>
        <pt x="634" y="1090" on="1"/>
        <pt x="624" y="1090" on="0"/>
        <pt x="579" y="1112" on="1"/>
        <pt x="579" y="1149" on="1"/>
        <pt x="671" y="1185" on="0"/>
        <pt x="753" y="1239" on="1"/>
        <pt x="753" y="1245" on="0"/>
        <pt x="749" y="1255" on="1"/>
        <pt x="722" y="1274" on="0"/>
        <pt x="686" y="1274" on="1"/>
        <pt x="636" y="1274" on="0"/>
        <pt x="585" y="1222" on="1"/>
        <pt x="561" y="1225" on="0"/>
        <pt x="527" y="1237" on="1"/>
        <pt x="551" y="1290" on="0"/>
        <pt x="605" y="1347" on="1"/>
        <pt x="672" y="1417" on="0"/>
        <pt x="726" y="1417" on="1"/>
        <pt x="740" y="1417" on="0"/>
        <pt x="953" y="1341" on="1"/>
        <pt x="988" y="1329" on="0"/>
      </contour>
      <contour>
        <pt x="2493" y="291" on="1"/>
        <pt x="2493" y="117" on="0"/>
        <pt x="2361" y="57" on="1"/>
        <pt x="2274" y="18" on="0"/>
        <pt x="2072" y="18" on="1"/>
        <pt x="2001" y="18" on="1"/>
        <pt x="1824" y="18" on="0"/>
        <pt x="1755" y="-12" on="1"/>
        <pt x="1796" y="-63" on="0"/>
        <pt x="1796" y="-190" on="1"/>
        <pt x="1796" y="-385" on="0"/>
        <pt x="1637" y="-385" on="1"/>
        <pt x="1521" y="-385" on="0"/>
        <pt x="1454" y="-253" on="1"/>
        <pt x="1414" y="-149" on="0"/>
        <pt x="1373" y="-44" on="1"/>
        <pt x="1351" y="5" on="0"/>
        <pt x="1208" y="-4" on="1"/>
        <pt x="1138" y="-8" on="0"/>
        <pt x="913" y="15" on="1"/>
        <pt x="890" y="-51" on="0"/>
        <pt x="868" y="-117" on="1"/>
        <pt x="831" y="-221" on="0"/>
        <pt x="777" y="-221" on="1"/>
        <pt x="666" y="-221" on="0"/>
        <pt x="605" y="70" on="1"/>
        <pt x="603" y="84" on="0"/>
        <pt x="581" y="117" on="1"/>
        <pt x="373" y="97" on="0"/>
        <pt x="373" y="-52" on="1"/>
        <pt x="445" y="-676" on="1"/>
        <pt x="445" y="-757" on="0"/>
        <pt x="400" y="-815" on="1"/>
        <pt x="362" y="-799" on="0"/>
        <pt x="355" y="-759" on="1"/>
        <pt x="331" y="-604" on="0"/>
        <pt x="300" y="-327" on="1"/>
        <pt x="271" y="-78" on="0"/>
        <pt x="271" y="-52" on="1"/>
        <pt x="271" y="115" on="0"/>
        <pt x="427" y="245" on="1"/>
        <pt x="451" y="265" on="0"/>
        <pt x="513" y="275" on="1"/>
        <pt x="586" y="287" on="0"/>
        <pt x="602" y="292" on="1"/>
        <pt x="604" y="293" on="0"/>
        <pt x="631" y="310" on="1"/>
        <pt x="649" y="321" on="0"/>
        <pt x="665" y="321" on="1"/>
        <pt x="673" y="321" on="0"/>
        <pt x="849" y="221" on="0"/>
        <pt x="891" y="211" on="1"/>
        <pt x="1073" y="168" on="0"/>
        <pt x="1146" y="168" on="1"/>
        <pt x="1266" y="168" on="0"/>
        <pt x="1378" y="200" on="1"/>
        <pt x="1392" y="252" on="0"/>
        <pt x="1431" y="319" on="1"/>
        <pt x="1463" y="349" on="0"/>
        <pt x="1517" y="411" on="1"/>
        <pt x="1644" y="598" on="0"/>
        <pt x="1705" y="598" on="1"/>
        <pt x="1759" y="598" on="0"/>
        <pt x="1793" y="503" on="1"/>
        <pt x="1817" y="436" on="0"/>
        <pt x="1817" y="393" on="1"/>
        <pt x="1817" y="349" on="0"/>
        <pt x="1782" y="273" on="1"/>
        <pt x="1758" y="224" on="0"/>
        <pt x="1734" y="175" on="1"/>
        <pt x="1787" y="157" on="0"/>
        <pt x="1827" y="157" on="1"/>
        <pt x="1840" y="157" on="0"/>
        <pt x="2163" y="178" on="0"/>
        <pt x="2175" y="178" on="1"/>
        <pt x="2202" y="178" on="0"/>
        <pt x="2362" y="211" on="1"/>
        <pt x="2367" y="215" on="0"/>
        <pt x="2390" y="235" on="1"/>
        <pt x="2355" y="471" on="0"/>
        <pt x="2274" y="940" on="1"/>
        <pt x="2271" y="956" on="0"/>
        <pt x="2241" y="1031" on="1"/>
        <pt x="2216" y="1094" on="0"/>
        <pt x="2216" y="1125" on="1"/>
        <pt x="2216" y="1153" on="0"/>
        <pt x="2244" y="1228" on="1"/>
        <pt x="2276" y="1312" on="0"/>
        <pt x="2303" y="1325" on="1"/>
        <pt x="2344" y="1319" on="0"/>
        <pt x="2353" y="1261" on="1"/>
        <pt x="2357" y="1220" on="0"/>
        <pt x="2361" y="1180" on="1"/>
        <pt x="2441" y="1121" on="0"/>
        <pt x="2441" y="1094" on="1"/>
        <pt x="2441" y="1081" on="0"/>
        <pt x="2420" y="1027" on="1"/>
        <pt x="2395" y="966" on="0"/>
        <pt x="2390" y="940" on="1"/>
      </contour>
      <contour>
        <pt x="1528" y="1449" on="1"/>
        <pt x="1528" y="1458" on="0"/>
        <pt x="1518" y="1478" on="1"/>
        <pt x="1508" y="1478" on="0"/>
        <pt x="1489" y="1463" on="1"/>
        <pt x="1504" y="1449" on="0"/>
      </contour>
      <contour>
        <pt x="1714" y="360" on="1"/>
        <pt x="1681" y="393" on="0"/>
        <pt x="1664" y="393" on="1"/>
        <pt x="1630" y="393" on="0"/>
        <pt x="1541" y="241" on="1"/>
        <pt x="1587" y="241" on="1"/>
        <pt x="1627" y="261" on="0"/>
        <pt x="1669" y="296" on="1"/>
        <pt x="1719" y="338" on="0"/>
      </contour>
      <contour>
        <pt x="1683" y="-153" on="1"/>
        <pt x="1577" y="-46" on="0"/>
        <pt x="1534" y="-48" on="1"/>
        <pt x="1490" y="-48" on="1"/>
        <pt x="1519" y="-98" on="0"/>
        <pt x="1547" y="-148" on="1"/>
        <pt x="1587" y="-200" on="0"/>
        <pt x="1643" y="-200" on="1"/>
        <pt x="1683" y="-200" on="0"/>
      </contour>
    </TTGlyph>
    <TTGlyph name="uniFB53" xMin="419" yMin="-838" xMax="4658" yMax="1720">
      <contour>
        <pt x="4555" y="1213" on="1"/>
        <pt x="4555" y="1157" on="0"/>
        <pt x="4504" y="1157" on="1"/>
        <pt x="4455" y="1157" on="0"/>
        <pt x="4386" y="1208" on="1"/>
        <pt x="4083" y="952" on="0"/>
        <pt x="3982" y="952" on="1"/>
        <pt x="3968" y="952" on="0"/>
        <pt x="3946" y="963" on="0"/>
        <pt x="3942" y="963" on="1"/>
        <pt x="3942" y="1000" on="1"/>
        <pt x="4044" y="1076" on="0"/>
        <pt x="4259" y="1254" on="1"/>
        <pt x="4250" y="1266" on="0"/>
        <pt x="4192" y="1317" on="1"/>
        <pt x="4146" y="1357" on="0"/>
        <pt x="4146" y="1377" on="1"/>
        <pt x="4146" y="1434" on="0"/>
        <pt x="4282" y="1587" on="0"/>
        <pt x="4341" y="1587" on="1"/>
        <pt x="4369" y="1587" on="0"/>
        <pt x="4425" y="1524" on="0"/>
        <pt x="4429" y="1490" on="1"/>
        <pt x="4436" y="1425" on="0"/>
        <pt x="4425" y="1367" on="1"/>
        <pt x="4429" y="1358" on="0"/>
        <pt x="4496" y="1302" on="1"/>
        <pt x="4555" y="1252" on="0"/>
      </contour>
      <contour>
        <pt x="3696" y="1167" on="1"/>
        <pt x="3696" y="1153" on="0"/>
        <pt x="3684" y="1137" on="0"/>
        <pt x="3684" y="1127" on="1"/>
        <pt x="3680" y="1127" on="0"/>
        <pt x="3664" y="1116" on="0"/>
        <pt x="3649" y="1116" on="1"/>
        <pt x="3639" y="1116" on="0"/>
        <pt x="3540" y="1157" on="0"/>
        <pt x="3526" y="1157" on="1"/>
        <pt x="3516" y="1157" on="0"/>
        <pt x="3509" y="1154" on="1"/>
        <pt x="3430" y="1059" on="0"/>
        <pt x="3277" y="983" on="1"/>
        <pt x="3133" y="911" on="0"/>
        <pt x="3040" y="911" on="1"/>
        <pt x="3013" y="911" on="0"/>
        <pt x="2999" y="924" on="1"/>
        <pt x="2999" y="962" on="0"/>
        <pt x="3036" y="978" on="1"/>
        <pt x="3277" y="1090" on="0"/>
        <pt x="3389" y="1203" on="1"/>
        <pt x="3381" y="1218" on="0"/>
        <pt x="3340" y="1271" on="1"/>
        <pt x="3307" y="1316" on="0"/>
        <pt x="3307" y="1331" on="1"/>
        <pt x="3307" y="1374" on="0"/>
        <pt x="3366" y="1456" on="1"/>
        <pt x="3431" y="1546" on="0"/>
        <pt x="3485" y="1546" on="1"/>
        <pt x="3506" y="1546" on="0"/>
        <pt x="3536" y="1520" on="1"/>
        <pt x="3564" y="1497" on="0"/>
        <pt x="3570" y="1429" on="1"/>
        <pt x="3572" y="1368" on="0"/>
        <pt x="3575" y="1307" on="1"/>
        <pt x="3616" y="1271" on="0"/>
        <pt x="3657" y="1236" on="1"/>
        <pt x="3696" y="1203" on="0"/>
      </contour>
      <contour>
        <pt x="4658" y="235" on="1"/>
        <pt x="4658" y="94" on="0"/>
        <pt x="4570" y="-49" on="1"/>
        <pt x="4465" y="-217" on="0"/>
        <pt x="4286" y="-284" on="1"/>
        <pt x="4223" y="-307" on="0"/>
        <pt x="4095" y="-307" on="1"/>
        <pt x="4064" y="-307" on="0"/>
        <pt x="3959" y="-280" on="1"/>
        <pt x="3828" y="-246" on="0"/>
        <pt x="3808" y="-209" on="1"/>
        <pt x="3834" y="-163" on="0"/>
        <pt x="3865" y="-163" on="1"/>
        <pt x="3877" y="-163" on="0"/>
        <pt x="3903" y="-174" on="0"/>
        <pt x="3928" y="-174" on="0"/>
        <pt x="3990" y="-184" on="0"/>
        <pt x="4002" y="-184" on="1"/>
        <pt x="4055" y="-184" on="0"/>
        <pt x="4170" y="-161" on="1"/>
        <pt x="4277" y="-140" on="0"/>
        <pt x="4545" y="112" on="0"/>
        <pt x="4545" y="189" on="1"/>
        <pt x="4545" y="240" on="0"/>
        <pt x="4508" y="266" on="1"/>
        <pt x="4436" y="317" on="0"/>
        <pt x="4415" y="341" on="1"/>
        <pt x="4415" y="342" on="0"/>
        <pt x="4402" y="359" on="0"/>
        <pt x="4402" y="374" on="1"/>
        <pt x="4402" y="397" on="0"/>
        <pt x="4418" y="437" on="1"/>
        <pt x="4439" y="492" on="0"/>
        <pt x="4468" y="492" on="1"/>
        <pt x="4482" y="492" on="0"/>
        <pt x="4527" y="455" on="1"/>
        <pt x="4564" y="427" on="0"/>
        <pt x="4601" y="398" on="1"/>
        <pt x="4618" y="386" on="0"/>
        <pt x="4640" y="314" on="1"/>
        <pt x="4658" y="251" on="0"/>
      </contour>
      <contour>
        <pt x="2805" y="1357" on="1"/>
        <pt x="2805" y="1344" on="0"/>
        <pt x="2793" y="1307" on="0"/>
        <pt x="2793" y="1291" on="1"/>
        <pt x="2790" y="1291" on="0"/>
        <pt x="2768" y="1280" on="0"/>
        <pt x="2754" y="1280" on="1"/>
        <pt x="2738" y="1280" on="0"/>
        <pt x="2707" y="1303" on="1"/>
        <pt x="2682" y="1322" on="0"/>
        <pt x="2656" y="1341" on="1"/>
        <pt x="2617" y="1305" on="0"/>
        <pt x="2537" y="1232" on="1"/>
        <pt x="2520" y="1217" on="0"/>
        <pt x="2405" y="1157" on="1"/>
        <pt x="2270" y="1085" on="0"/>
        <pt x="2225" y="1085" on="1"/>
        <pt x="2182" y="1085" on="1"/>
        <pt x="2179" y="1095" on="0"/>
        <pt x="2170" y="1110" on="1"/>
        <pt x="2212" y="1165" on="0"/>
        <pt x="2348" y="1243" on="1"/>
        <pt x="2482" y="1319" on="0"/>
        <pt x="2538" y="1397" on="1"/>
        <pt x="2456" y="1444" on="0"/>
        <pt x="2456" y="1510" on="1"/>
        <pt x="2456" y="1553" on="0"/>
        <pt x="2514" y="1632" on="1"/>
        <pt x="2576" y="1720" on="0"/>
        <pt x="2631" y="1720" on="1"/>
        <pt x="2707" y="1720" on="0"/>
        <pt x="2707" y="1597" on="1"/>
        <pt x="2707" y="1573" on="0"/>
        <pt x="2701" y="1497" on="0"/>
        <pt x="2701" y="1488" on="1"/>
        <pt x="2701" y="1475" on="0"/>
        <pt x="2705" y="1470" on="0"/>
        <pt x="2764" y="1413" on="1"/>
        <pt x="2805" y="1375" on="0"/>
      </contour>
      <contour>
        <pt x="2006" y="1193" on="1"/>
        <pt x="2006" y="1178" on="0"/>
        <pt x="1992" y="1153" on="1"/>
        <pt x="1974" y="1120" on="0"/>
        <pt x="1948" y="1116" on="1"/>
        <pt x="1872" y="1167" on="0"/>
        <pt x="1853" y="1167" on="1"/>
        <pt x="1839" y="1167" on="0"/>
        <pt x="1831" y="1159" on="1"/>
        <pt x="1826" y="1146" on="0"/>
        <pt x="1706" y="1052" on="1"/>
        <pt x="1578" y="952" on="0"/>
        <pt x="1549" y="952" on="1"/>
        <pt x="1477" y="952" on="1"/>
        <pt x="1453" y="977" on="1"/>
        <pt x="1472" y="1017" on="0"/>
        <pt x="1580" y="1091" on="1"/>
        <pt x="1699" y="1173" on="0"/>
        <pt x="1730" y="1214" on="1"/>
        <pt x="1726" y="1226" on="0"/>
        <pt x="1704" y="1240" on="1"/>
        <pt x="1674" y="1259" on="0"/>
        <pt x="1670" y="1263" on="1"/>
        <pt x="1637" y="1295" on="0"/>
        <pt x="1637" y="1366" on="1"/>
        <pt x="1637" y="1393" on="0"/>
        <pt x="1680" y="1473" on="1"/>
        <pt x="1729" y="1566" on="0"/>
        <pt x="1771" y="1566" on="1"/>
        <pt x="1850" y="1566" on="0"/>
        <pt x="1878" y="1511" on="1"/>
        <pt x="1894" y="1477" on="0"/>
        <pt x="1896" y="1398" on="1"/>
        <pt x="1889" y="1371" on="0"/>
        <pt x="1895" y="1318" on="1"/>
        <pt x="1905" y="1298" on="0"/>
        <pt x="1960" y="1259" on="1"/>
        <pt x="2006" y="1226" on="0"/>
      </contour>
      <contour>
        <pt x="4002" y="281" on="1"/>
        <pt x="4002" y="206" on="0"/>
        <pt x="3962" y="133" on="1"/>
        <pt x="3916" y="51" on="0"/>
        <pt x="3854" y="51" on="1"/>
        <pt x="3843" y="51" on="0"/>
        <pt x="3709" y="71" on="0"/>
        <pt x="3696" y="71" on="1"/>
        <pt x="3683" y="71" on="0"/>
        <pt x="3651" y="48" on="1"/>
        <pt x="3614" y="19" on="0"/>
        <pt x="3600" y="13" on="1"/>
        <pt x="3520" y="-20" on="0"/>
        <pt x="3455" y="-20" on="1"/>
        <pt x="3442" y="-20" on="0"/>
        <pt x="3416" y="-10" on="0"/>
        <pt x="3393" y="-10" on="0"/>
        <pt x="3284" y="30" on="0"/>
        <pt x="3271" y="30" on="1"/>
        <pt x="3258" y="30" on="0"/>
        <pt x="3220" y="11" on="1"/>
        <pt x="3176" y="-13" on="0"/>
        <pt x="3159" y="-18" on="1"/>
        <pt x="3117" y="-31" on="0"/>
        <pt x="2994" y="-31" on="1"/>
        <pt x="2877" y="-31" on="0"/>
        <pt x="2824" y="-14" on="1"/>
        <pt x="2718" y="19" on="0"/>
        <pt x="2699" y="127" on="1"/>
        <pt x="2696" y="145" on="0"/>
        <pt x="2666" y="174" on="1"/>
        <pt x="2560" y="88" on="0"/>
        <pt x="2340" y="63" on="1"/>
        <pt x="2178" y="49" on="0"/>
        <pt x="2016" y="35" on="1"/>
        <pt x="2078" y="7" on="0"/>
        <pt x="2078" y="-168" on="1"/>
        <pt x="2078" y="-227" on="0"/>
        <pt x="2042" y="-294" on="1"/>
        <pt x="2003" y="-368" on="0"/>
        <pt x="1955" y="-368" on="1"/>
        <pt x="1919" y="-368" on="1"/>
        <pt x="1878" y="-368" on="0"/>
        <pt x="1799" y="-321" on="1"/>
        <pt x="1725" y="-276" on="0"/>
        <pt x="1703" y="-243" on="1"/>
        <pt x="1681" y="-212" on="0"/>
        <pt x="1659" y="-149" on="1"/>
        <pt x="1642" y="-99" on="0"/>
        <pt x="1624" y="-49" on="1"/>
        <pt x="1620" y="-44" on="0"/>
        <pt x="1569" y="-38" on="1"/>
        <pt x="1566" y="-36" on="0"/>
        <pt x="1538" y="21" on="1"/>
        <pt x="1348" y="0" on="0"/>
        <pt x="1243" y="0" on="1"/>
        <pt x="1232" y="0" on="0"/>
        <pt x="1076" y="10" on="0"/>
        <pt x="1065" y="10" on="1"/>
        <pt x="1022" y="10" on="0"/>
        <pt x="992" y="-215" on="0"/>
        <pt x="921" y="-215" on="1"/>
        <pt x="847" y="-215" on="0"/>
        <pt x="786" y="-76" on="1"/>
        <pt x="757" y="3" on="0"/>
        <pt x="729" y="83" on="1"/>
        <pt x="662" y="80" on="0"/>
        <pt x="611" y="54" on="1"/>
        <pt x="584" y="45" on="0"/>
        <pt x="533" y="11" on="1"/>
        <pt x="521" y="0" on="0"/>
        <pt x="521" y="-66" on="1"/>
        <pt x="583" y="-721" on="1"/>
        <pt x="583" y="-752" on="0"/>
        <pt x="539" y="-838" on="1"/>
        <pt x="499" y="-837" on="0"/>
        <pt x="489" y="-803" on="1"/>
        <pt x="486" y="-773" on="0"/>
        <pt x="483" y="-743" on="1"/>
        <pt x="469" y="-579" on="0"/>
        <pt x="432" y="-251" on="1"/>
        <pt x="419" y="-160" on="0"/>
        <pt x="419" y="-107" on="1"/>
        <pt x="419" y="23" on="0"/>
        <pt x="488" y="122" on="1"/>
        <pt x="570" y="240" on="0"/>
        <pt x="720" y="258" on="1"/>
        <pt x="733" y="260" on="0"/>
        <pt x="800" y="338" on="0"/>
        <pt x="813" y="338" on="1"/>
        <pt x="824" y="338" on="0"/>
        <pt x="878" y="291" on="1"/>
        <pt x="938" y="239" on="0"/>
        <pt x="969" y="227" on="1"/>
        <pt x="1020" y="207" on="0"/>
        <pt x="1121" y="189" on="1"/>
        <pt x="1206" y="174" on="0"/>
        <pt x="1234" y="174" on="1"/>
        <pt x="1355" y="174" on="1"/>
        <pt x="1388" y="174" on="0"/>
        <pt x="1471" y="184" on="1"/>
        <pt x="1585" y="197" on="0"/>
        <pt x="1608" y="216" on="1"/>
        <pt x="1611" y="218" on="0"/>
        <pt x="1737" y="439" on="1"/>
        <pt x="1849" y="635" on="0"/>
        <pt x="1919" y="635" on="1"/>
        <pt x="1968" y="635" on="0"/>
        <pt x="2007" y="551" on="1"/>
        <pt x="2037" y="483" on="0"/>
        <pt x="2037" y="440" on="1"/>
        <pt x="2037" y="401" on="0"/>
        <pt x="1995" y="318" on="1"/>
        <pt x="1959" y="246" on="0"/>
        <pt x="1924" y="201" on="1"/>
        <pt x="1955" y="184" on="0"/>
        <pt x="2032" y="184" on="1"/>
        <pt x="2044" y="184" on="0"/>
        <pt x="2085" y="200" on="0"/>
        <pt x="2093" y="201" on="1"/>
        <pt x="2229" y="210" on="0"/>
        <pt x="2366" y="218" on="1"/>
        <pt x="2528" y="235" on="0"/>
        <pt x="2592" y="292" on="1"/>
        <pt x="2592" y="292" on="0"/>
        <pt x="2633" y="315" on="1"/>
        <pt x="2661" y="329" on="0"/>
        <pt x="2661" y="348" on="1"/>
        <pt x="2590" y="1075" on="1"/>
        <pt x="2590" y="1109" on="0"/>
        <pt x="2655" y="1208" on="1"/>
        <pt x="2669" y="1201" on="0"/>
        <pt x="2688" y="1185" on="1"/>
        <pt x="2708" y="1097" on="0"/>
        <pt x="2715" y="968" on="1"/>
        <pt x="2720" y="861" on="0"/>
        <pt x="2725" y="753" on="1"/>
        <pt x="2741" y="634" on="0"/>
        <pt x="2770" y="405" on="1"/>
        <pt x="2774" y="347" on="0"/>
        <pt x="2777" y="289" on="1"/>
        <pt x="2790" y="209" on="0"/>
        <pt x="2895" y="143" on="0"/>
        <pt x="2922" y="143" on="1"/>
        <pt x="3096" y="143" on="1"/>
        <pt x="3173" y="143" on="0"/>
        <pt x="3227" y="175" on="1"/>
        <pt x="3253" y="192" on="0"/>
        <pt x="3286" y="237" on="1"/>
        <pt x="3327" y="293" on="0"/>
        <pt x="3341" y="307" on="1"/>
        <pt x="3377" y="297" on="0"/>
        <pt x="3377" y="243" on="1"/>
        <pt x="3377" y="223" on="0"/>
        <pt x="3367" y="170" on="1"/>
        <pt x="3385" y="153" on="0"/>
        <pt x="3403" y="153" on="1"/>
        <pt x="3467" y="153" on="0"/>
        <pt x="3542" y="176" on="1"/>
        <pt x="3610" y="197" on="0"/>
        <pt x="3620" y="213" on="1"/>
        <pt x="3625" y="219" on="0"/>
        <pt x="3661" y="309" on="1"/>
        <pt x="3688" y="380" on="0"/>
        <pt x="3730" y="410" on="1"/>
        <pt x="3766" y="400" on="0"/>
        <pt x="3766" y="349" on="1"/>
        <pt x="3766" y="333" on="0"/>
        <pt x="3757" y="274" on="0"/>
        <pt x="3757" y="266" on="1"/>
        <pt x="3757" y="251" on="0"/>
        <pt x="3775" y="240" on="0"/>
        <pt x="3784" y="235" on="1"/>
        <pt x="3873" y="235" on="1"/>
        <pt x="3877" y="239" on="0"/>
        <pt x="3883" y="261" on="1"/>
        <pt x="3869" y="295" on="0"/>
        <pt x="3869" y="338" on="1"/>
        <pt x="3869" y="419" on="0"/>
        <pt x="3914" y="481" on="1"/>
        <pt x="3955" y="468" on="0"/>
        <pt x="3983" y="380" on="1"/>
        <pt x="4002" y="316" on="0"/>
      </contour>
      <contour>
        <pt x="1167" y="1147" on="1"/>
        <pt x="1167" y="1083" on="0"/>
        <pt x="1029" y="1022" on="1"/>
        <pt x="915" y="972" on="0"/>
        <pt x="863" y="972" on="1"/>
        <pt x="739" y="972" on="1"/>
        <pt x="733" y="985" on="0"/>
        <pt x="716" y="1008" on="1"/>
        <pt x="752" y="1049" on="0"/>
        <pt x="820" y="1071" on="1"/>
        <pt x="911" y="1100" on="0"/>
        <pt x="931" y="1112" on="1"/>
        <pt x="933" y="1127" on="0"/>
        <pt x="924" y="1133" on="1"/>
        <pt x="915" y="1136" on="0"/>
        <pt x="890" y="1136" on="1"/>
        <pt x="853" y="1136" on="0"/>
        <pt x="838" y="1126" on="1"/>
        <pt x="806" y="1101" on="0"/>
        <pt x="774" y="1076" on="1"/>
        <pt x="738" y="1076" on="1"/>
        <pt x="726" y="1076" on="0"/>
        <pt x="726" y="1100" on="1"/>
        <pt x="726" y="1160" on="0"/>
        <pt x="811" y="1223" on="1"/>
        <pt x="887" y="1280" on="0"/>
        <pt x="936" y="1280" on="1"/>
        <pt x="993" y="1280" on="0"/>
        <pt x="1151" y="1193" on="1"/>
        <pt x="1167" y="1167" on="0"/>
      </contour>
      <contour>
        <pt x="4329" y="1415" on="1"/>
        <pt x="4329" y="1422" on="0"/>
        <pt x="4299" y="1442" on="0"/>
        <pt x="4291" y="1442" on="1"/>
        <pt x="4291" y="1430" on="0"/>
        <pt x="4301" y="1408" on="0"/>
        <pt x="4301" y="1404" on="1"/>
        <pt x="4320" y="1404" on="0"/>
      </contour>
      <contour>
        <pt x="3480" y="1368" on="1"/>
        <pt x="3470" y="1368" on="0"/>
        <pt x="3468" y="1392" on="1"/>
        <pt x="3462" y="1392" on="0"/>
        <pt x="3434" y="1380" on="0"/>
        <pt x="3430" y="1380" on="1"/>
        <pt x="3452" y="1352" on="1"/>
        <pt x="3462" y="1352" on="0"/>
      </contour>
      <contour>
        <pt x="2629" y="1527" on="1"/>
        <pt x="2629" y="1552" on="0"/>
        <pt x="2605" y="1576" on="1"/>
        <pt x="2579" y="1551" on="1"/>
        <pt x="2603" y="1527" on="0"/>
      </contour>
      <contour>
        <pt x="1801" y="1378" on="1"/>
        <pt x="1784" y="1412" on="0"/>
        <pt x="1763" y="1412" on="1"/>
        <pt x="1747" y="1389" on="0"/>
        <pt x="1763" y="1372" on="1"/>
        <pt x="1801" y="1372" on="0"/>
      </contour>
      <contour>
        <pt x="1914" y="383" on="1"/>
        <pt x="1914" y="422" on="0"/>
        <pt x="1877" y="440" on="1"/>
        <pt x="1820" y="383" on="0"/>
        <pt x="1771" y="314" on="1"/>
        <pt x="1771" y="278" on="1"/>
        <pt x="1817" y="280" on="0"/>
        <pt x="1867" y="319" on="1"/>
        <pt x="1914" y="357" on="0"/>
      </contour>
      <contour>
        <pt x="1953" y="-163" on="1"/>
        <pt x="1953" y="-115" on="1"/>
        <pt x="1830" y="-40" on="0"/>
        <pt x="1795" y="-41" on="1"/>
        <pt x="1762" y="-41" on="1"/>
        <pt x="1760" y="-47" on="0"/>
        <pt x="1760" y="-54" on="1"/>
        <pt x="1760" y="-91" on="0"/>
        <pt x="1821" y="-135" on="1"/>
        <pt x="1874" y="-174" on="0"/>
        <pt x="1898" y="-174" on="1"/>
        <pt x="1913" y="-174" on="0"/>
        <pt x="1951" y="-163" on="0"/>
      </contour>
    </TTGlyph>
    <TTGlyph name="uniFB54" xMin="273" yMin="-589" xMax="1584" yMax="1119">
      <contour>
        <pt x="1389" y="199" on="1"/>
        <pt x="1389" y="158" on="0"/>
        <pt x="1367" y="46" on="1"/>
        <pt x="1364" y="46" on="0"/>
        <pt x="1326" y="36" on="0"/>
        <pt x="1309" y="36" on="1"/>
        <pt x="1174" y="945" on="1"/>
        <pt x="1171" y="1065" on="0"/>
        <pt x="1228" y="1119" on="1"/>
        <pt x="1265" y="1119" on="1"/>
      </contour>
      <contour>
        <pt x="672" y="736" on="1"/>
        <pt x="672" y="697" on="0"/>
        <pt x="607" y="628" on="0"/>
        <pt x="575" y="628" on="1"/>
        <pt x="569" y="628" on="0"/>
        <pt x="468" y="691" on="1"/>
        <pt x="466" y="721" on="0"/>
        <pt x="493" y="777" on="1"/>
        <pt x="524" y="844" on="0"/>
        <pt x="565" y="844" on="1"/>
        <pt x="600" y="844" on="0"/>
        <pt x="638" y="801" on="1"/>
        <pt x="672" y="762" on="0"/>
      </contour>
      <contour>
        <pt x="1471" y="-216" on="1"/>
        <pt x="1471" y="-266" on="0"/>
        <pt x="1405" y="-286" on="1"/>
        <pt x="1360" y="-296" on="0"/>
        <pt x="1314" y="-306" on="1"/>
        <pt x="1256" y="-325" on="0"/>
        <pt x="1136" y="-364" on="1"/>
        <pt x="1130" y="-357" on="0"/>
        <pt x="1115" y="-340" on="1"/>
        <pt x="1115" y="-336" on="0"/>
        <pt x="1125" y="-298" on="0"/>
        <pt x="1126" y="-288" on="1"/>
        <pt x="1122" y="-279" on="0"/>
        <pt x="1099" y="-242" on="1"/>
        <pt x="1082" y="-215" on="0"/>
        <pt x="1082" y="-200" on="1"/>
        <pt x="1082" y="-153" on="0"/>
        <pt x="1231" y="-6" on="0"/>
        <pt x="1281" y="-6" on="1"/>
        <pt x="1301" y="-6" on="0"/>
        <pt x="1368" y="-73" on="0"/>
        <pt x="1368" y="-93" on="1"/>
        <pt x="1368" y="-129" on="0"/>
        <pt x="1335" y="-148" on="1"/>
        <pt x="1300" y="-162" on="0"/>
        <pt x="1266" y="-176" on="1"/>
        <pt x="1281" y="-190" on="0"/>
        <pt x="1313" y="-190" on="1"/>
        <pt x="1325" y="-190" on="0"/>
        <pt x="1386" y="-170" on="0"/>
        <pt x="1399" y="-170" on="1"/>
        <pt x="1410" y="-170" on="0"/>
        <pt x="1448" y="-181" on="0"/>
        <pt x="1458" y="-181" on="1"/>
        <pt x="1459" y="-181" on="0"/>
        <pt x="1460" y="-183" on="1"/>
        <pt x="1471" y="-193" on="0"/>
      </contour>
      <contour>
        <pt x="1584" y="-369" on="1"/>
        <pt x="1584" y="-386" on="0"/>
        <pt x="1555" y="-437" on="0"/>
        <pt x="1539" y="-443" on="1"/>
        <pt x="1181" y="-589" on="0"/>
        <pt x="1159" y="-589" on="1"/>
        <pt x="1144" y="-589" on="0"/>
        <pt x="1117" y="-578" on="0"/>
        <pt x="1113" y="-578" on="1"/>
        <pt x="1113" y="-544" on="1"/>
        <pt x="1113" y="-500" on="0"/>
        <pt x="1295" y="-426" on="1"/>
        <pt x="1422" y="-380" on="0"/>
        <pt x="1548" y="-334" on="1"/>
        <pt x="1559" y="-339" on="0"/>
        <pt x="1570" y="-346" on="1"/>
        <pt x="1584" y="-353" on="0"/>
      </contour>
      <contour>
        <pt x="1051" y="214" on="1"/>
        <pt x="1051" y="53" on="0"/>
        <pt x="1016" y="-4" on="1"/>
        <pt x="965" y="-85" on="0"/>
        <pt x="825" y="-145" on="1"/>
        <pt x="696" y="-200" on="0"/>
        <pt x="590" y="-200" on="1"/>
        <pt x="513" y="-200" on="0"/>
        <pt x="418" y="-156" on="1"/>
        <pt x="302" y="-102" on="0"/>
        <pt x="286" y="-22" on="1"/>
        <pt x="273" y="44" on="0"/>
        <pt x="273" y="106" on="1"/>
        <pt x="273" y="164" on="0"/>
        <pt x="325" y="263" on="1"/>
        <pt x="384" y="374" on="0"/>
        <pt x="443" y="383" on="1"/>
        <pt x="457" y="369" on="0"/>
        <pt x="457" y="337" on="1"/>
        <pt x="457" y="325" on="0"/>
        <pt x="396" y="159" on="0"/>
        <pt x="396" y="147" on="1"/>
        <pt x="396" y="-16" on="0"/>
        <pt x="631" y="-16" on="1"/>
        <pt x="704" y="-16" on="0"/>
        <pt x="802" y="18" on="1"/>
        <pt x="905" y="55" on="0"/>
        <pt x="950" y="102" on="1"/>
        <pt x="963" y="179" on="0"/>
        <pt x="925" y="274" on="1"/>
        <pt x="914" y="301" on="0"/>
        <pt x="865" y="392" on="1"/>
        <pt x="826" y="466" on="0"/>
        <pt x="826" y="480" on="1"/>
        <pt x="826" y="510" on="0"/>
        <pt x="842" y="545" on="1"/>
        <pt x="860" y="587" on="0"/>
        <pt x="887" y="587" on="1"/>
        <pt x="946" y="587" on="0"/>
        <pt x="1004" y="413" on="1"/>
        <pt x="1051" y="270" on="0"/>
      </contour>
    </TTGlyph>
    <TTGlyph name="uniFB55" xMin="302" yMin="-417" xMax="2340" yMax="1946">
      <contour>
        <pt x="2258" y="1922" on="1"/>
        <pt x="2258" y="1874" on="0"/>
        <pt x="2215" y="1838" on="1"/>
        <pt x="2192" y="1819" on="0"/>
        <pt x="2135" y="1793" on="1"/>
        <pt x="2060" y="1760" on="0"/>
        <pt x="2040" y="1750" on="1"/>
        <pt x="1827" y="1632" on="0"/>
        <pt x="1668" y="1579" on="1"/>
        <pt x="1654" y="1593" on="0"/>
        <pt x="1654" y="1615" on="1"/>
        <pt x="1654" y="1679" on="0"/>
        <pt x="1813" y="1759" on="1"/>
        <pt x="1894" y="1792" on="0"/>
        <pt x="1974" y="1826" on="1"/>
        <pt x="2059" y="1876" on="0"/>
        <pt x="2211" y="1946" on="1"/>
        <pt x="2246" y="1946" on="1"/>
        <pt x="2258" y="1946" on="0"/>
      </contour>
      <contour>
        <pt x="2186" y="1548" on="1"/>
        <pt x="2186" y="1477" on="0"/>
        <pt x="2140" y="1407" on="1"/>
        <pt x="2116" y="1369" on="0"/>
        <pt x="2071" y="1346" on="1"/>
        <pt x="2044" y="1347" on="0"/>
        <pt x="1990" y="1330" on="1"/>
        <pt x="1932" y="1292" on="0"/>
        <pt x="1895" y="1292" on="1"/>
        <pt x="1818" y="1292" on="0"/>
        <pt x="1818" y="1389" on="1"/>
        <pt x="1818" y="1430" on="0"/>
        <pt x="1861" y="1516" on="1"/>
        <pt x="1866" y="1516" on="0"/>
        <pt x="1904" y="1506" on="0"/>
        <pt x="1908" y="1506" on="1"/>
        <pt x="1906" y="1463" on="0"/>
        <pt x="1917" y="1434" on="1"/>
        <pt x="1944" y="1435" on="0"/>
        <pt x="1958" y="1475" on="1"/>
        <pt x="1977" y="1536" on="0"/>
        <pt x="2005" y="1568" on="1"/>
        <pt x="2010" y="1568" on="0"/>
        <pt x="2036" y="1556" on="0"/>
        <pt x="2041" y="1556" on="1"/>
        <pt x="2041" y="1505" on="0"/>
        <pt x="2059" y="1486" on="1"/>
        <pt x="2089" y="1502" on="0"/>
        <pt x="2107" y="1542" on="1"/>
        <pt x="2128" y="1588" on="0"/>
        <pt x="2139" y="1599" on="1"/>
        <pt x="2186" y="1570" on="0"/>
      </contour>
      <contour>
        <pt x="2135" y="1103" on="1"/>
        <pt x="2135" y="1080" on="0"/>
        <pt x="2106" y="1039" on="1"/>
        <pt x="2074" y="995" on="0"/>
        <pt x="2048" y="995" on="1"/>
        <pt x="2008" y="995" on="0"/>
        <pt x="1962" y="1041" on="1"/>
        <pt x="1920" y="1084" on="0"/>
        <pt x="1920" y="1108" on="1"/>
        <pt x="1920" y="1132" on="0"/>
        <pt x="1964" y="1172" on="1"/>
        <pt x="2006" y="1210" on="0"/>
        <pt x="2022" y="1210" on="1"/>
        <pt x="2059" y="1210" on="0"/>
        <pt x="2100" y="1162" on="1"/>
        <pt x="2135" y="1121" on="0"/>
      </contour>
      <contour>
        <pt x="1623" y="1026" on="1"/>
        <pt x="1623" y="990" on="0"/>
        <pt x="1590" y="967" on="1"/>
        <pt x="1460" y="882" on="0"/>
        <pt x="1414" y="882" on="1"/>
        <pt x="1332" y="882" on="1"/>
        <pt x="1295" y="882" on="0"/>
        <pt x="1245" y="916" on="1"/>
        <pt x="1243" y="940" on="0"/>
        <pt x="1297" y="963" on="1"/>
        <pt x="1369" y="994" on="0"/>
        <pt x="1387" y="1011" on="1"/>
        <pt x="1373" y="1026" on="0"/>
        <pt x="1352" y="1026" on="1"/>
        <pt x="1340" y="1026" on="0"/>
        <pt x="1290" y="1004" on="1"/>
        <pt x="1234" y="979" on="0"/>
        <pt x="1217" y="975" on="1"/>
        <pt x="1203" y="989" on="0"/>
        <pt x="1203" y="1005" on="1"/>
        <pt x="1203" y="1048" on="0"/>
        <pt x="1276" y="1099" on="1"/>
        <pt x="1345" y="1149" on="0"/>
        <pt x="1387" y="1149" on="1"/>
        <pt x="1445" y="1149" on="0"/>
        <pt x="1527" y="1113" on="1"/>
        <pt x="1623" y="1073" on="0"/>
      </contour>
      <contour>
        <pt x="968" y="1312" on="1"/>
        <pt x="968" y="1298" on="0"/>
        <pt x="945" y="1252" on="1"/>
        <pt x="893" y="1252" on="1"/>
        <pt x="880" y="1251" on="0"/>
        <pt x="791" y="1323" on="0"/>
        <pt x="779" y="1323" on="1"/>
        <pt x="526" y="1108" on="0"/>
        <pt x="449" y="1108" on="1"/>
        <pt x="387" y="1108" on="1"/>
        <pt x="364" y="1131" on="0"/>
        <pt x="364" y="1156" on="1"/>
        <pt x="389" y="1175" on="0"/>
        <pt x="510" y="1248" on="1"/>
        <pt x="603" y="1305" on="0"/>
        <pt x="661" y="1369" on="1"/>
        <pt x="641" y="1394" on="0"/>
        <pt x="594" y="1423" on="1"/>
        <pt x="568" y="1439" on="0"/>
        <pt x="568" y="1481" on="1"/>
        <pt x="568" y="1556" on="0"/>
        <pt x="624" y="1624" on="1"/>
        <pt x="688" y="1705" on="0"/>
        <pt x="780" y="1701" on="1"/>
        <pt x="841" y="1652" on="0"/>
        <pt x="834" y="1552" on="1"/>
        <pt x="834" y="1549" on="0"/>
        <pt x="824" y="1507" on="1"/>
        <pt x="817" y="1479" on="0"/>
        <pt x="826" y="1464" on="1"/>
        <pt x="838" y="1444" on="0"/>
        <pt x="911" y="1397" on="1"/>
        <pt x="968" y="1358" on="0"/>
      </contour>
      <contour>
        <pt x="2339" y="231" on="1"/>
        <pt x="2340" y="215" on="0"/>
        <pt x="2284" y="149" on="1"/>
        <pt x="2267" y="135" on="0"/>
        <pt x="2207" y="135" on="1"/>
        <pt x="2194" y="135" on="0"/>
        <pt x="1994" y="165" on="0"/>
        <pt x="1981" y="165" on="1"/>
        <pt x="1933" y="165" on="0"/>
        <pt x="1609" y="66" on="1"/>
        <pt x="1470" y="23" on="0"/>
        <pt x="1210" y="-1" on="1"/>
        <pt x="1182" y="-15" on="0"/>
        <pt x="1174" y="-63" on="1"/>
        <pt x="1171" y="-95" on="0"/>
        <pt x="1169" y="-126" on="1"/>
        <pt x="1133" y="-268" on="0"/>
        <pt x="975" y="-339" on="1"/>
        <pt x="858" y="-393" on="0"/>
        <pt x="707" y="-397" on="1"/>
        <pt x="698" y="-397" on="0"/>
        <pt x="653" y="-417" on="0"/>
        <pt x="640" y="-417" on="1"/>
        <pt x="612" y="-417" on="0"/>
        <pt x="434" y="-371" on="0"/>
        <pt x="368" y="-282" on="1"/>
        <pt x="302" y="-195" on="0"/>
        <pt x="302" y="-110" on="1"/>
        <pt x="302" y="-60" on="0"/>
        <pt x="340" y="28" on="1"/>
        <pt x="381" y="125" on="0"/>
        <pt x="429" y="165" on="1"/>
        <pt x="474" y="165" on="1"/>
        <pt x="486" y="164" on="0"/>
        <pt x="486" y="140" on="1"/>
        <pt x="486" y="129" on="0"/>
        <pt x="425" y="-7" on="0"/>
        <pt x="425" y="-18" on="1"/>
        <pt x="425" y="-136" on="0"/>
        <pt x="522" y="-192" on="1"/>
        <pt x="593" y="-233" on="0"/>
        <pt x="691" y="-233" on="1"/>
        <pt x="778" y="-233" on="0"/>
        <pt x="898" y="-200" on="1"/>
        <pt x="1070" y="-154" on="0"/>
        <pt x="1070" y="-74" on="1"/>
        <pt x="1070" y="9" on="0"/>
        <pt x="1026" y="86" on="1"/>
        <pt x="1002" y="125" on="0"/>
        <pt x="978" y="162" on="1"/>
        <pt x="957" y="194" on="0"/>
        <pt x="957" y="227" on="1"/>
        <pt x="957" y="277" on="0"/>
        <pt x="1012" y="350" on="1"/>
        <pt x="1047" y="345" on="0"/>
        <pt x="1078" y="294" on="1"/>
        <pt x="1119" y="228" on="0"/>
        <pt x="1133" y="215" on="1"/>
        <pt x="1176" y="179" on="0"/>
        <pt x="1218" y="170" on="1"/>
        <pt x="1240" y="165" on="0"/>
        <pt x="1311" y="165" on="1"/>
        <pt x="1365" y="165" on="0"/>
        <pt x="1561" y="206" on="0"/>
        <pt x="1592" y="224" on="1"/>
        <pt x="1595" y="228" on="0"/>
        <pt x="1585" y="234" on="1"/>
        <pt x="1467" y="279" on="0"/>
        <pt x="1428" y="279" on="1"/>
        <pt x="1425" y="279" on="0"/>
        <pt x="1374" y="270" on="1"/>
        <pt x="1333" y="263" on="0"/>
        <pt x="1308" y="269" on="1"/>
        <pt x="1296" y="282" on="0"/>
        <pt x="1296" y="299" on="1"/>
        <pt x="1296" y="318" on="0"/>
        <pt x="1347" y="378" on="1"/>
        <pt x="1402" y="440" on="0"/>
        <pt x="1442" y="458" on="1"/>
        <pt x="1493" y="483" on="0"/>
        <pt x="1761" y="560" on="0"/>
        <pt x="1821" y="587" on="1"/>
        <pt x="1922" y="635" on="0"/>
        <pt x="2030" y="768" on="1"/>
        <pt x="2124" y="882" on="0"/>
        <pt x="2150" y="882" on="1"/>
        <pt x="2213" y="882" on="0"/>
        <pt x="2252" y="777" on="1"/>
        <pt x="2279" y="702" on="0"/>
        <pt x="2279" y="652" on="1"/>
        <pt x="2279" y="591" on="0"/>
        <pt x="2234" y="524" on="1"/>
        <pt x="2198" y="526" on="0"/>
        <pt x="2178" y="587" on="1"/>
        <pt x="2150" y="668" on="0"/>
        <pt x="2120" y="698" on="1"/>
        <pt x="2058" y="623" on="0"/>
        <pt x="1925" y="484" on="1"/>
        <pt x="1919" y="479" on="0"/>
        <pt x="1776" y="393" on="1"/>
        <pt x="1776" y="386" on="0"/>
        <pt x="1794" y="373" on="1"/>
        <pt x="1966" y="342" on="0"/>
        <pt x="2339" y="266" on="1"/>
      </contour>
      <contour>
        <pt x="784" y="565" on="1"/>
        <pt x="784" y="537" on="0"/>
        <pt x="713" y="452" on="0"/>
        <pt x="686" y="452" on="1"/>
        <pt x="667" y="452" on="0"/>
        <pt x="568" y="531" on="0"/>
        <pt x="568" y="550" on="1"/>
        <pt x="568" y="580" on="0"/>
        <pt x="649" y="668" on="0"/>
        <pt x="676" y="668" on="1"/>
        <pt x="708" y="668" on="0"/>
        <pt x="748" y="622" on="1"/>
        <pt x="784" y="581" on="0"/>
      </contour>
      <contour>
        <pt x="728" y="1509" on="1"/>
        <pt x="739" y="1538" on="0"/>
        <pt x="722" y="1556" on="1"/>
        <pt x="705" y="1556" on="1"/>
        <pt x="690" y="1529" on="0"/>
        <pt x="716" y="1509" on="1"/>
      </contour>
    </TTGlyph>
    <TTGlyph name="uniFB56" xMin="161" yMin="-499" xMax="1727" yMax="1937">
      <contour>
        <pt x="1225" y="1886" on="1"/>
        <pt x="1225" y="1840" on="0"/>
        <pt x="1182" y="1817" on="1"/>
        <pt x="745" y="1589" on="0"/>
        <pt x="717" y="1589" on="1"/>
        <pt x="666" y="1589" on="1"/>
        <pt x="653" y="1602" on="0"/>
        <pt x="653" y="1624" on="1"/>
        <pt x="653" y="1683" on="0"/>
        <pt x="716" y="1718" on="1"/>
        <pt x="829" y="1779" on="0"/>
        <pt x="1165" y="1937" on="0"/>
        <pt x="1184" y="1937" on="1"/>
        <pt x="1225" y="1937" on="0"/>
      </contour>
      <contour>
        <pt x="1184" y="1543" on="1"/>
        <pt x="1184" y="1476" on="0"/>
        <pt x="1143" y="1411" on="1"/>
        <pt x="1096" y="1333" on="0"/>
        <pt x="1026" y="1333" on="1"/>
        <pt x="1013" y="1333" on="0"/>
        <pt x="1013" y="1338" on="1"/>
        <pt x="1013" y="1338" on="1"/>
        <pt x="1013" y="1343" on="0"/>
        <pt x="1000" y="1343" on="1"/>
        <pt x="990" y="1343" on="0"/>
        <pt x="915" y="1292" on="0"/>
        <pt x="897" y="1292" on="1"/>
        <pt x="816" y="1292" on="0"/>
        <pt x="816" y="1379" on="1"/>
        <pt x="816" y="1431" on="0"/>
        <pt x="870" y="1496" on="1"/>
        <pt x="906" y="1496" on="1"/>
        <pt x="911" y="1476" on="0"/>
        <pt x="924" y="1435" on="1"/>
        <pt x="929" y="1438" on="0"/>
        <pt x="1003" y="1537" on="1"/>
        <pt x="1034" y="1537" on="0"/>
        <pt x="1068" y="1476" on="1"/>
        <pt x="1092" y="1500" on="0"/>
        <pt x="1136" y="1588" on="1"/>
        <pt x="1173" y="1588" on="1"/>
        <pt x="1173" y="1584" on="0"/>
        <pt x="1184" y="1557" on="0"/>
      </contour>
      <contour>
        <pt x="1625" y="258" on="1"/>
        <pt x="1625" y="227" on="0"/>
        <pt x="1602" y="164" on="1"/>
        <pt x="1581" y="109" on="0"/>
        <pt x="1571" y="95" on="1"/>
        <pt x="1534" y="95" on="1"/>
        <pt x="1420" y="1046" on="1"/>
        <pt x="1420" y="1078" on="0"/>
        <pt x="1455" y="1140" on="1"/>
        <pt x="1475" y="1175" on="0"/>
        <pt x="1495" y="1210" on="1"/>
        <pt x="1509" y="1198" on="0"/>
        <pt x="1528" y="1176" on="1"/>
        <pt x="1625" y="411" on="0"/>
      </contour>
      <contour>
        <pt x="1645" y="-125" on="1"/>
        <pt x="1636" y="-152" on="0"/>
        <pt x="1601" y="-189" on="1"/>
        <pt x="1381" y="-284" on="0"/>
        <pt x="1363" y="-283" on="1"/>
        <pt x="1278" y="-283" on="1"/>
        <pt x="1310" y="-231" on="0"/>
        <pt x="1310" y="-204" on="1"/>
        <pt x="1310" y="-190" on="0"/>
        <pt x="1277" y="-144" on="0"/>
        <pt x="1277" y="-115" on="1"/>
        <pt x="1277" y="-72" on="0"/>
        <pt x="1406" y="74" on="0"/>
        <pt x="1450" y="74" on="1"/>
        <pt x="1482" y="74" on="0"/>
        <pt x="1532" y="13" on="0"/>
        <pt x="1532" y="-18" on="1"/>
        <pt x="1532" y="-58" on="0"/>
        <pt x="1507" y="-71" on="1"/>
        <pt x="1479" y="-82" on="0"/>
        <pt x="1450" y="-94" on="1"/>
        <pt x="1482" y="-100" on="0"/>
        <pt x="1622" y="-100" on="1"/>
      </contour>
      <contour>
        <pt x="1194" y="989" on="1"/>
        <pt x="1195" y="975" on="0"/>
        <pt x="1105" y="886" on="1"/>
        <pt x="1081" y="737" on="0"/>
        <pt x="1027" y="436" on="1"/>
        <pt x="1024" y="420" on="0"/>
        <pt x="1001" y="374" on="1"/>
        <pt x="979" y="331" on="0"/>
        <pt x="979" y="319" on="1"/>
        <pt x="979" y="306" on="0"/>
        <pt x="1041" y="81" on="0"/>
        <pt x="1041" y="69" on="1"/>
        <pt x="1041" y="11" on="0"/>
        <pt x="1039" y="5" on="1"/>
        <pt x="1031" y="-19" on="0"/>
        <pt x="987" y="-36" on="1"/>
        <pt x="897" y="-69" on="0"/>
        <pt x="642" y="-69" on="1"/>
        <pt x="499" y="-69" on="0"/>
        <pt x="499" y="17" on="1"/>
        <pt x="499" y="49" on="0"/>
        <pt x="514" y="88" on="1"/>
        <pt x="533" y="135" on="0"/>
        <pt x="560" y="135" on="1"/>
        <pt x="571" y="135" on="0"/>
        <pt x="625" y="115" on="0"/>
        <pt x="637" y="115" on="1"/>
        <pt x="671" y="115" on="0"/>
        <pt x="816" y="259" on="0"/>
        <pt x="816" y="288" on="1"/>
        <pt x="816" y="302" on="0"/>
        <pt x="780" y="351" on="1"/>
        <pt x="730" y="419" on="0"/>
        <pt x="727" y="424" on="1"/>
        <pt x="683" y="495" on="0"/>
        <pt x="586" y="623" on="1"/>
        <pt x="444" y="811" on="0"/>
        <pt x="401" y="811" on="1"/>
        <pt x="390" y="811" on="0"/>
        <pt x="310" y="800" on="0"/>
        <pt x="299" y="800" on="1"/>
        <pt x="283" y="800" on="0"/>
        <pt x="235" y="835" on="1"/>
        <pt x="209" y="852" on="0"/>
        <pt x="161" y="947" on="0"/>
        <pt x="161" y="980" on="1"/>
        <pt x="161" y="1118" on="0"/>
        <pt x="222" y="1118" on="1"/>
        <pt x="240" y="1118" on="0"/>
        <pt x="371" y="1045" on="0"/>
        <pt x="415" y="1011" on="1"/>
        <pt x="562" y="895" on="0"/>
        <pt x="798" y="532" on="1"/>
        <pt x="805" y="521" on="0"/>
        <pt x="893" y="432" on="1"/>
        <pt x="899" y="430" on="0"/>
        <pt x="905" y="440" on="1"/>
        <pt x="942" y="515" on="0"/>
        <pt x="965" y="677" on="1"/>
        <pt x="981" y="809" on="0"/>
        <pt x="997" y="940" on="1"/>
        <pt x="998" y="954" on="0"/>
        <pt x="970" y="1039" on="0"/>
        <pt x="970" y="1058" on="1"/>
        <pt x="970" y="1067" on="0"/>
        <pt x="972" y="1073" on="1"/>
        <pt x="998" y="1157" on="0"/>
        <pt x="1074" y="1271" on="1"/>
        <pt x="1111" y="1271" on="1"/>
        <pt x="1113" y="1264" on="0"/>
        <pt x="1113" y="1128" on="1"/>
        <pt x="1113" y="1058" on="0"/>
        <pt x="1194" y="1034" on="1"/>
      </contour>
      <contour>
        <pt x="1727" y="-274" on="1"/>
        <pt x="1727" y="-292" on="0"/>
        <pt x="1676" y="-355" on="0"/>
        <pt x="1652" y="-363" on="1"/>
        <pt x="1614" y="-376" on="0"/>
        <pt x="1440" y="-446" on="1"/>
        <pt x="1305" y="-499" on="0"/>
        <pt x="1291" y="-498" on="1"/>
        <pt x="1247" y="-498" on="1"/>
        <pt x="1247" y="-494" on="0"/>
        <pt x="1236" y="-473" on="0"/>
        <pt x="1236" y="-458" on="1"/>
        <pt x="1236" y="-395" on="0"/>
        <pt x="1444" y="-317" on="1"/>
        <pt x="1573" y="-275" on="0"/>
        <pt x="1703" y="-233" on="1"/>
        <pt x="1727" y="-258" on="0"/>
      </contour>
      <contour>
        <pt x="902" y="171" on="1"/>
        <pt x="887" y="177" on="1"/>
        <pt x="869" y="140" on="1"/>
        <pt x="883" y="134" on="1"/>
      </contour>
    </TTGlyph>
    <TTGlyph name="uniFB57" xMin="79" yMin="-346" xMax="2854" yMax="1752">
      <contour>
        <pt x="2741" y="1706" on="1"/>
        <pt x="2741" y="1665" on="0"/>
        <pt x="2725" y="1652" on="1"/>
        <pt x="2671" y="1623" on="0"/>
        <pt x="2564" y="1565" on="1"/>
        <pt x="2369" y="1457" on="0"/>
        <pt x="2190" y="1375" on="1"/>
        <pt x="2190" y="1378" on="0"/>
        <pt x="2178" y="1395" on="0"/>
        <pt x="2178" y="1410" on="1"/>
        <pt x="2178" y="1436" on="0"/>
        <pt x="2250" y="1528" on="0"/>
        <pt x="2283" y="1543" on="1"/>
        <pt x="2362" y="1580" on="0"/>
        <pt x="2508" y="1652" on="1"/>
        <pt x="2570" y="1687" on="0"/>
        <pt x="2694" y="1752" on="1"/>
        <pt x="2727" y="1752" on="1"/>
        <pt x="2741" y="1739" on="0"/>
      </contour>
      <contour>
        <pt x="2066" y="1681" on="1"/>
        <pt x="2066" y="1627" on="0"/>
        <pt x="2043" y="1613" on="1"/>
        <pt x="1507" y="1282" on="0"/>
        <pt x="1475" y="1282" on="1"/>
        <pt x="1423" y="1282" on="1"/>
        <pt x="1410" y="1295" on="0"/>
        <pt x="1410" y="1312" on="1"/>
        <pt x="1410" y="1376" on="0"/>
        <pt x="1445" y="1400" on="1"/>
        <pt x="1691" y="1564" on="0"/>
        <pt x="2007" y="1722" on="1"/>
        <pt x="2052" y="1722" on="1"/>
        <pt x="2066" y="1708" on="0"/>
      </contour>
      <contour>
        <pt x="1912" y="939" on="1"/>
        <pt x="1912" y="902" on="0"/>
        <pt x="1844" y="831" on="0"/>
        <pt x="1814" y="831" on="1"/>
        <pt x="1789" y="831" on="0"/>
        <pt x="1717" y="905" on="0"/>
        <pt x="1717" y="928" on="1"/>
        <pt x="1717" y="960" on="0"/>
        <pt x="1750" y="1002" on="1"/>
        <pt x="1786" y="1046" on="0"/>
        <pt x="1820" y="1046" on="1"/>
        <pt x="1829" y="1046" on="0"/>
        <pt x="1907" y="969" on="1"/>
        <pt x="1912" y="961" on="0"/>
      </contour>
      <contour>
        <pt x="2066" y="770" on="1"/>
        <pt x="2066" y="745" on="0"/>
        <pt x="1980" y="657" on="0"/>
        <pt x="1963" y="657" on="1"/>
        <pt x="1919" y="657" on="0"/>
        <pt x="1865" y="709" on="1"/>
        <pt x="1862" y="707" on="0"/>
        <pt x="1813" y="665" on="1"/>
        <pt x="1780" y="637" on="0"/>
        <pt x="1763" y="637" on="1"/>
        <pt x="1738" y="637" on="0"/>
        <pt x="1699" y="663" on="1"/>
        <pt x="1656" y="692" on="0"/>
        <pt x="1656" y="723" on="1"/>
        <pt x="1656" y="764" on="0"/>
        <pt x="1699" y="800" on="1"/>
        <pt x="1737" y="831" on="0"/>
        <pt x="1763" y="831" on="1"/>
        <pt x="1777" y="831" on="0"/>
        <pt x="1827" y="800" on="0"/>
        <pt x="1840" y="800" on="1"/>
        <pt x="1851" y="800" on="0"/>
        <pt x="1934" y="872" on="0"/>
        <pt x="1948" y="872" on="1"/>
        <pt x="1967" y="872" on="0"/>
        <pt x="2066" y="789" on="0"/>
      </contour>
      <contour>
        <pt x="2854" y="-217" on="1"/>
        <pt x="2854" y="-257" on="0"/>
        <pt x="2809" y="-294" on="1"/>
        <pt x="2772" y="-326" on="0"/>
        <pt x="2751" y="-326" on="1"/>
        <pt x="2720" y="-326" on="0"/>
        <pt x="2678" y="-280" on="1"/>
        <pt x="2638" y="-240" on="0"/>
        <pt x="2638" y="-223" on="1"/>
        <pt x="2638" y="-206" on="0"/>
        <pt x="2723" y="-121" on="0"/>
        <pt x="2741" y="-121" on="1"/>
        <pt x="2770" y="-121" on="0"/>
        <pt x="2854" y="-194" on="0"/>
      </contour>
      <contour>
        <pt x="1144" y="1297" on="1"/>
        <pt x="1144" y="1251" on="0"/>
        <pt x="1097" y="1251" on="1"/>
        <pt x="1085" y="1251" on="0"/>
        <pt x="1019" y="1292" on="0"/>
        <pt x="1006" y="1292" on="1"/>
        <pt x="1001" y="1292" on="0"/>
        <pt x="745" y="1036" on="0"/>
        <pt x="697" y="1036" on="1"/>
        <pt x="634" y="1036" on="1"/>
        <pt x="628" y="1049" on="0"/>
        <pt x="611" y="1072" on="1"/>
        <pt x="703" y="1154" on="0"/>
        <pt x="898" y="1329" on="1"/>
        <pt x="888" y="1345" on="0"/>
        <pt x="829" y="1391" on="1"/>
        <pt x="775" y="1432" on="0"/>
        <pt x="775" y="1446" on="1"/>
        <pt x="775" y="1497" on="0"/>
        <pt x="838" y="1582" on="1"/>
        <pt x="906" y="1671" on="0"/>
        <pt x="954" y="1671" on="1"/>
        <pt x="1013" y="1671" on="0"/>
        <pt x="1039" y="1554" on="1"/>
        <pt x="1054" y="1488" on="0"/>
        <pt x="1054" y="1432" on="1"/>
        <pt x="1081" y="1407" on="0"/>
        <pt x="1109" y="1382" on="1"/>
        <pt x="1144" y="1346" on="0"/>
      </contour>
      <contour>
        <pt x="796" y="1343" on="1"/>
        <pt x="796" y="1282" on="0"/>
        <pt x="734" y="1282" on="1"/>
        <pt x="723" y="1282" on="0"/>
        <pt x="694" y="1292" on="0"/>
        <pt x="683" y="1292" on="1"/>
        <pt x="670" y="1292" on="0"/>
        <pt x="633" y="1248" on="1"/>
        <pt x="580" y="1188" on="0"/>
        <pt x="565" y="1173" on="1"/>
        <pt x="481" y="1096" on="0"/>
        <pt x="308" y="1057" on="1"/>
        <pt x="294" y="1069" on="0"/>
        <pt x="285" y="1069" on="1"/>
        <pt x="309" y="1120" on="0"/>
        <pt x="401" y="1187" on="1"/>
        <pt x="516" y="1271" on="0"/>
        <pt x="560" y="1319" on="1"/>
        <pt x="554" y="1343" on="0"/>
        <pt x="503" y="1371" on="1"/>
        <pt x="457" y="1398" on="0"/>
        <pt x="457" y="1440" on="1"/>
        <pt x="457" y="1488" on="0"/>
        <pt x="509" y="1566" on="1"/>
        <pt x="567" y="1655" on="0"/>
        <pt x="625" y="1655" on="1"/>
        <pt x="638" y="1655" on="0"/>
        <pt x="650" y="1649" on="1"/>
        <pt x="691" y="1604" on="0"/>
        <pt x="699" y="1541" on="1"/>
        <pt x="702" y="1487" on="0"/>
        <pt x="706" y="1433" on="1"/>
        <pt x="796" y="1367" on="0"/>
      </contour>
      <contour>
        <pt x="2833" y="294" on="1"/>
        <pt x="2833" y="74" on="0"/>
        <pt x="2664" y="74" on="1"/>
        <pt x="2582" y="74" on="1"/>
        <pt x="2515" y="74" on="0"/>
        <pt x="2408" y="145" on="1"/>
        <pt x="2383" y="110" on="0"/>
        <pt x="2329" y="57" on="1"/>
        <pt x="2291" y="33" on="0"/>
        <pt x="2224" y="33" on="1"/>
        <pt x="2211" y="33" on="0"/>
        <pt x="2119" y="53" on="0"/>
        <pt x="2107" y="53" on="1"/>
        <pt x="2093" y="53" on="0"/>
        <pt x="1996" y="22" on="0"/>
        <pt x="1984" y="22" on="1"/>
        <pt x="1971" y="22" on="0"/>
        <pt x="1822" y="74" on="0"/>
        <pt x="1809" y="74" on="1"/>
        <pt x="1796" y="74" on="0"/>
        <pt x="1490" y="-8" on="0"/>
        <pt x="1477" y="-8" on="1"/>
        <pt x="1466" y="-8" on="0"/>
        <pt x="1345" y="22" on="0"/>
        <pt x="1333" y="22" on="1"/>
        <pt x="1323" y="22" on="0"/>
        <pt x="1250" y="2" on="0"/>
        <pt x="1236" y="2" on="1"/>
        <pt x="1158" y="2" on="0"/>
        <pt x="894" y="74" on="1"/>
        <pt x="891" y="66" on="0"/>
        <pt x="880" y="47" on="1"/>
        <pt x="883" y="-57" on="0"/>
        <pt x="752" y="-199" on="1"/>
        <pt x="616" y="-346" on="0"/>
        <pt x="504" y="-346" on="1"/>
        <pt x="491" y="-346" on="0"/>
        <pt x="466" y="-338" on="1"/>
        <pt x="439" y="-330" on="0"/>
        <pt x="432" y="-329" on="1"/>
        <pt x="335" y="-321" on="0"/>
        <pt x="240" y="-312" on="1"/>
        <pt x="120" y="-289" on="0"/>
        <pt x="79" y="-218" on="1"/>
        <pt x="95" y="-182" on="0"/>
        <pt x="130" y="-182" on="1"/>
        <pt x="143" y="-182" on="0"/>
        <pt x="276" y="-223" on="0"/>
        <pt x="289" y="-223" on="1"/>
        <pt x="419" y="-223" on="0"/>
        <pt x="502" y="-190" on="1"/>
        <pt x="633" y="-138" on="0"/>
        <pt x="772" y="41" on="1"/>
        <pt x="806" y="84" on="0"/>
        <pt x="806" y="115" on="1"/>
        <pt x="806" y="127" on="0"/>
        <pt x="724" y="270" on="0"/>
        <pt x="724" y="283" on="1"/>
        <pt x="724" y="309" on="0"/>
        <pt x="779" y="391" on="1"/>
        <pt x="786" y="390" on="0"/>
        <pt x="804" y="386" on="1"/>
        <pt x="965" y="176" on="0"/>
        <pt x="1415" y="176" on="1"/>
        <pt x="1492" y="176" on="0"/>
        <pt x="1620" y="193" on="1"/>
        <pt x="1769" y="214" on="0"/>
        <pt x="1779" y="237" on="1"/>
        <pt x="1795" y="274" on="0"/>
        <pt x="1863" y="339" on="1"/>
        <pt x="1899" y="339" on="1"/>
        <pt x="1917" y="268" on="0"/>
        <pt x="1901" y="203" on="1"/>
        <pt x="1919" y="186" on="0"/>
        <pt x="1968" y="186" on="1"/>
        <pt x="2054" y="186" on="0"/>
        <pt x="2088" y="222" on="1"/>
        <pt x="2129" y="286" on="0"/>
        <pt x="2170" y="349" on="1"/>
        <pt x="2227" y="349" on="1"/>
        <pt x="2227" y="224" on="1"/>
        <pt x="2235" y="217" on="0"/>
        <pt x="2265" y="217" on="1"/>
        <pt x="2326" y="217" on="0"/>
        <pt x="2350" y="274" on="1"/>
        <pt x="2389" y="366" on="0"/>
        <pt x="2437" y="411" on="1"/>
        <pt x="2473" y="411" on="1"/>
        <pt x="2483" y="395" on="0"/>
        <pt x="2487" y="357" on="1"/>
        <pt x="2492" y="310" on="0"/>
        <pt x="2496" y="297" on="1"/>
        <pt x="2572" y="258" on="0"/>
        <pt x="2628" y="258" on="1"/>
        <pt x="2674" y="258" on="0"/>
        <pt x="2732" y="274" on="1"/>
        <pt x="2694" y="428" on="0"/>
        <pt x="2541" y="566" on="1"/>
        <pt x="2515" y="588" on="0"/>
        <pt x="2515" y="627" on="1"/>
        <pt x="2515" y="672" on="0"/>
        <pt x="2559" y="759" on="1"/>
        <pt x="2595" y="759" on="1"/>
        <pt x="2688" y="666" on="0"/>
        <pt x="2753" y="551" on="1"/>
        <pt x="2833" y="410" on="0"/>
      </contour>
      <contour>
        <pt x="948" y="1488" on="1"/>
        <pt x="948" y="1516" on="1"/>
        <pt x="910" y="1516" on="1"/>
        <pt x="910" y="1488" on="1"/>
      </contour>
      <contour>
        <pt x="607" y="1475" on="1"/>
        <pt x="607" y="1503" on="1"/>
        <pt x="569" y="1503" on="1"/>
        <pt x="569" y="1475" on="1"/>
      </contour>
    </TTGlyph>
    <TTGlyph name="uniFB58" xMin="317" yMin="-838" xMax="5877" yMax="1798">
      <contour>
        <pt x="5713" y="1305" on="1"/>
        <pt x="5713" y="1286" on="0"/>
        <pt x="5651" y="1138" on="0"/>
        <pt x="5639" y="1130" on="1"/>
        <pt x="5599" y="1117" on="0"/>
        <pt x="5525" y="1092" on="1"/>
        <pt x="5522" y="1090" on="0"/>
        <pt x="5480" y="1070" on="1"/>
        <pt x="5451" y="1054" on="0"/>
        <pt x="5431" y="1054" on="1"/>
        <pt x="5354" y="1054" on="0"/>
        <pt x="5354" y="1141" on="1"/>
        <pt x="5354" y="1155" on="0"/>
        <pt x="5408" y="1289" on="1"/>
        <pt x="5444" y="1289" on="1"/>
        <pt x="5466" y="1252" on="0"/>
        <pt x="5447" y="1214" on="1"/>
        <pt x="5472" y="1188" on="1"/>
        <pt x="5488" y="1208" on="0"/>
        <pt x="5527" y="1289" on="0"/>
        <pt x="5542" y="1310" on="1"/>
        <pt x="5550" y="1310" on="0"/>
        <pt x="5568" y="1305" on="1"/>
        <pt x="5575" y="1294" on="0"/>
        <pt x="5598" y="1238" on="1"/>
        <pt x="5625" y="1242" on="0"/>
        <pt x="5642" y="1308" on="1"/>
        <pt x="5657" y="1371" on="0"/>
        <pt x="5690" y="1371" on="1"/>
        <pt x="5713" y="1325" on="0"/>
      </contour>
      <contour>
        <pt x="5149" y="1469" on="1"/>
        <pt x="5149" y="1403" on="0"/>
        <pt x="5014" y="1340" on="1"/>
        <pt x="4905" y="1290" on="0"/>
        <pt x="4864" y="1290" on="1"/>
        <pt x="4838" y="1290" on="0"/>
        <pt x="4792" y="1313" on="1"/>
        <pt x="4792" y="1349" on="1"/>
        <pt x="4833" y="1363" on="0"/>
        <pt x="4914" y="1408" on="1"/>
        <pt x="4901" y="1423" on="0"/>
        <pt x="4873" y="1423" on="1"/>
        <pt x="4859" y="1423" on="0"/>
        <pt x="4821" y="1402" on="1"/>
        <pt x="4776" y="1375" on="0"/>
        <pt x="4764" y="1372" on="1"/>
        <pt x="4751" y="1386" on="0"/>
        <pt x="4751" y="1402" on="1"/>
        <pt x="4751" y="1436" on="0"/>
        <pt x="4878" y="1556" on="0"/>
        <pt x="4909" y="1556" on="1"/>
        <pt x="4967" y="1556" on="0"/>
        <pt x="5139" y="1513" on="1"/>
        <pt x="5139" y="1510" on="0"/>
        <pt x="5149" y="1484" on="0"/>
      </contour>
      <contour>
        <pt x="4515" y="1434" on="1"/>
        <pt x="4515" y="1419" on="0"/>
        <pt x="4492" y="1372" on="1"/>
        <pt x="4439" y="1372" on="1"/>
        <pt x="4427" y="1372" on="0"/>
        <pt x="4359" y="1434" on="0"/>
        <pt x="4346" y="1434" on="1"/>
        <pt x="4363" y="1434" on="0"/>
        <pt x="4065" y="1198" on="0"/>
        <pt x="3967" y="1198" on="1"/>
        <pt x="3947" y="1198" on="0"/>
        <pt x="3921" y="1223" on="1"/>
        <pt x="4019" y="1310" on="0"/>
        <pt x="4239" y="1470" on="1"/>
        <pt x="4221" y="1503" on="0"/>
        <pt x="4181" y="1544" on="1"/>
        <pt x="4157" y="1569" on="0"/>
        <pt x="4157" y="1607" on="1"/>
        <pt x="4157" y="1676" on="0"/>
        <pt x="4206" y="1733" on="1"/>
        <pt x="4261" y="1798" on="0"/>
        <pt x="4338" y="1791" on="1"/>
        <pt x="4391" y="1744" on="0"/>
        <pt x="4391" y="1653" on="1"/>
        <pt x="4391" y="1621" on="0"/>
        <pt x="4384" y="1584" on="1"/>
        <pt x="4388" y="1579" on="0"/>
        <pt x="4477" y="1505" on="1"/>
        <pt x="4515" y="1473" on="0"/>
      </contour>
      <contour>
        <pt x="4996" y="824" on="1"/>
        <pt x="4996" y="791" on="0"/>
        <pt x="4924" y="717" on="0"/>
        <pt x="4894" y="717" on="1"/>
        <pt x="4860" y="717" on="0"/>
        <pt x="4791" y="786" on="0"/>
        <pt x="4791" y="813" on="1"/>
        <pt x="4791" y="831" on="0"/>
        <pt x="4875" y="922" on="0"/>
        <pt x="4894" y="922" on="1"/>
        <pt x="4920" y="922" on="0"/>
        <pt x="4960" y="878" on="1"/>
        <pt x="4996" y="839" on="0"/>
      </contour>
      <contour>
        <pt x="5129" y="650" on="1"/>
        <pt x="5129" y="611" on="0"/>
        <pt x="5068" y="542" on="0"/>
        <pt x="5037" y="542" on="1"/>
        <pt x="5024" y="542" on="0"/>
        <pt x="4948" y="583" on="0"/>
        <pt x="4935" y="583" on="1"/>
        <pt x="4923" y="583" on="0"/>
        <pt x="4841" y="512" on="0"/>
        <pt x="4828" y="512" on="1"/>
        <pt x="4799" y="512" on="0"/>
        <pt x="4710" y="597" on="0"/>
        <pt x="4710" y="614" on="1"/>
        <pt x="4710" y="653" on="0"/>
        <pt x="4760" y="694" on="1"/>
        <pt x="4800" y="727" on="0"/>
        <pt x="4812" y="727" on="1"/>
        <pt x="4822" y="727" on="0"/>
        <pt x="4899" y="676" on="1"/>
        <pt x="4995" y="747" on="0"/>
        <pt x="5017" y="747" on="1"/>
        <pt x="5046" y="747" on="0"/>
        <pt x="5087" y="714" on="1"/>
        <pt x="5129" y="679" on="0"/>
      </contour>
      <contour>
        <pt x="5877" y="-15" on="1"/>
        <pt x="5877" y="-70" on="0"/>
        <pt x="5823" y="-99" on="1"/>
        <pt x="5743" y="-141" on="0"/>
        <pt x="5593" y="-195" on="1"/>
        <pt x="5453" y="-245" on="0"/>
        <pt x="5430" y="-245" on="1"/>
        <pt x="5388" y="-245" on="1"/>
        <pt x="5375" y="-231" on="0"/>
        <pt x="5375" y="-204" on="1"/>
        <pt x="5375" y="-161" on="0"/>
        <pt x="5398" y="-148" on="1"/>
        <pt x="5486" y="-98" on="0"/>
        <pt x="5643" y="-36" on="1"/>
        <pt x="5789" y="20" on="0"/>
        <pt x="5811" y="20" on="1"/>
        <pt x="5865" y="20" on="1"/>
        <pt x="5865" y="16" on="0"/>
        <pt x="5877" y="0" on="0"/>
      </contour>
      <contour>
        <pt x="5764" y="256" on="1"/>
        <pt x="5764" y="182" on="0"/>
        <pt x="5726" y="133" on="1"/>
        <pt x="5686" y="82" on="0"/>
        <pt x="5621" y="82" on="1"/>
        <pt x="5544" y="82" on="0"/>
        <pt x="5429" y="153" on="0"/>
        <pt x="5401" y="153" on="1"/>
        <pt x="5290" y="30" on="0"/>
        <pt x="5206" y="30" on="1"/>
        <pt x="5183" y="30" on="0"/>
        <pt x="5053" y="82" on="0"/>
        <pt x="5042" y="82" on="1"/>
        <pt x="5031" y="82" on="0"/>
        <pt x="4967" y="48" on="1"/>
        <pt x="4896" y="11" on="0"/>
        <pt x="4870" y="2" on="1"/>
        <pt x="4793" y="-20" on="0"/>
        <pt x="4679" y="-20" on="1"/>
        <pt x="4445" y="-20" on="0"/>
        <pt x="4394" y="103" on="1"/>
        <pt x="4384" y="104" on="0"/>
        <pt x="4365" y="82" on="1"/>
        <pt x="4338" y="52" on="0"/>
        <pt x="4329" y="44" on="1"/>
        <pt x="4281" y="10" on="0"/>
        <pt x="4234" y="2" on="1"/>
        <pt x="4011" y="-31" on="0"/>
        <pt x="3936" y="-31" on="1"/>
        <pt x="3861" y="-31" on="0"/>
        <pt x="3835" y="-24" on="1"/>
        <pt x="3777" y="-10" on="0"/>
        <pt x="3740" y="43" on="1"/>
        <pt x="3729" y="60" on="0"/>
        <pt x="3727" y="125" on="1"/>
        <pt x="3726" y="174" on="0"/>
        <pt x="3696" y="174" on="1"/>
        <pt x="2964" y="97" on="1"/>
        <pt x="2135" y="30" on="1"/>
        <pt x="1536" y="20" on="1"/>
        <pt x="1494" y="20" on="0"/>
        <pt x="1311" y="34" on="1"/>
        <pt x="1084" y="52" on="0"/>
        <pt x="959" y="72" on="1"/>
        <pt x="955" y="68" on="0"/>
        <pt x="945" y="54" on="1"/>
        <pt x="929" y="-174" on="0"/>
        <pt x="849" y="-174" on="1"/>
        <pt x="809" y="-174" on="0"/>
        <pt x="749" y="-100" on="1"/>
        <pt x="695" y="-36" on="0"/>
        <pt x="689" y="-6" on="1"/>
        <pt x="674" y="63" on="0"/>
        <pt x="676" y="126" on="1"/>
        <pt x="659" y="143" on="0"/>
        <pt x="650" y="143" on="1"/>
        <pt x="580" y="143" on="0"/>
        <pt x="499" y="91" on="1"/>
        <pt x="410" y="33" on="0"/>
        <pt x="410" y="-36" on="1"/>
        <pt x="481" y="-691" on="1"/>
        <pt x="481" y="-793" on="0"/>
        <pt x="447" y="-838" on="1"/>
        <pt x="401" y="-838" on="1"/>
        <pt x="380" y="-744" on="0"/>
        <pt x="351" y="-538" on="1"/>
        <pt x="317" y="-113" on="1"/>
        <pt x="317" y="-12" on="0"/>
        <pt x="328" y="18" on="1"/>
        <pt x="344" y="63" on="0"/>
        <pt x="361" y="109" on="1"/>
        <pt x="387" y="204" on="0"/>
        <pt x="494" y="254" on="1"/>
        <pt x="581" y="292" on="0"/>
        <pt x="668" y="329" on="1"/>
        <pt x="675" y="333" on="0"/>
        <pt x="728" y="419" on="1"/>
        <pt x="767" y="419" on="1"/>
        <pt x="790" y="383" on="0"/>
        <pt x="815" y="347" on="1"/>
        <pt x="847" y="304" on="0"/>
        <pt x="877" y="288" on="1"/>
        <pt x="940" y="257" on="0"/>
        <pt x="1057" y="229" on="1"/>
        <pt x="1154" y="205" on="0"/>
        <pt x="1182" y="205" on="1"/>
        <pt x="1828" y="184" on="1"/>
        <pt x="1840" y="184" on="0"/>
        <pt x="2214" y="194" on="0"/>
        <pt x="2227" y="194" on="1"/>
        <pt x="2945" y="235" on="1"/>
        <pt x="3760" y="338" on="1"/>
        <pt x="3778" y="354" on="1"/>
        <pt x="3753" y="404" on="0"/>
        <pt x="3657" y="430" on="1"/>
        <pt x="3582" y="451" on="0"/>
        <pt x="3507" y="451" on="1"/>
        <pt x="3517" y="451" on="0"/>
        <pt x="3208" y="419" on="1"/>
        <pt x="2854" y="384" on="0"/>
        <pt x="2535" y="365" on="1"/>
        <pt x="2431" y="358" on="0"/>
        <pt x="1996" y="358" on="1"/>
        <pt x="1791" y="358" on="0"/>
        <pt x="1562" y="384" on="1"/>
        <pt x="1239" y="420" on="0"/>
        <pt x="1239" y="486" on="1"/>
        <pt x="1239" y="511" on="0"/>
        <pt x="1404" y="765" on="0"/>
        <pt x="1438" y="794" on="1"/>
        <pt x="1564" y="897" on="0"/>
        <pt x="1671" y="958" on="1"/>
        <pt x="1774" y="1016" on="0"/>
        <pt x="1955" y="1094" on="1"/>
        <pt x="2125" y="1167" on="0"/>
        <pt x="2146" y="1167" on="1"/>
        <pt x="2198" y="1167" on="1"/>
        <pt x="2206" y="1162" on="0"/>
        <pt x="2222" y="1152" on="0"/>
        <pt x="2222" y="1136" on="1"/>
        <pt x="2222" y="1115" on="0"/>
        <pt x="2201" y="1076" on="1"/>
        <pt x="2177" y="1032" on="0"/>
        <pt x="2147" y="1017" on="1"/>
        <pt x="2048" y="983" on="0"/>
        <pt x="1860" y="908" on="1"/>
        <pt x="1684" y="826" on="0"/>
        <pt x="1602" y="776" on="1"/>
        <pt x="1461" y="690" on="0"/>
        <pt x="1402" y="599" on="1"/>
        <pt x="1424" y="571" on="0"/>
        <pt x="1506" y="550" on="1"/>
        <pt x="1576" y="532" on="0"/>
        <pt x="1623" y="532" on="1"/>
        <pt x="2299" y="496" on="1"/>
        <pt x="3640" y="614" on="1"/>
        <pt x="3722" y="614" on="0"/>
        <pt x="3835" y="551" on="1"/>
        <pt x="3944" y="491" on="0"/>
        <pt x="3972" y="405" on="0"/>
        <pt x="3972" y="378" on="1"/>
        <pt x="3972" y="328" on="0"/>
        <pt x="3931" y="272" on="1"/>
        <pt x="3895" y="229" on="0"/>
        <pt x="3859" y="188" on="1"/>
        <pt x="3865" y="143" on="0"/>
        <pt x="3988" y="143" on="1"/>
        <pt x="4090" y="143" on="1"/>
        <pt x="4183" y="143" on="0"/>
        <pt x="4261" y="174" on="1"/>
        <pt x="4372" y="217" on="0"/>
        <pt x="4372" y="301" on="1"/>
        <pt x="4300" y="983" on="1"/>
        <pt x="4300" y="1076" on="0"/>
        <pt x="4354" y="1146" on="1"/>
        <pt x="4380" y="1146" on="0"/>
        <pt x="4388" y="1133" on="1"/>
        <pt x="4415" y="879" on="0"/>
        <pt x="4466" y="405" on="1"/>
        <pt x="4483" y="266" on="0"/>
        <pt x="4517" y="202" on="1"/>
        <pt x="4526" y="186" on="0"/>
        <pt x="4604" y="164" on="1"/>
        <pt x="4675" y="143" on="0"/>
        <pt x="4700" y="143" on="1"/>
        <pt x="4799" y="143" on="0"/>
        <pt x="4887" y="176" on="1"/>
        <pt x="4905" y="183" on="0"/>
        <pt x="4982" y="227" on="1"/>
        <pt x="5049" y="266" on="0"/>
        <pt x="5063" y="266" on="1"/>
        <pt x="5076" y="266" on="0"/>
        <pt x="5235" y="205" on="0"/>
        <pt x="5247" y="205" on="1"/>
        <pt x="5303" y="205" on="0"/>
        <pt x="5571" y="553" on="0"/>
        <pt x="5626" y="553" on="1"/>
        <pt x="5674" y="553" on="0"/>
        <pt x="5723" y="417" on="1"/>
        <pt x="5764" y="303" on="0"/>
      </contour>
      <contour>
        <pt x="1689" y="1341" on="1"/>
        <pt x="1689" y="1314" on="0"/>
        <pt x="1656" y="1270" on="0"/>
        <pt x="1638" y="1270" on="1"/>
        <pt x="1625" y="1270" on="0"/>
        <pt x="1528" y="1321" on="0"/>
        <pt x="1515" y="1321" on="1"/>
        <pt x="1523" y="1321" on="0"/>
        <pt x="1414" y="1222" on="1"/>
        <pt x="1295" y="1115" on="0"/>
        <pt x="1184" y="1075" on="1"/>
        <pt x="1149" y="1075" on="1"/>
        <pt x="1136" y="1089" on="0"/>
        <pt x="1136" y="1111" on="1"/>
        <pt x="1136" y="1123" on="0"/>
        <pt x="1393" y="1359" on="0"/>
        <pt x="1393" y="1372" on="1"/>
        <pt x="1393" y="1386" on="0"/>
        <pt x="1339" y="1420" on="0"/>
        <pt x="1314" y="1436" on="1"/>
        <pt x="1314" y="1444" on="0"/>
        <pt x="1300" y="1486" on="0"/>
        <pt x="1300" y="1500" on="1"/>
        <pt x="1300" y="1555" on="0"/>
        <pt x="1409" y="1689" on="0"/>
        <pt x="1459" y="1689" on="1"/>
        <pt x="1528" y="1689" on="0"/>
        <pt x="1547" y="1628" on="1"/>
        <pt x="1554" y="1602" on="0"/>
        <pt x="1556" y="1511" on="1"/>
        <pt x="1556" y="1490" on="0"/>
        <pt x="1559" y="1480" on="1"/>
        <pt x="1562" y="1464" on="0"/>
        <pt x="1628" y="1420" on="1"/>
        <pt x="1689" y="1380" on="0"/>
      </contour>
      <contour>
        <pt x="951" y="1309" on="1"/>
        <pt x="951" y="1254" on="0"/>
        <pt x="926" y="1221" on="1"/>
        <pt x="908" y="1194" on="0"/>
        <pt x="810" y="1140" on="1"/>
        <pt x="709" y="1085" on="0"/>
        <pt x="671" y="1085" on="1"/>
        <pt x="638" y="1085" on="0"/>
        <pt x="615" y="1108" on="1"/>
        <pt x="615" y="1156" on="1"/>
        <pt x="652" y="1182" on="0"/>
        <pt x="737" y="1225" on="1"/>
        <pt x="723" y="1249" on="0"/>
        <pt x="691" y="1249" on="1"/>
        <pt x="642" y="1249" on="0"/>
        <pt x="559" y="1189" on="1"/>
        <pt x="523" y="1189" on="1"/>
        <pt x="523" y="1232" on="1"/>
        <pt x="523" y="1249" on="0"/>
        <pt x="609" y="1343" on="0"/>
        <pt x="688" y="1393" on="0"/>
        <pt x="742" y="1393" on="1"/>
        <pt x="750" y="1393" on="0"/>
      </contour>
      <contour>
        <pt x="5609" y="277" on="1"/>
        <pt x="5609" y="324" on="1"/>
        <pt x="5603" y="336" on="0"/>
        <pt x="5587" y="358" on="1"/>
        <pt x="5553" y="358" on="1"/>
        <pt x="5529" y="334" on="0"/>
        <pt x="5529" y="322" on="1"/>
        <pt x="5529" y="306" on="0"/>
        <pt x="5561" y="294" on="1"/>
        <pt x="5585" y="285" on="0"/>
      </contour>
      <contour>
        <pt x="1463" y="1528" on="1"/>
        <pt x="1463" y="1538" on="0"/>
        <pt x="1452" y="1556" on="1"/>
        <pt x="1442" y="1556" on="0"/>
        <pt x="1423" y="1541" on="1"/>
        <pt x="1434" y="1531" on="0"/>
        <pt x="1436" y="1516" on="1"/>
        <pt x="1455" y="1516" on="0"/>
      </contour>
      <contour>
        <pt x="4293" y="1623" on="1"/>
        <pt x="4293" y="1651" on="1"/>
        <pt x="4254" y="1651" on="1"/>
        <pt x="4254" y="1623" on="1"/>
      </contour>
    </TTGlyph>
</ttFont>
